<?xml version="1.0" encoding="UTF-8"?>
<svg xmlns="http://www.w3.org/2000/svg" width="1900" height="300" xmlns:xlink="http://www.w3.org/1999/xlink" viewBox="0 0 1900 300">
  <defs>
    <linearGradient id="linear-gradient" x1="969.43" y1="-157.93" x2="945.8" y2="220.09" gradientUnits="userSpaceOnUse">
      <stop offset="0" stop-color="#223654"/>
      <stop offset="1" stop-color="#151c2b"/>
    </linearGradient>
    <linearGradient id="linear-gradient-2" x1="1207.34" y1="-271.69" x2="1183.29" y2="-977.03" gradientTransform="translate(164.6 246.2) scale(.8 -.8)" gradientUnits="userSpaceOnUse">
      <stop offset="0" stop-color="#fff"/>
      <stop offset="1" stop-color="#fff"/>
    </linearGradient>
    <linearGradient id="linear-gradient-3" x1="382.48" y1="-276.14" x2="358.43" y2="-981.49" gradientTransform="translate(1013.47 246.2) rotate(-180) scale(.8)" xlink:href="#linear-gradient-2"/>
    <linearGradient id="linear-gradient-4" x1="1235.04" y1="-825.06" x2="1210.99" y2="-1530.4" gradientTransform="translate(-692.38 537.41) rotate(-1.96) scale(.8)" xlink:href="#linear-gradient-2"/>
    <linearGradient id="linear-gradient-5" x1="2745.71" y1="-773.49" x2="2721.66" y2="-1478.83" gradientTransform="translate(3811.84 537.41) rotate(-178.04) scale(.8 -.8)" xlink:href="#linear-gradient-2"/>
    <linearGradient id="linear-gradient-6" x1="982.16" y1="111.27" x2="977.11" y2="-36.84" xlink:href="#linear-gradient-2"/>
  </defs>
  <g id="Layer_2" data-name="Layer 2">
    <rect x="-10" y="-17.48" width="1920" height="340.9" style="fill: url(#linear-gradient); stroke-width: 0px;"/>
  </g>
  <g id="Layer_7" data-name="Layer 7">
    <g id="Artwork_35" data-name="Artwork 35" style="opacity: .08;">
      <g>
        <path id="cloud" d="m672.26,55.01c-.67-3.48-3.77-6.13-7.48-6.13h-1.34c-1.01-4.98-5.37-8.62-10.51-8.62s-9.53,3.66-10.52,8.67c-3.81.41-6.79,3.62-6.79,7.5,0,4.16,3.42,7.55,7.62,7.55h11.27c.59-.02,1.06-.52,1.03-1.12-.02-.56-.47-1.02-1.03-1.03h-11.27c-3.01,0-5.46-2.42-5.46-5.39s2.45-5.39,5.46-5.39c1.11,0,2.2.34,3.11.98.43.31,1.02.27,1.39-.11h0c.42-.41.42-1.09,0-1.51h0s-.08-.08-.13-.12c-.9-.64-1.93-1.08-3.01-1.27.92-3.83,4.33-6.59,8.33-6.59,4.23,0,7.81,3.09,8.46,7.27-.34.18-.67.37-.98.59-.49.34-.6,1.02-.26,1.51.04.05.07.1.12.14h0c.37.37.96.41,1.39.11.91-.65,2-.99,3.11-.98,2.66,0,4.87,1.88,5.36,4.37.1.51.54.88,1.06.88h0c.59,0,1.08-.47,1.08-1.07h0c.01-.07.01-.15,0-.22Z" style="fill: #fff; stroke-width: 0px;"/>
        <g id="numbers">
          <path d="m658.83,62.22h-.93v-2.95s.02-.46.02-.46c-.11.11-.21.2-.32.3l-.51.41-.45-.56,1.41-1.13h.76v4.38Z" style="fill: #fff; stroke-width: 0px;"/>
          <path d="m663.1,60.03c0,.77-.13,1.34-.38,1.7s-.64.55-1.16.55-.89-.19-1.15-.57-.39-.94-.39-1.68.13-1.34.37-1.72.63-.55,1.15-.55.89.19,1.15.58c.27.39.4.95.4,1.69Zm-2.15,0c0,.53.05.92.14,1.16s.25.35.47.35.37-.12.47-.35.14-.62.14-1.16-.05-.93-.15-1.16-.25-.35-.46-.35-.37.12-.47.35-.14.62-.14,1.16Z" style="fill: #fff; stroke-width: 0px;"/>
          <path d="m658.83,68.88h-.93v-2.95s.02-.46.02-.46c-.11.11-.21.2-.32.3l-.51.41-.45-.56,1.41-1.13h.76v4.38Z" style="fill: #fff; stroke-width: 0px;"/>
          <path d="m662.34,68.88h-.93v-2.95s.02-.46.02-.46c-.11.11-.21.2-.32.3l-.51.41-.45-.56,1.41-1.13h.76v4.38h.01Z" style="fill: #fff; stroke-width: 0px;"/>
          <path d="m665.86,68.88h-.93v-2.95s.02-.46.02-.46c-.11.11-.21.2-.32.3l-.51.41-.45-.56,1.41-1.13h.76v4.38Z" style="fill: #fff; stroke-width: 0px;"/>
          <path d="m670.12,66.69c0,.77-.13,1.34-.38,1.7s-.64.56-1.16.56-.89-.19-1.15-.57-.39-.94-.39-1.69.13-1.34.37-1.72.63-.55,1.15-.55.89.19,1.15.58c.27.38.41.94.4,1.69Zm-2.15,0c0,.53.05.92.14,1.16s.25.35.47.35.37-.12.47-.35.14-.62.14-1.15-.05-.93-.15-1.16-.25-.35-.46-.35-.37.12-.47.35-.14.61-.14,1.15Z" style="fill: #fff; stroke-width: 0px;"/>
          <path d="m672.12,71.96c0,.56-.09.97-.27,1.24s-.46.4-.84.4-.65-.14-.83-.41-.28-.68-.28-1.22.09-.98.27-1.24c.18-.27.46-.4.84-.4s.65.14.84.42.28.69.27,1.22Zm-1.56,0c0,.39.04.68.1.84.04.15.18.25.34.25s.27-.08.34-.26.11-.45.11-.84-.04-.68-.11-.84-.18-.26-.34-.26-.27.08-.34.26-.11.45-.11.84h0Z" style="fill: #fff; stroke-width: 0px;"/>
          <path d="m674.13,73.55h-.68v-2.15s.02-.33.02-.33c-.11.11-.19.18-.23.22l-.37.3-.32-.41,1.03-.82h.56v3.19h0Z" style="fill: #fff; stroke-width: 0px;"/>
          <path d="m658.64,71.99c0,.55-.09.95-.27,1.21s-.46.39-.83.39-.63-.13-.82-.41-.27-.67-.27-1.2.09-.96.27-1.22.45-.39.82-.39.63.13.82.41.28.68.28,1.2Zm-1.53,0c0,.38.04.66.1.82.04.15.18.25.34.25.15,0,.27-.08.33-.25s.11-.44.11-.82-.04-.66-.11-.82-.18-.25-.33-.25-.27.08-.33.25-.11.44-.11.83h0Z" style="fill: #fff; stroke-width: 0px;"/>
          <path d="m660.61,73.55h-.66v-2.1s.02-.32.02-.32c-.11.11-.18.18-.23.22l-.36.29-.32-.4,1.01-.8h.54v3.12Z" style="fill: #fff; stroke-width: 0px;"/>
          <path d="m663.64,71.99c0,.55-.09.95-.27,1.21s-.46.39-.83.39-.63-.13-.82-.41-.27-.67-.27-1.2.09-.96.27-1.22.45-.39.82-.39.63.13.82.41.28.68.28,1.2Zm-1.53,0c0,.38.04.66.1.82.04.15.18.25.34.25.16,0,.27-.08.33-.25s.11-.44.11-.82-.04-.66-.11-.82-.18-.25-.33-.25-.27.08-.33.25-.11.44-.11.83h0Z" style="fill: #fff; stroke-width: 0px;"/>
          <path d="m665.6,73.55h-.66v-2.1s.02-.32.02-.32c-.11.11-.19.18-.23.22l-.36.29-.32-.4,1.01-.8h.54v3.12Z" style="fill: #fff; stroke-width: 0px;"/>
          <path d="m657.98,75.97c0,.39-.06.68-.19.87s-.32.28-.6.28c-.23.01-.46-.1-.58-.3-.13-.2-.2-.49-.2-.87,0-.4.06-.69.19-.88s.32-.28.59-.28c.23-.01.46.1.59.3.13.2.2.49.2.87Zm-1.1,0c0,.27.02.47.07.59.04.13.17.2.3.17h0c.08-.02.15-.08.17-.17.05-.12.07-.32.07-.59,0-.2-.01-.41-.08-.6-.04-.13-.17-.2-.3-.18h-.01c-.08.02-.15.08-.17.17-.05.2-.07.4-.06.6Z" style="fill: #fff; stroke-width: 0px;"/>
          <path d="m659.4,77.1h-.48v-1.51s.01-.23.01-.23c-.08.08-.13.13-.16.15l-.26.2-.23-.28.72-.58h.39v2.24Z" style="fill: #fff; stroke-width: 0px;"/>
          <path d="m664.23,78.78c0,.39-.06.68-.2.87s-.33.28-.6.28c-.23.01-.46-.1-.58-.3-.13-.2-.2-.49-.2-.87s.06-.69.19-.88.32-.28.59-.28c.23-.01.46.1.59.3.14.2.2.49.2.87Zm-1.1,0c0,.27.02.47.07.59.04.13.17.2.3.18h.01c.08-.02.15-.08.17-.17.05-.12.07-.32.07-.59,0-.2-.01-.41-.08-.6-.03-.11-.13-.18-.24-.18s-.21.07-.24.18c-.04.11-.06.31-.06.59Z" style="fill: #fff; stroke-width: 0px;"/>
          <path d="m665.65,79.9h-.48v-1.51s.01-.23.01-.23c-.08.08-.13.13-.16.15l-.26.21-.23-.29.72-.58h.39v2.24Z" style="fill: #fff; stroke-width: 0px;"/>
          <path d="m669.38,75.54c0,.55-.09.95-.27,1.21s-.46.39-.83.39-.63-.13-.82-.41-.27-.67-.27-1.2.09-.96.27-1.22.45-.39.82-.39.63.13.82.41.28.68.28,1.2Zm-1.53,0c0,.39.04.66.1.82.04.15.18.25.34.25.15,0,.27-.08.33-.25s.11-.44.11-.82-.04-.66-.11-.83-.18-.25-.34-.25-.27.08-.33.25-.1.46-.1.84h0Z" style="fill: #fff; stroke-width: 0px;"/>
          <path d="m671.35,77.1h-.66v-2.1s.02-.32.02-.32c-.11.11-.18.18-.23.22l-.36.29-.32-.4,1.01-.8h.54v3.12h0Z" style="fill: #fff; stroke-width: 0px;"/>
          <path d="m674.39,75.54c0,.55-.09.95-.27,1.21s-.46.39-.83.39-.63-.13-.82-.41-.27-.67-.27-1.2.09-.96.27-1.22.45-.39.82-.39.63.13.82.41.28.68.28,1.2Zm-1.53,0c0,.39.04.66.1.82.04.15.18.25.34.25.15,0,.27-.08.33-.25s.11-.44.11-.82-.04-.66-.11-.83-.18-.25-.33-.25-.27.08-.33.25-.11.46-.11.84h0Z" style="fill: #fff; stroke-width: 0px;"/>
          <path d="m669.59,62.22h-.93v-2.95s.02-.46.02-.46c-.11.11-.21.2-.32.3l-.51.41-.45-.56,1.41-1.13h.77v4.38h0Z" style="fill: #fff; stroke-width: 0px;"/>
          <path d="m673.85,60.03c0,.77-.13,1.34-.38,1.7s-.64.55-1.16.55-.89-.19-1.15-.57-.39-.94-.39-1.68.13-1.34.37-1.72.63-.55,1.15-.55.89.19,1.15.58.39.95.4,1.69Zm-2.15,0c0,.53.05.92.14,1.16s.25.35.47.35.37-.12.47-.35.14-.62.14-1.16-.05-.93-.15-1.16-.25-.35-.46-.35-.37.12-.47.35-.14.62-.14,1.16h0Z" style="fill: #fff; stroke-width: 0px;"/>
        </g>
      </g>
    </g>
    <g id="Artwork_35-2" data-name="Artwork 35" style="opacity: .08;">
      <g>
        <path id="cloud-2" data-name="cloud" d="m826.34,63.8c-.03-3.22-2.36-6.09-5.67-6.7l-1.2-.22c-.08-4.61-3.37-8.58-7.96-9.42s-9.11,1.71-10.81,6.01c-3.47-.26-6.66,2.11-7.3,5.58-.68,3.72,1.81,7.3,5.56,7.99l10.06,1.85c.53.08,1.03-.29,1.11-.83.07-.51-.25-.99-.75-1.09l-10.06-1.85c-2.69-.49-4.47-3.06-3.99-5.7s3.07-4.41,5.76-3.91c.99.18,1.91.66,2.61,1.39.33.35.87.41,1.26.13h0c.44-.3.56-.9.25-1.35h0c-.03-.05-.06-.09-.1-.13-.7-.72-1.54-1.28-2.48-1.63,1.45-3.26,4.94-5.17,8.51-4.52,3.78.69,6.46,4.04,6.36,7.87-.33.1-.66.22-.97.37-.49.23-.7.81-.48,1.3.02.05.05.1.08.15h0c.27.39.79.53,1.23.32.92-.43,1.95-.56,2.94-.37,2.37.44,4.04,2.48,4.07,4.78,0,.47.34.87.8.96h0c.53.1,1.04-.24,1.14-.78h0c.02-.06.04-.13.04-.19Z" style="fill: #fff; stroke-width: 0px;"/>
        <g id="numbers-2" data-name="numbers">
          <path d="m813.17,68.03l-.83-.15.42-2.27.07-.37.09-.41c-.11.08-.22.15-.34.22l-.52.28-.31-.57,1.45-.77.68.12-.71,3.91Z" style="fill: #fff; stroke-width: 0px;"/>
          <path d="m817.34,66.77c-.13.68-.33,1.17-.62,1.46s-.66.38-1.13.3-.76-.31-.93-.7-.19-.9-.07-1.56.33-1.18.61-1.47.66-.39,1.12-.3.76.31.93.7c.18.39.2.91.08,1.57Zm-1.91-.35c-.09.48-.11.83-.06,1.06s.17.36.36.39.35-.05.48-.24.23-.53.32-1.01.11-.84.06-1.06-.17-.36-.36-.39-.35.05-.48.24-.23.53-.32,1.01Z" style="fill: #fff; stroke-width: 0px;"/>
          <path d="m812.08,73.98l-.83-.15.42-2.27.07-.37.09-.41c-.11.08-.22.15-.34.22l-.52.28-.31-.57,1.45-.77.68.12-.71,3.91Z" style="fill: #fff; stroke-width: 0px;"/>
          <path d="m815.21,74.55l-.83-.15.42-2.27.07-.37.09-.41c-.11.08-.22.15-.34.22l-.52.28-.31-.57,1.45-.77.68.12-.72,3.91h.01Z" style="fill: #fff; stroke-width: 0px;"/>
          <path d="m818.35,75.13l-.83-.15.42-2.27.07-.37.09-.41c-.11.08-.22.15-.34.22l-.52.28-.31-.57,1.45-.77.68.12-.71,3.91Z" style="fill: #fff; stroke-width: 0px;"/>
          <path d="m822.51,73.87c-.13.68-.33,1.17-.62,1.46s-.66.39-1.13.31-.76-.31-.93-.7-.19-.9-.07-1.57.33-1.18.61-1.47.66-.39,1.12-.3.76.31.93.7c.18.38.21.91.08,1.57Zm-1.91-.35c-.09.48-.11.83-.06,1.06s.16.35.36.39.35-.05.48-.24.23-.53.31-1.01.11-.84.06-1.06-.17-.36-.36-.39-.35.05-.48.24-.23.52-.31,1.01Z" style="fill: #fff; stroke-width: 0px;"/>
          <path d="m823.43,78.9c-.09.5-.24.85-.45,1.06s-.48.28-.82.22-.55-.23-.67-.51-.14-.66-.05-1.14.24-.86.45-1.07c.21-.21.48-.28.82-.22s.55.23.68.51.14.66.04,1.14Zm-1.39-.26c-.06.35-.08.61-.05.77.01.15.12.26.27.28s.25-.03.34-.18.17-.38.23-.73.08-.61.04-.77-.12-.26-.26-.29-.26.03-.34.18-.17.38-.23.74h0Z" style="fill: #fff; stroke-width: 0px;"/>
          <path d="m824.97,80.66l-.6-.11.3-1.65.06-.27.07-.29c-.12.08-.2.13-.24.16l-.37.2-.22-.42,1.05-.56.5.09-.52,2.85h0Z" style="fill: #fff; stroke-width: 0px;"/>
          <path d="m811.39,76.72c-.09.49-.24.83-.44,1.04s-.47.28-.81.22-.54-.22-.66-.5-.14-.64-.05-1.11.24-.84.44-1.04.47-.28.8-.22.54.22.66.5.14.65.05,1.12Zm-1.36-.25c-.06.34-.08.6-.05.75.01.14.12.26.26.28.14.03.25-.03.34-.17s.17-.38.23-.72.08-.6.04-.75-.12-.25-.25-.28-.25.03-.34.17-.17.38-.23.72h0Z" style="fill: #fff; stroke-width: 0px;"/>
          <path d="m812.89,78.44l-.59-.11.3-1.61.05-.26.07-.29c-.12.08-.19.13-.24.16l-.37.2-.22-.41,1.03-.55.48.09-.52,2.79Z" style="fill: #fff; stroke-width: 0px;"/>
          <path d="m815.86,77.54c-.09.49-.24.83-.44,1.04s-.47.28-.81.22-.54-.22-.66-.5-.14-.64-.05-1.11.24-.84.44-1.04.47-.28.8-.22.54.22.66.5.14.65.05,1.12Zm-1.36-.25c-.06.34-.08.6-.05.75.01.14.12.26.26.28.14.03.25-.03.34-.17s.17-.38.23-.72.08-.6.04-.75-.12-.26-.25-.28-.25.03-.34.17-.17.38-.23.72h0Z" style="fill: #fff; stroke-width: 0px;"/>
          <path d="m817.35,79.26l-.59-.11.3-1.61.05-.26.07-.29c-.12.08-.2.13-.24.16l-.37.2-.22-.41,1.03-.55.48.09-.51,2.79Z" style="fill: #fff; stroke-width: 0px;"/>
          <path d="m810.16,80.17c-.06.35-.17.6-.31.75s-.33.2-.58.15c-.21-.03-.39-.16-.47-.36-.09-.2-.1-.47-.03-.8.07-.36.17-.6.31-.75s.33-.2.57-.15c.21.03.39.16.48.36.08.2.09.47.03.81Zm-.99-.18c-.05.24-.06.42-.03.54,0,.13.12.21.24.2h0c.08,0,.15-.05.18-.12.06-.1.11-.27.16-.52.04-.18.05-.37.03-.55-.01-.12-.12-.21-.23-.21h-.01c-.08,0-.15.05-.18.12-.08.17-.13.35-.16.53Z" style="fill: #fff; stroke-width: 0px;"/>
          <path d="m811.23,81.4l-.43-.08.21-1.16.04-.19.04-.21c-.08.06-.14.1-.17.11l-.27.14-.16-.29.74-.4.35.06-.36,2Z" style="fill: #fff; stroke-width: 0px;"/>
          <path d="m815.27,83.7c-.06.35-.17.6-.32.75s-.34.2-.58.15c-.21-.03-.39-.16-.47-.36-.09-.2-.1-.47-.03-.8s.17-.6.31-.75.33-.2.57-.15c.21.03.39.16.48.36.09.21.1.47.04.81Zm-.98-.18c-.05.24-.06.42-.03.54.01.12.12.21.23.21h.01c.08,0,.15-.05.18-.12.06-.1.11-.27.16-.52.04-.18.05-.37.03-.55,0-.1-.08-.18-.18-.2s-.2.03-.24.12c-.06.09-.11.27-.15.52Z" style="fill: #fff; stroke-width: 0px;"/>
          <path d="m816.35,84.93l-.43-.08.21-1.16.04-.19.04-.21c-.08.06-.14.1-.17.11l-.27.15-.16-.3.74-.4.35.06-.37,2Z" style="fill: #fff; stroke-width: 0px;"/>
          <path d="m820.4,81.65c-.09.49-.24.83-.44,1.04s-.47.28-.81.22-.54-.22-.66-.5-.14-.64-.05-1.11.24-.84.44-1.04.47-.28.8-.22.54.22.66.5.14.65.05,1.12Zm-1.36-.25c-.06.35-.08.6-.05.75.01.14.12.26.26.28.14.03.25-.03.34-.17s.17-.38.23-.72.08-.6.04-.76-.12-.26-.26-.28-.25.03-.34.17-.16.39-.23.73h0Z" style="fill: #fff; stroke-width: 0px;"/>
          <path d="m821.91,83.36l-.59-.11.3-1.61.05-.26.07-.29c-.12.08-.19.13-.24.16l-.37.2-.22-.41,1.03-.55.48.09-.51,2.79h0Z" style="fill: #fff; stroke-width: 0px;"/>
          <path d="m824.87,82.47c-.09.49-.24.83-.44,1.04s-.47.28-.81.22-.54-.22-.66-.5-.14-.64-.05-1.11.24-.84.44-1.04.47-.28.8-.22.54.22.66.5.14.65.05,1.12Zm-1.36-.25c-.06.35-.08.6-.05.75.01.14.12.26.26.28.14.03.25-.03.34-.17s.17-.38.23-.72.08-.6.04-.76-.12-.26-.25-.28-.25.03-.34.17-.17.39-.23.73h0Z" style="fill: #fff; stroke-width: 0px;"/>
          <path d="m822.77,69.8l-.83-.15.42-2.27.07-.37.09-.41c-.11.08-.22.15-.34.22l-.52.28-.31-.57,1.45-.77.68.13-.72,3.91h0Z" style="fill: #fff; stroke-width: 0px;"/>
          <path d="m826.94,68.54c-.13.68-.33,1.17-.62,1.46s-.66.38-1.13.3-.76-.31-.93-.7-.19-.9-.07-1.56.33-1.18.61-1.47.66-.39,1.12-.3.76.31.93.7.2.91.08,1.57Zm-1.92-.35c-.09.48-.11.83-.06,1.06s.17.36.36.39.35-.05.48-.24.23-.53.32-1.01.11-.84.06-1.06-.17-.36-.36-.39-.35.05-.48.24-.23.53-.32,1.01h0Z" style="fill: #fff; stroke-width: 0px;"/>
        </g>
      </g>
    </g>
  </g>
  <g id="Layer_5" data-name="Layer 5">
    <g id="Linux" style="opacity: .1;">
      <polygon points="1106.73 -68.37 1001.47 -68.37 973.79 -18.25 985.19 169.06 911.51 357.99 825.42 448.92 825.42 526.53 1009.75 516.68 1483.95 471.34 1395.15 312.64 1284.27 217.93 1295.03 -18.25 1246.69 -83.45 1106.73 -68.37" style="fill: #fff; stroke-width: 0px;"/>
      <g id="Linux-2" data-name="Linux">
        <g id="layer7">
          <path id="path5266" d="m1348.99,1064.51c-15.32-2.32-30.47-8.37-42.92-17.14-5.66-3.99-14.97-12.77-19.56-18.47-7.58-9.4-14.92-22.54-17.92-32.11l-1.73-5.53-6.38.32c-6.78.34-25.68-.33-35.33-1.26-8.35-.8-20.35-2.33-39.08-4.99-27.37-3.88-30.74-4.19-46.2-4.18-23.87.02-41.13,2.14-85.44,10.49-20.62,3.89-28.49,5.03-37.22,5.41l-7.29.32-1.88,3.75c-11.73,23.41-35.13,40.66-63.5,46.81-13.78,2.99-32.79,3.94-47.54,2.38-29.09-3.07-55.63-11.17-86.31-26.34-19.63-9.71-31.39-14.01-49.12-17.99-15.99-3.58-28.3-5.45-59.66-9.06-38.78-4.46-53.78-7.56-67.76-14.02-9.71-4.49-18.96-12.39-23.46-20.05-5.13-8.73-6.98-16.58-6.98-29.52,0-13.73,2.56-26.78,8.96-45.73,3.72-11.03,4.17-14.06,3.79-25.55-.24-7.1-.92-13.45-2.97-27.46-4.05-27.74-4.52-37.25-2.4-48.45,3.53-18.59,15.54-34.63,33.34-44.49,5.96-3.3,11.26-5.55,21.83-9.28,24.2-8.53,31.38-12.16,38.64-19.57,4.44-4.53,6.17-6.69,16.8-21.02,10.65-14.36,13.78-18.24,19.69-24.37l4.66-4.83-.86-7.05c-1.18-9.71-1.61-31.91-.82-42.72,2.88-39.52,14.12-81.09,34.14-126.26,26.19-59.08,67.24-123.39,119.23-186.8,12.76-15.56,23.09-31.46,33.09-50.95,18.06-35.18,26.73-68.14,30.62-116.42.75-9.31.44-19.2-1.63-52.53-2.29-36.78-2.64-45.73-2.65-68.25-.01-20.61.42-31.2,1.89-45.79,8.16-81.07,42.14-132.54,103.46-156.69,27.7-10.91,62.72-16.4,99-15.52,32.74.8,57.78,6.37,82.1,18.29,14.7,7.2,26.6,15.72,38.32,27.43,35.02,34.98,54.71,89.48,60.39,167.14,1.55,21.23,1.87,35.14,1.87,81.31,0,55.44.2,58.44,5.29,79.22,7.05,28.78,20.77,56.04,45.31,89.99,9.18,12.71,25.83,34.03,38.11,48.84,56.75,68.37,94.49,131.68,114.77,192.54,20.44,61.32,22.69,120.33,6.6,173.09-1.2,3.92-2.27,7.48-2.39,7.92-.16.56.84,1.22,3.44,2.27,5.36,2.16,14.32,8.3,19.29,13.23,9.92,9.84,16.03,22.48,21.36,44.19,1.17,4.78,3.44,14.03,5.04,20.57,4.57,18.69,8.48,28.88,13.6,35.45,1.26,1.62,4.64,5.65,7.51,8.96,38.72,44.65,42.24,77.29,11.04,102.39-9.8,7.89-18.55,12.83-52.68,29.79-14.23,7.07-28.72,14.45-32.21,16.41-25.1,14.11-40.29,26.16-56.53,44.85-31.67,36.47-67.21,58.67-105.78,66.08-6.21,1.19-8.83,1.4-19.58,1.54-8.83.12-13.84-.05-17.38-.59h0Zm23.98-15.9c21.26-2,43-10.28,64.41-24.55,15.88-10.57,28.03-21.72,45.81-42.01,14.4-16.43,31.08-29.54,55.04-43.23,7.85-4.48,14.68-7.94,52.01-26.31,25.26-12.43,36.65-20.38,42.85-29.9,7.28-11.17,5.17-25.46-6.54-44.36-5.07-8.18-11.61-16.67-23.6-30.59-7.86-9.13-12.87-20.77-17.74-41.25-7.8-32.74-9.34-37.98-13.9-47.15-4.71-9.48-12.47-17.15-22.01-21.76-9.06-4.38-11.87-4.88-29.22-5.14l-14.97-.23-5.36,5.31c-17.23,17.07-41.91,30.79-63.96,35.55-7.76,1.68-20.51,1.68-26.3,0-9.3-2.69-15.24-6.1-22.17-12.75-12.55-12.04-21.2-31.22-23.97-53.09-.48-3.78-.93-6.96-1.01-7.06-.37-.5-7.5,4.04-11.41,7.27-9.3,7.69-16.39,18.98-21.46,34.18-6.83,20.49-10.45,46.33-12.99,92.58-1.83,33.47-2.9,38.67-19.54,95.3-11.14,37.91-15.13,58.56-15.19,78.67-.05,15.9,1.99,24.85,8.23,36.09,9.57,17.23,22.51,30.04,37.4,37.02,13.83,6.48,29.04,8.95,45.58,7.39h0Zm-444.94-15c16.77-1.82,32.2-7.06,43.93-14.91,5.09-3.41,13.34-11.66,16.75-16.74,5.32-7.94,8.98-16.97,11.24-27.72,1.44-6.83,1.98-19.31,1.09-24.87-2.36-14.62-11.96-34.51-27.11-56.18-6.4-9.15-14.26-19.38-31.25-40.65-24.99-31.31-33.17-42.69-40.41-56.23-1.55-2.9-13.62-25-26.81-49.1-26.4-48.22-27.02-49.21-38.13-60.65-9.16-9.43-16.89-15.3-25.11-19.06-11.35-5.19-24.63-6.8-34.69-4.2-12.03,3.11-22.51,12.09-37.26,31.91-15.91,21.38-19.09,25.32-25.03,30.95-8.95,8.48-17.33,12.89-38.44,20.25-23.15,8.07-29.94,11.7-37.64,20.13-5.69,6.24-9.58,13.63-11.11,21.12-2.35,11.52-1.77,19.82,3.95,56.7.67,4.34,1.17,10.85,1.35,17.69.36,13.59-.17,16.92-5.08,31.94-6,18.34-8.28,30.62-7.78,41.97.46,10.55,2.7,16.87,8.04,22.63,10.36,11.19,26.79,16.14,68.62,20.67,45.4,4.92,63.32,8.01,84.74,14.61,11.67,3.6,17.38,5.96,34.32,14.16,8.57,4.15,18.97,8.89,23.12,10.53,19.8,7.81,39.16,12.81,57.27,14.78,7.98.87,24.56,1.01,31.42.27h0Zm206.3-98.2c48-3.16,95.26-19.99,140.27-49.97,3.69-2.46,6.92-4.74,7.18-5.08.62-.81,9.04-30.48,11.7-41.27,4.35-17.61,4.88-21.81,6.64-52.27,3.59-62.4,10.54-93.47,26.18-116.97,4.13-6.2,13.96-16.21,19.68-20.03,3.9-2.6,15.26-8.45,16.44-8.46.3,0,.96-2.77,1.49-6.16,1.64-10.66,4.6-18.24,9.6-24.6,11.91-15.15,35.22-17.68,66.79-7.25,17.26,5.7,40.79,17.36,54,26.75,5.59,3.97,14.93,13.31,17.21,17.2,4.33,7.38,5.73,15.37,4.09,23.28-.47,2.28-.86,4.25-.86,4.37s2.32.16,5.15.08l5.15-.15.87-3.43c5.5-21.72-4.88-40.58-32.54-59.13-10.14-6.8-30.61-17.96-40.26-21.95-1.96-.81-3.77-1.64-4.01-1.85s.05-2.64.65-5.41c13.48-62.23-10.98-139.33-64.69-203.9-6.42-7.72-23.58-25.42-25.12-25.9-.55-.18-1.61.08-2.35.57-2.81,1.84-.64,5.63,8.78,15.31,12.06,12.38,18.59,20.54,28.1,35.11,33.62,51.49,46.63,107.75,35.99,155.67-1.28,5.76-5.02,18.14-5.88,19.46-.32.48-2,.31-7-.71-3.7-.75-9.58-1.49-13.43-1.69l-6.85-.35-.71-3.7c-9.36-48.71-27.53-98.75-54.7-150.68-19.23-36.75-31.09-62.71-50.21-109.88-17.39-42.91-36.31-98.6-44.62-131.34-.31-1.23-.74-2.24-.95-2.23-.21,0-1.02.92-1.81,2.04-2.41,3.41-8.75,9.91-12.96,13.3-11.26,9.05-22.92,15.33-38.67,20.79-7.09,2.46-13.03,5.47-22.08,11.18-20.27,12.8-30.17,18.11-40.02,21.5-12.93,4.45-27.03,6.29-39.71,5.18-12.23-1.07-20.57-3.38-30.19-8.35-7.58-3.92-13.15-8.03-24.44-18.02-12.31-10.9-15.37-13.31-22.44-17.69-3.18-1.97-7.64-4.88-9.92-6.46-4.63-3.22-4.95-3.16-4.97,1.07-.01,3.5-1.87,18.99-3.22,26.93-3.9,22.89-9.23,43.44-18.41,71.01-12.15,36.5-26.09,70.16-53.88,130.15-21.63,46.67-25.88,56.54-32.29,74.93-13.4,38.41-21.93,80.81-23.48,116.6-.2,4.57-.51,8.32-.7,8.32s-2.04-2.55-4.1-5.68c-26.56-40.11-29.9-90.59-9.91-149.84,5.04-14.95,9.62-25.63,18.68-43.54,4.48-8.86,11.14-22.04,14.82-29.3,7.41-14.64,11.13-23.46,11.13-26.34,0-3.84-1.46-2.36-7.51,7.6-27.17,44.72-44.06,79.3-55.07,112.72-15.18,46.06-16.76,85.8-4.71,118.34,6.39,17.26,15.43,31.18,29.28,45.11,8.95,8.99,15.7,14.46,26.55,21.52,4.32,2.81,13.3,8.71,19.98,13.12,55.58,36.72,91.47,77.2,98.2,110.78.93,4.63.8,13.6-.25,17.69-2.35,9.17-7.97,15.96-16.77,20.26-6.38,3.12-11.94,4.54-19.34,4.93-3.27.17-5.94.46-5.94.63,0,.17,2.17,3.05,4.81,6.39,8.46,10.68,20.2,26.55,25.58,34.55l5.22,7.77,6.08,3.83c12.43,7.82,24.95,14.24,36.97,18.94,22.59,8.83,41.81,13.02,68.11,14.82,5.82.4,17.87.3,25.62-.21h0Zm-25.09-692.4c16.16-2.18,27.56-6.88,47.78-19.71,17.05-10.81,23.86-14.47,31.68-17.01,35.62-11.58,60.54-37.57,57.77-60.24-1.12-9.2-7.31-17.73-17.66-24.32-5.28-3.37-17.83-8.62-35.1-14.68-17.86-6.28-22.64-8.41-33.41-14.91-23.16-13.98-40.56-20.1-59.25-20.83-12.09-.48-22.15,1.32-33.12,5.91-10.75,4.5-20.57,11.33-33.21,23.12-5.84,5.44-12.47,10.8-22.7,18.35-20.38,15.04-22.97,17.13-25.56,20.64-10.52,14.29-3.94,34.11,16.86,50.8,4.84,3.88,7.98,6.02,17.21,11.74,6.09,3.77,12.79,9.07,21.91,17.35,15.45,14.03,23.67,19.01,36.68,22.24,9.25,2.3,20.35,2.87,30.12,1.55h0Zm-27.98-36.73c-12.01-1.47-22.55-4.61-33.53-10-11.65-5.72-21.76-12.66-33.36-22.89-11.71-10.34-16.3-15.12-17.26-18.01-1.69-5.09-.62-9.2,2.2-8.49,2.45.61,4.07,2.23,6.18,6.17,2.28,4.24,6.37,8.53,16.34,17.16,18.18,15.72,33.31,23.94,52.02,28.27,4.3.99,6.6,1.16,16.1,1.17,10.08.01,11.69-.11,17.69-1.4,12.39-2.66,26.8-7.98,41.45-15.3,16.61-8.3,23.59-12.66,41.18-25.71,11.2-8.31,12.09-9.1,16.15-14.4,3.35-4.37,5.42-5.58,8.41-4.93,6.64,1.46-1.46,11.63-20.86,26.21-11.92,8.96-19.32,13.41-37.17,22.35-18.45,9.24-26.85,12.71-39.13,16.17-11.74,3.31-26.81,4.81-36.43,3.63h0Zm-19.14-103.29c-3.48-1.44-3.25-4.79.51-7.25,1.1-.72,3.9-1.95,6.22-2.72,3.42-1.14,4.86-1.36,7.59-1.14,3.47.28,5.98,1.54,6.3,3.17.28,1.4-1.76,2.89-4.84,3.52-1.82.38-4.26,1.49-6.49,2.95-3.95,2.59-5.86,2.89-9.3,1.47h0Zm61.69-1.3c-1.75-1.25-4.31-2.5-6.03-2.94-3.95-1.02-5.37-1.98-5.37-3.63,0-1.06.47-1.54,2.24-2.35,4.07-1.85,10.3-.99,16.36,2.23,5.16,2.75,5.93,6.35,1.74,8.1-3.27,1.37-5.58,1-8.95-1.41Zm-108.56,2.55c3.41-2.58,6.33-4.91,6.49-5.16.16-.25-.69-1.35-1.89-2.43-8.22-7.42-13.29-23.35-12.48-39.19,1.63-31.86,23.96-40.72,36.38-14.42,3.49,7.39,4.72,13.19,5.03,23.74.15,5.01.35,9.11.46,9.11s1.32-.7,2.71-1.55c4.01-2.47,11.06-5.7,16.77-7.69l5.28-1.84-.03-10.44c-.04-11.59-.86-18.22-3.4-27.25-6.26-22.25-19.26-38.78-34.53-43.9-4.72-1.58-12.18-1.95-16.94-.82-7.27,1.71-15.52,7.66-21.39,15.43-6.06,8.01-11.2,20.73-13.52,33.45-1.46,8.01-1.33,26.74.24,35.35,3.08,16.84,9.75,31.78,18.56,41.61l2.73,3.04,1.67-1.16c.92-.64,4.46-3.28,7.87-5.86h0Zm214.41,1.6c12.02-17.07,17.81-38.81,16.32-61.2-.99-14.77-3.59-24.58-10.02-37.75-7.35-15.06-17.58-25.79-30.88-32.37-7.98-3.95-12.57-4.99-22.18-4.99-11.54,0-19.03,2.18-28.3,8.23-6.16,4.02-15.53,13.29-19.42,19.18-6.4,9.72-11.74,23.16-13.87,34.88-.92,5.08-1.15,8.5-1.2,17.65-.03,6.24.13,12.21.35,13.25.38,1.8.56,1.93,3.43,2.56,5.35,1.18,17.64,5.16,23.53,7.63l5.72,2.4-.4-2.23c-.67-3.78-.39-15.71.49-20.71,1.08-6.14,2.5-10.48,5.37-16.37,4.02-8.24,9.87-14.15,16.49-16.65,4.34-1.64,10.87-1.32,15.06.72,13.21,6.46,21.38,27.56,18.9,48.82-1.38,11.88-3.9,18.14-9.76,24.27l-4.02,4.21,1.46.55c.8.3,5.1,1.89,9.56,3.53,4.46,1.64,10.75,4.13,13.99,5.54,3.24,1.4,6.06,2.57,6.27,2.6.21.03,1.6-1.67,3.08-3.77h0Z" style="stroke-width: 0px;"/>
          <path id="path5272" d="m1088.74,931.25c-52.95-9.38-85.22-27.49-109.33-61.37-12.85-18.06-13.37-19.89-5.58-19.89,4.72,0,13.91-4.59,20.43-10.2,33.26-28.61-4.92-90.75-91.99-149.7-60.84-41.19-80.63-76.12-76.27-134.67,2.12-28.51,18.3-89.11,22.63-84.78.88.88-1.43,15.89-5.14,33.37-8.46,39.92-5.4,74.32,9.46,106.21,13.25,28.44,15.37,25.72,22.46-28.73,5.58-42.83,19.84-84.04,59.47-171.82,35.16-77.89,50.65-121.41,60.61-170.31l7.26-35.65,27.51,21.08c32.71,25.07,53.78,32.92,79.04,29.46,19.41-2.66,113.54-48.87,127.55-62.61,8.01-7.86,8.49-7.01,26.14,46.23,23.86,71.96,30.52,88.12,72.7,176.4,20.4,42.7,40.73,92.54,47.08,115.42,6.15,22.15,11.93,42.68,12.84,45.62.92,2.95,8.4,5.34,16.68,5.34,12.73,0,15.51-1.79,18.3-11.76,6.62-23.69,3.03-83.19-6.63-109.77-11.75-32.33-8.33-36.65,4.98-6.3,15.34,34.98,21.66,66.48,21,104.78l-.59,34.66,20.75,9.72c37.48,17.55,61.88,48.48,53.15,67.37-2.74,5.93-3.78,4.66-4.99-6.14-2.82-25.13-46.45-55.42-94.75-65.78-18.57-3.98-23.99-3.53-37.72,3.18-10.56,5.16-17.49,12.24-20.31,20.74-2.35,7.1-14.2,22.49-26.33,34.2-26.84,25.9-33.46,45.67-40.05,119.61-5.08,56.95-15.09,99.77-25.26,108-13.42,10.87-75.65,38.73-96.45,43.17-32.73,7-66.28,8.85-88.65,4.89h0Z" style="fill: #ffb046; stroke: #000; stroke-miterlimit: 3.2; stroke-width: 21.8px;"/>
          <path id="path5296" d="m1088.16,242.72c-13.56-1.78-32.34-12.11-49.5-27.21-4.78-4.21-13.5-10.84-19.38-14.74-20.36-13.5-27.74-20.66-33.76-32.77-3.02-6.07-3.16-6.69-3.16-13.22,0-7.91,1.39-11.81,6.04-16.95,1.54-1.71,10.68-9.02,20.3-16.24,9.62-7.22,21.4-16.63,26.18-20.9,15.52-13.88,24.71-20,36.33-24.25,9.37-3.42,15.56-4.47,26.34-4.47,20.5,0,34.43,4.51,61.64,19.94,12.71,7.21,17.36,9.23,43.83,19.05,26.81,9.94,35.27,15.71,40.96,27.95,2.77,5.95,2.86,14.95.23,21.86-2.12,5.55-6.88,13.03-11.64,18.29-8.76,9.69-26.18,20.46-42.74,26.43-8.2,2.96-17.63,7.81-28.92,14.9-7.69,4.82-26.41,13.48-41.02,18.96-10.53,3.95-19.83,4.95-31.74,3.38h0Zm10.64-36.31c17.2-1.72,30.83-6.26,55.5-18.48,20.04-9.93,28.14-14.72,39.94-23.62,20.51-15.48,28.57-26.59,19.26-26.59-2.08,0-3.23.58-5.07,2.54-1.31,1.4-3.98,4.26-5.93,6.35-4.28,4.59-24.96,19.77-36.05,26.47-16.67,10.07-38.33,19.51-54.09,23.57-8.17,2.11-9.77,2.27-22.17,2.27-15.01,0-21.02-1.14-33.29-6.33-17.68-7.47-42.84-27.11-51.17-39.93-3.3-5.09-5.6-6.62-8.33-5.57-.99.38-1.16,1.31-.91,4.87.4,5.48,2.41,8.12,14.31,18.72,20.27,18.07,37.85,28.4,56.53,33.21,12.67,3.26,18.97,3.77,31.48,2.51h0Zm-27.5-104.49c2.64-1.4,5.86-2.78,7.16-3.07,2.84-.62,4.99-2.79,4.37-4.41-1.9-4.94-18.09-2.59-22.41,3.26-1.79,2.43-1.13,4.33,1.97,5.68,3.28,1.43,3.53,1.38,8.91-1.47h0Zm61.47,1.45c2.14-.89,2.62-1.5,2.62-3.28,0-2.51-1.27-3.82-6.02-6.21-3.9-1.96-11.5-2.79-14.59-1.58-4.39,1.71-3.05,5.14,2.68,6.85,1.76.53,4.1,1.6,5.2,2.38,4.25,3.02,6.38,3.41,10.12,1.85h0Z" style="fill: #ff942a; stroke: #000; stroke-miterlimit: 3.2; stroke-width: 3.85px;"/>
          <path id="path5298" d="m1058.02,909.79c-28.89-10.16-57.16-28.83-64.53-42.61-3.46-6.47-1.82-10.05,8.61-18.83,35.45-29.83,10.06-89.91-61.26-144.98-18.27-14.11-42.83-33.04-54.57-42.07l-21.36-16.43,8.54-9.22c5.71-6.16,10.23-20.53,13.64-43.33,7.16-47.9,17.41-78.99,54.26-164.67,38.8-90.22,53.19-128.98,63.06-169.81l7.46-30.88,13.46,10.09c26.89,20.15,51.05,29.75,74.37,29.54,18.8-.17,31.77-4.79,80.07-28.58,31.7-15.61,58.64-28.38,59.86-28.38s2.22,1.95,2.22,4.34c0,11.56,42.49,119.3,75.35,191.03,20.24,44.19,43.96,102.33,52.7,129.19l15.9,48.83-17.47,18.16c-41.76,43.41-63.43,74.09-71.13,100.71-2.28,7.87-7.05,39.31-10.6,69.87-3.55,30.57-9.37,65.75-12.94,78.18-7.52,26.18-15.12,32.08-68.14,52.86-28.2,11.05-41.7,13.7-76.95,15.08-36.38,1.43-46.89.22-70.53-8.1h0Z" style="fill: url(#linear-gradient-2); stroke: #000; stroke-miterlimit: 3.2; stroke-width: 21.8px;"/>
        </g>
      </g>
    </g>
    <g id="Linux-3" data-name="Linux" style="opacity: .1;">
      <polygon points="731.23 -64.81 836.48 -64.81 864.16 -14.69 852.76 172.62 926.44 361.55 1012.53 452.49 1012.53 530.09 828.2 520.24 354.01 474.9 442.8 316.21 553.68 221.49 542.93 -14.69 591.27 -79.89 731.23 -64.81" style="fill: #fff; stroke-width: 0px;"/>
      <g id="Linux-4" data-name="Linux">
        <g id="layer7-2" data-name="layer7">
          <path id="path5266-2" data-name="path5266" d="m488.97,1068.08c-3.54.54-8.56.71-17.38.59-10.75-.14-13.37-.35-19.58-1.54-38.57-7.41-74.11-29.62-105.78-66.08-16.23-18.69-31.42-30.74-56.53-44.85-3.48-1.96-17.98-9.34-32.21-16.41-34.14-16.96-42.88-21.9-52.68-29.79-31.2-25.1-27.68-57.74,11.04-102.39,2.87-3.3,6.24-7.34,7.51-8.96,5.12-6.58,9.03-16.77,13.6-35.45,1.6-6.53,3.86-15.79,5.04-20.57,5.33-21.72,11.43-34.35,21.36-44.19,4.98-4.93,13.93-11.08,19.29-13.23,2.6-1.05,3.6-1.7,3.44-2.27-.12-.44-1.2-4-2.39-7.92-16.09-52.76-13.84-111.77,6.6-173.09,20.28-60.86,58.02-124.17,114.77-192.54,12.29-14.8,28.93-36.13,38.11-48.84,24.54-33.96,38.26-61.21,45.31-89.99,5.09-20.78,5.29-23.79,5.29-79.22,0-46.17.32-60.08,1.87-81.31,5.68-77.66,25.37-132.16,60.39-167.14,11.73-11.71,23.63-20.23,38.32-27.43,24.32-11.92,49.36-17.49,82.1-18.29,36.28-.88,71.29,4.6,99,15.52,61.32,24.15,95.3,75.62,103.46,156.69,1.47,14.6,1.91,25.18,1.89,45.79-.01,22.52-.36,31.47-2.65,68.25-2.08,33.33-2.38,43.23-1.63,52.53,3.89,48.28,12.56,81.24,30.62,116.42,10,19.49,20.34,35.39,33.09,50.95,52,63.41,93.05,127.72,119.23,186.8,20.02,45.17,31.26,86.74,34.14,126.26.79,10.81.36,33.01-.82,42.72l-.86,7.05,4.66,4.83c5.91,6.13,9.04,10,19.69,24.37,10.63,14.33,12.36,16.5,16.8,21.02,7.26,7.41,14.44,11.05,38.64,19.57,10.58,3.73,15.87,5.98,21.83,9.28,17.79,9.86,29.81,25.9,33.34,44.49,2.13,11.2,1.66,20.7-2.4,48.45-2.05,14.01-2.73,20.35-2.97,27.46-.38,11.48.07,14.52,3.79,25.55,6.4,18.95,8.96,32,8.96,45.73,0,12.94-1.85,20.79-6.98,29.52-4.5,7.66-13.75,15.57-23.46,20.05-13.98,6.46-28.98,9.56-67.76,14.02-31.37,3.61-43.67,5.48-59.66,9.06-17.73,3.97-29.49,8.28-49.12,17.99-30.68,15.17-57.22,23.27-86.31,26.34-14.76,1.56-33.76.6-47.54-2.38-28.37-6.15-51.77-23.4-63.5-46.81l-1.88-3.75-7.29-.32c-8.72-.38-16.59-1.53-37.22-5.41-44.31-8.35-61.57-10.47-85.44-10.49-15.46-.01-18.82.29-46.2,4.18-18.73,2.66-30.73,4.19-39.08,4.99-9.65.93-28.55,1.6-35.33,1.26l-6.38-.32-1.73,5.53c-3,9.57-10.34,22.72-17.92,32.11-4.6,5.7-13.9,14.48-19.56,18.47-12.45,8.77-27.6,14.82-42.92,17.14h0Zm-23.98-15.9c16.54,1.55,31.75-.91,45.58-7.39,14.9-6.98,27.84-19.79,37.4-37.02,6.24-11.24,8.28-20.19,8.23-36.09-.07-20.11-4.05-40.76-15.19-78.67-16.64-56.63-17.71-61.83-19.54-95.3-2.53-46.26-6.16-72.1-12.99-92.58-5.07-15.2-12.15-26.49-21.46-34.18-3.91-3.23-11.03-7.77-11.41-7.27-.08.11-.54,3.28-1.01,7.06-2.77,21.87-11.42,41.05-23.97,53.09-6.93,6.65-12.87,10.07-22.17,12.75-5.8,1.67-18.54,1.67-26.3,0-22.06-4.77-46.74-18.49-63.96-35.55l-5.36-5.31-14.97.23c-17.35.27-20.16.76-29.22,5.14-9.53,4.61-17.29,12.28-22.01,21.76-4.56,9.17-6.1,14.4-13.9,47.15-4.88,20.48-9.88,32.11-17.74,41.25-11.98,13.92-18.53,22.4-23.6,30.59-11.71,18.9-13.82,33.19-6.54,44.36,6.2,9.52,17.59,17.47,42.85,29.9,37.32,18.37,44.16,21.82,52.01,26.31,23.96,13.69,40.64,26.79,55.04,43.23,17.78,20.29,29.93,31.44,45.81,42.01,21.41,14.26,43.16,22.55,64.41,24.55h0Zm444.94-15c6.87.75,23.44.61,31.42-.27,18.11-1.98,37.47-6.97,57.27-14.78,4.15-1.64,14.56-6.37,23.12-10.53,16.94-8.21,22.64-10.56,34.32-14.16,21.42-6.6,39.34-9.7,84.74-14.61,41.83-4.53,58.26-9.48,68.62-20.67,5.33-5.76,7.58-12.08,8.04-22.63.49-11.35-1.78-23.64-7.78-41.97-4.91-15.02-5.44-18.35-5.08-31.94.18-6.84.68-13.35,1.35-17.69,5.73-36.87,6.3-45.18,3.95-56.7-1.53-7.49-5.41-14.88-11.11-21.12-7.7-8.43-14.49-12.06-37.64-20.13-21.12-7.36-29.5-11.77-38.44-20.25-5.94-5.63-9.13-9.57-25.03-30.95-14.74-19.82-25.23-28.8-37.26-31.91-10.06-2.6-23.34-.99-34.69,4.2-8.22,3.76-15.95,9.63-25.11,19.06-11.11,11.44-11.73,12.43-38.13,60.65-13.19,24.1-25.26,46.2-26.81,49.1-7.23,13.54-15.41,24.92-40.41,56.23-16.98,21.27-24.85,31.51-31.25,40.65-15.15,21.67-24.75,41.56-27.11,56.18-.9,5.56-.35,18.04,1.09,24.87,2.26,10.75,5.92,19.78,11.24,27.72,3.4,5.08,11.66,13.34,16.75,16.74,11.72,7.85,27.15,13.08,43.93,14.91h0Zm-206.3-98.2c7.75.51,19.8.61,25.62.21,26.3-1.81,45.52-5.99,68.11-14.82,12.02-4.7,24.54-11.11,36.97-18.94l6.08-3.83,5.22-7.77c5.38-8,17.12-23.86,25.58-34.55,2.64-3.34,4.81-6.21,4.81-6.39,0-.17-2.67-.46-5.94-.63-7.4-.39-12.96-1.81-19.34-4.93-8.79-4.3-14.41-11.09-16.77-20.26-1.05-4.09-1.17-13.06-.25-17.69,6.73-33.58,42.61-74.06,98.2-110.78,6.67-4.41,15.66-10.31,19.98-13.12,10.85-7.06,17.6-12.53,26.55-21.52,13.86-13.93,22.9-27.85,29.28-45.11,12.05-32.55,10.46-72.29-4.71-118.34-11.01-33.42-27.91-68-55.07-112.72-6.05-9.96-7.51-11.44-7.51-7.6,0,2.88,3.72,11.7,11.13,26.34,3.67,7.26,10.34,20.45,14.82,29.3,9.05,17.91,13.64,28.59,18.68,43.54,19.98,59.25,16.64,109.73-9.91,149.84-2.07,3.12-3.91,5.68-4.1,5.68s-.51-3.74-.7-8.32c-1.54-35.79-10.08-78.18-23.48-116.6-6.41-18.39-10.67-28.26-32.29-74.93-27.8-59.99-41.74-93.65-53.88-130.15-9.18-27.58-14.5-48.12-18.41-71.01-1.35-7.94-3.2-23.43-3.22-26.93-.02-4.22-.34-4.29-4.97-1.07-2.27,1.58-6.74,4.49-9.92,6.46-7.06,4.38-10.13,6.79-22.44,17.69-11.29,10-16.86,14.11-24.44,18.02-9.62,4.97-17.95,7.27-30.19,8.35-12.68,1.11-26.78-.73-39.71-5.18-9.86-3.39-19.75-8.71-40.02-21.5-9.04-5.71-14.99-8.72-22.08-11.18-15.75-5.47-27.41-11.74-38.67-20.79-4.21-3.39-10.54-9.89-12.96-13.3-.79-1.12-1.6-2.03-1.81-2.04-.21,0-.63,1-.95,2.23-8.31,32.74-27.23,88.43-44.62,131.34-19.12,47.17-30.98,73.14-50.21,109.88-27.17,51.93-45.34,101.96-54.7,150.68l-.71,3.7-6.85.35c-3.85.2-9.73.94-13.43,1.69-5,1.02-6.68,1.19-7,.71-.86-1.31-4.61-13.7-5.88-19.46-10.64-47.92,2.37-104.19,35.99-155.67,9.51-14.57,16.04-22.73,28.1-35.11,9.42-9.68,11.6-13.46,8.78-15.31-.75-.49-1.8-.74-2.35-.57-1.54.49-18.7,18.19-25.12,25.9-53.72,64.58-78.18,141.67-64.69,203.9.6,2.77.89,5.21.65,5.41s-2.05,1.04-4.01,1.85c-9.65,3.99-30.12,15.15-40.26,21.95-27.67,18.55-38.04,37.41-32.54,59.13l.87,3.43,5.15.15c2.83.08,5.15.05,5.15-.08s-.39-2.09-.86-4.37c-1.64-7.91-.23-15.9,4.09-23.28,2.28-3.89,11.63-13.23,17.21-17.2,13.21-9.39,36.74-21.05,54-26.75,31.57-10.43,54.88-7.9,66.79,7.25,4.99,6.35,7.95,13.94,9.6,24.6.52,3.38,1.19,6.15,1.49,6.16,1.18.01,12.54,5.85,16.44,8.46,5.72,3.82,15.55,13.82,19.68,20.03,15.63,23.5,22.59,54.57,26.18,116.97,1.75,30.46,2.29,34.66,6.64,52.27,2.67,10.79,11.08,40.46,11.7,41.27.26.34,3.49,2.63,7.18,5.08,45.01,29.98,92.27,46.82,140.27,49.97h0Zm25.09-692.4c9.77,1.32,20.86.75,30.12-1.55,13-3.23,21.23-8.22,36.68-22.24,9.12-8.28,15.82-13.59,21.91-17.35,9.24-5.72,12.38-7.86,17.21-11.74,20.8-16.69,27.38-36.51,16.86-50.8-2.58-3.51-5.17-5.6-25.56-20.64-10.23-7.55-16.86-12.91-22.7-18.35-12.65-11.78-22.47-18.62-33.21-23.12-10.97-4.59-21.02-6.39-33.12-5.91-18.68.74-36.08,6.85-59.25,20.83-10.77,6.5-15.55,8.63-33.41,14.91-17.27,6.07-29.82,11.32-35.1,14.68-10.34,6.6-16.53,15.12-17.66,24.32-2.77,22.68,22.15,48.66,57.77,60.24,7.82,2.54,14.63,6.2,31.68,17.01,20.22,12.82,31.62,17.53,47.78,19.71h0Zm27.98-36.73c-9.62,1.18-24.69-.33-36.43-3.63-12.28-3.46-20.67-6.93-39.13-16.17-17.84-8.94-25.25-13.39-37.17-22.35-19.4-14.58-27.5-24.75-20.86-26.21,2.99-.66,5.06.56,8.41,4.93,4.06,5.3,4.95,6.09,16.15,14.4,17.6,13.05,24.57,17.4,41.18,25.71,14.65,7.32,29.06,12.64,41.45,15.3,6,1.29,7.61,1.42,17.69,1.4,9.51-.01,11.8-.18,16.1-1.17,18.71-4.33,33.84-12.55,52.02-28.27,9.98-8.63,14.07-12.92,16.34-17.16,2.11-3.93,3.74-5.55,6.18-6.17,2.82-.71,3.89,3.4,2.2,8.49-.96,2.89-5.54,7.67-17.26,18.01-11.6,10.24-21.71,17.17-33.36,22.89-10.97,5.39-21.52,8.53-33.53,10h0Zm19.14-103.29c-3.44,1.43-5.35,1.12-9.3-1.47-2.23-1.46-4.67-2.57-6.49-2.95-3.08-.64-5.11-2.12-4.84-3.52.32-1.63,2.83-2.9,6.3-3.17,2.73-.22,4.16,0,7.59,1.14,2.32.78,5.12,2,6.22,2.72,3.76,2.46,3.99,5.81.51,7.25h0Zm-70.64.11c-4.19-1.75-3.42-5.35,1.74-8.1,6.06-3.23,12.29-4.08,16.36-2.23,1.78.81,2.24,1.29,2.24,2.35,0,1.65-1.42,2.62-5.37,3.63-1.72.44-4.28,1.69-6.03,2.94-3.37,2.41-5.68,2.78-8.95,1.41Zm117.51,1.14c3.41,2.58,6.95,5.22,7.87,5.86l1.67,1.16,2.73-3.04c8.82-9.83,15.48-24.77,18.56-41.61,1.57-8.61,1.7-27.34.24-35.35-2.32-12.72-7.46-25.43-13.52-33.45-5.87-7.77-14.12-13.72-21.39-15.43-4.77-1.12-12.22-.76-16.94.82-15.27,5.12-28.28,21.65-34.53,43.9-2.54,9.03-3.37,15.67-3.4,27.25l-.03,10.44,5.28,1.84c5.71,1.99,12.76,5.22,16.77,7.69,1.38.85,2.6,1.55,2.71,1.55s.31-4.1.46-9.11c.31-10.55,1.54-16.35,5.03-23.74,12.42-26.29,34.75-17.44,36.38,14.42.81,15.84-4.26,31.77-12.48,39.19-1.2,1.08-2.05,2.18-1.89,2.43.16.25,3.08,2.58,6.49,5.16h0Zm-214.41,1.6c1.48,2.11,2.87,3.8,3.08,3.77.21-.03,3.03-1.2,6.27-2.6,3.24-1.4,9.54-3.89,13.99-5.54,4.46-1.64,8.76-3.23,9.56-3.53l1.46-.55-4.02-4.21c-5.85-6.13-8.37-12.39-9.76-24.27-2.48-21.25,5.69-42.35,18.9-48.82,4.18-2.05,10.72-2.36,15.06-.72,6.63,2.5,12.48,8.4,16.49,16.65,2.87,5.88,4.29,10.23,5.37,16.37.88,5,1.16,16.93.49,20.71l-.4,2.23,5.72-2.4c5.89-2.47,18.18-6.45,23.53-7.63,2.87-.63,3.05-.77,3.43-2.56.22-1.04.38-7.01.35-13.25-.04-9.15-.28-12.57-1.2-17.65-2.12-11.73-7.46-25.17-13.87-34.88-3.88-5.89-13.26-15.16-19.42-19.18-9.26-6.05-16.75-8.23-28.3-8.23-9.6,0-14.19,1.03-22.18,4.99-13.3,6.59-23.53,17.31-30.88,32.37-6.43,13.17-9.03,22.98-10.02,37.75-1.5,22.39,4.3,44.13,16.32,61.2h0Z" style="stroke-width: 0px;"/>
          <path id="path5272-2" data-name="path5272" d="m749.21,934.81c52.95-9.38,85.22-27.49,109.33-61.37,12.85-18.06,13.37-19.89,5.58-19.89-4.72,0-13.91-4.59-20.43-10.2-33.26-28.61,4.92-90.75,91.99-149.7,60.84-41.19,80.63-76.12,76.27-134.67-2.12-28.51-18.3-89.11-22.63-84.78-.88.88,1.43,15.89,5.14,33.37,8.46,39.92,5.4,74.32-9.46,106.21-13.25,28.44-15.37,25.72-22.46-28.73-5.58-42.83-19.84-84.04-59.47-171.82-35.16-77.89-50.65-121.41-60.61-170.31l-7.26-35.65-27.51,21.08c-32.71,25.07-53.78,32.92-79.04,29.46-19.41-2.66-113.54-48.87-127.55-62.61-8.01-7.86-8.49-7.01-26.14,46.23-23.86,71.96-30.52,88.12-72.7,176.4-20.4,42.7-40.73,92.54-47.08,115.42-6.15,22.15-11.93,42.68-12.84,45.62-.92,2.95-8.4,5.34-16.68,5.34-12.73,0-15.51-1.79-18.3-11.76-6.62-23.69-3.03-83.19,6.63-109.77,11.75-32.33,8.33-36.65-4.98-6.3-15.34,34.98-21.66,66.48-21,104.78l.59,34.66-20.75,9.72c-37.48,17.55-61.88,48.48-53.15,67.37,2.74,5.93,3.78,4.66,4.99-6.14,2.82-25.13,46.45-55.42,94.75-65.78,18.57-3.98,23.99-3.53,37.72,3.18,10.56,5.16,17.49,12.24,20.31,20.74,2.35,7.1,14.2,22.49,26.33,34.2,26.84,25.9,33.46,45.67,40.05,119.61,5.08,56.95,15.09,99.77,25.26,108,13.42,10.87,75.65,38.73,96.45,43.17,32.73,7,66.28,8.85,88.65,4.89h0Z" style="fill: #ffb046; stroke: #000; stroke-miterlimit: 3.2; stroke-width: 21.8px;"/>
          <path id="path5296-2" data-name="path5296" d="m749.8,246.28c-11.9,1.56-21.21.57-31.74-3.38-14.6-5.48-33.33-14.14-41.02-18.96-11.3-7.09-20.73-11.94-28.92-14.9-16.55-5.97-33.97-16.74-42.74-26.43-4.76-5.26-9.52-12.75-11.64-18.29-2.64-6.91-2.54-15.91.23-21.86,5.69-12.23,14.16-18.01,40.96-27.95,26.47-9.81,31.12-11.83,43.83-19.05,27.21-15.43,41.14-19.94,61.64-19.94,10.79,0,16.98,1.05,26.34,4.47,11.62,4.24,20.81,10.37,36.33,24.25,4.78,4.27,16.56,13.68,26.18,20.9,9.62,7.22,18.76,14.53,20.3,16.24,4.65,5.15,6.04,9.04,6.04,16.95,0,6.54-.15,7.16-3.16,13.22-6.02,12.11-13.39,19.27-33.76,32.77-5.88,3.9-14.6,10.53-19.38,14.74-17.16,15.1-35.94,25.43-49.5,27.21h0Zm-10.64-36.31c12.5,1.25,18.81.75,31.48-2.51,18.68-4.81,36.26-15.14,56.53-33.21,11.9-10.61,13.91-13.24,14.31-18.72.26-3.56.08-4.49-.91-4.87-2.74-1.05-5.03.48-8.33,5.57-8.33,12.83-33.49,32.46-51.17,39.93-12.27,5.19-18.28,6.33-33.29,6.33-12.4,0-14-.16-22.17-2.27-15.76-4.06-37.41-13.5-54.09-23.57-11.09-6.7-31.77-21.88-36.05-26.47-1.95-2.09-4.62-4.95-5.93-6.35-1.84-1.97-2.99-2.54-5.07-2.54-9.3,0-1.25,11.12,19.26,26.59,11.8,8.9,19.9,13.69,39.94,23.62,24.67,12.22,38.3,16.76,55.5,18.48h0Zm27.5-104.49c5.38,2.85,5.63,2.89,8.91,1.47,3.1-1.35,3.76-3.26,1.97-5.68-4.33-5.85-20.52-8.2-22.41-3.26-.62,1.62,1.53,3.79,4.37,4.41,1.3.29,4.52,1.67,7.16,3.07h0Zm-61.47,1.45c3.74,1.56,5.87,1.17,10.12-1.85,1.1-.78,3.44-1.85,5.2-2.38,5.73-1.71,7.07-5.15,2.68-6.85-3.09-1.2-10.69-.38-14.59,1.58-4.75,2.39-6.02,3.7-6.02,6.21,0,1.78.49,2.39,2.62,3.28h0Z" style="fill: #ff942a; stroke: #000; stroke-miterlimit: 3.2; stroke-width: 3.85px;"/>
          <path id="path5298-2" data-name="path5298" d="m779.94,913.36c28.89-10.16,57.16-28.83,64.53-42.61,3.46-6.47,1.82-10.05-8.61-18.83-35.45-29.83-10.06-89.91,61.26-144.98,18.27-14.11,42.83-33.04,54.57-42.07l21.36-16.43-8.54-9.22c-5.71-6.16-10.23-20.53-13.64-43.33-7.16-47.9-17.41-78.99-54.26-164.67-38.8-90.22-53.19-128.98-63.06-169.81l-7.46-30.88-13.46,10.09c-26.89,20.15-51.05,29.75-74.37,29.54-18.8-.17-31.77-4.79-80.07-28.58-31.7-15.61-58.64-28.38-59.86-28.38s-2.22,1.95-2.22,4.34c0,11.56-42.49,119.3-75.35,191.03-20.24,44.19-43.96,102.33-52.7,129.19l-15.9,48.83,17.47,18.16c41.76,43.41,63.43,74.09,71.13,100.71,2.28,7.87,7.05,39.31,10.6,69.87,3.55,30.57,9.37,65.75,12.94,78.18,7.52,26.18,15.12,32.08,68.14,52.86,28.2,11.05,41.7,13.7,76.95,15.08,36.38,1.43,46.89.22,70.53-8.1h0Z" style="fill: url(#linear-gradient-3); stroke: #000; stroke-miterlimit: 3.2; stroke-width: 21.8px;"/>
        </g>
      </g>
    </g>
    <g id="Linux-5" data-name="Linux" style="opacity: .05;">
      <polygon points="266.97 376.46 161.78 380.05 132.41 330.91 137.41 143.31 57.33 -42.99 -31.82 -130.93 -34.46 -208.49 150.09 -204.94 625.56 -175.8 542.23 -14.17 434.65 84.27 453.45 319.95 407.37 386.76 266.97 376.46" style="fill: #fff; stroke-width: 0px;"/>
      <g id="Linux-6" data-name="Linux">
        <g id="layer7-3" data-name="layer7">
          <path id="path5266-3" data-name="path5266" d="m470.45-764.03c3.52-.66,8.53-1,17.35-1.18,10.75-.22,13.37-.11,19.62.87,38.8,6.09,75.08,27.07,107.98,62.44,16.86,18.12,32.46,29.65,58.02,42.9,3.55,1.84,18.29,8.73,32.75,15.3,34.7,15.78,43.6,20.43,53.67,27.97,32.03,24.02,29.63,56.76-7.54,102.71-2.75,3.4-5.99,7.55-7.2,9.21-4.89,6.75-8.45,17.07-12.38,35.9-1.37,6.58-3.32,15.91-4.33,20.73-4.58,21.88-10.26,34.72-19.84,44.89-4.8,5.1-13.55,11.54-18.83,13.88-2.56,1.13-3.54,1.83-3.37,2.38.14.43,1.33,3.96,2.66,7.83,17.88,52.18,17.65,111.23-.69,173.22-18.19,61.52-53.75,126.08-108.13,196.34-11.78,15.21-27.68,37.1-36.43,50.11-23.36,34.77-36.15,62.48-42.21,91.49-4.38,20.94-4.48,23.95-2.58,79.36,1.58,46.14,1.73,60.05.91,81.33-3.03,77.81-20.85,132.95-54.65,169.11-11.32,12.11-22.92,21.03-37.36,28.72-23.9,12.74-48.73,19.17-81.43,21.08-36.23,2.12-71.41-2.17-99.47-12.13-62.1-22.05-97.83-72.33-108.74-153.07-1.97-14.54-2.77-25.1-3.45-45.7-.75-22.51-.71-31.47.32-68.3.94-33.38.91-43.28-.16-52.56-5.53-48.12-15.32-80.76-34.57-115.31-10.66-19.14-21.53-34.68-34.81-49.79C-8.57-45.91-51.79-108.79-79.98-166.94c-21.55-44.46-34.21-85.62-38.43-125.02-1.16-10.78-1.49-32.98-.63-42.72l.62-7.07-4.82-4.67c-6.11-5.93-9.37-9.69-20.51-23.68-11.11-13.96-12.92-16.07-17.5-20.44-7.51-7.16-14.81-10.55-39.28-18.24-10.7-3.36-16.06-5.43-22.13-8.53-18.12-9.25-30.67-24.87-34.83-43.33-2.51-11.12-2.36-20.64.74-48.5,1.57-14.07,2.04-20.43,2.03-27.54,0-11.49-.56-14.51-4.66-25.4-7.04-18.72-10.04-31.67-10.52-45.4-.45-12.93,1.14-20.84,5.97-29.74,4.24-7.81,13.21-16.03,22.76-20.84,13.75-6.93,28.64-10.55,67.24-16.33,31.22-4.68,43.46-6.96,59.32-11.09,17.59-4.58,29.19-9.28,48.48-19.65,30.14-16.21,56.39-25.21,85.36-29.27,14.7-2.06,33.72-1.75,47.6.76,28.56,5.18,52.54,21.62,65.06,44.62l2,3.68,7.3.07c8.73.08,16.64.96,37.38,4.14,44.57,6.83,61.89,8.36,85.75,7.56,15.45-.52,18.8-.93,46.03-5.75,18.63-3.3,30.57-5.24,38.89-6.32,9.61-1.25,28.47-2.57,35.26-2.46l6.38.1,1.54-5.58c2.68-9.67,9.56-23.06,16.81-32.71,4.4-5.85,13.4-14.95,18.92-19.13,12.14-9.19,27.08-15.76,42.31-18.6h0Zm24.51,15.07c-16.58-.99-31.7,2-45.3,8.94-14.65,7.48-27.15,20.73-36.12,38.27-5.85,11.45-7.59,20.46-6.99,36.35.75,20.1,5.44,40.59,17.87,78.11,18.56,56.03,19.81,61.19,22.78,94.58,4.11,46.14,8.61,71.84,16.14,92.08,5.58,15.02,13.05,26.06,22.61,33.43,4.01,3.09,11.29,7.39,11.65,6.88.08-.11.42-3.3.77-7.09,2.02-21.96,10.02-41.41,22.14-53.88,6.7-6.89,12.52-10.5,21.72-13.5,5.74-1.87,18.47-2.3,26.29-.89,22.21,4.01,47.34,16.88,65.14,33.35l5.54,5.12,14.95-.74c17.33-.86,20.12-1.45,29.03-6.14,9.37-4.94,16.87-12.86,21.25-22.5,4.24-9.32,5.61-14.6,12.28-47.6,4.17-20.63,8.78-32.43,16.32-41.83,11.5-14.32,17.75-23.02,22.54-31.37,11.06-19.29,12.68-33.64,5.02-44.56-6.53-9.31-18.18-16.86-43.85-28.42-37.93-17.08-44.88-20.31-52.87-24.52-24.41-12.87-41.53-25.39-56.48-41.33-18.46-19.67-30.99-30.4-47.21-40.42-21.89-13.52-43.9-21.06-65.21-22.33h0Zm-444.17,30.17c-6.89-.51-23.45.19-31.4,1.34-18.03,2.59-37.21,8.25-56.73,16.73-4.09,1.78-14.33,6.87-22.75,11.31-16.65,8.78-22.27,11.33-33.82,15.33-21.18,7.33-38.99,11.03-84.19,17.49-41.65,5.95-57.9,11.46-67.87,23-5.13,5.94-7.16,12.33-7.26,22.89-.11,11.36,2.59,23.56,9.21,41.68,5.42,14.85,6.07,18.16,6.17,31.75.05,6.84-.22,13.36-.75,17.72-4.46,37.05-4.76,45.36-2.02,56.8,1.78,7.44,5.92,14.69,11.82,20.73,7.98,8.16,14.89,11.56,38.31,18.84,21.36,6.63,29.88,10.76,39.11,18.93,6.13,5.42,9.45,9.25,26.07,30.08,15.41,19.3,26.2,27.92,38.32,30.62,10.14,2.26,23.36.2,34.53-5.38,8.08-4.04,15.61-10.17,24.44-19.91,10.71-11.81,11.3-12.82,36.04-61.92,12.36-24.54,23.67-47.03,25.12-49.99,6.77-13.78,14.55-25.43,38.46-57.58,16.25-21.84,23.76-32.34,29.84-41.7,14.4-22.17,23.32-42.38,25.18-57.07.71-5.59-.26-18.04-1.93-24.82-2.63-10.67-6.6-19.56-12.18-27.32-3.57-4.96-12.11-12.93-17.31-16.16-11.99-7.44-27.58-12.15-44.41-13.4h0Zm209.53,91.11c-7.76-.24-19.81.07-25.61.67-26.22,2.7-45.29,7.54-67.56,17.14-11.85,5.11-24.15,11.95-36.3,20.19l-5.95,4.03-4.95,7.94c-5.1,8.18-16.3,24.43-24.39,35.4-2.53,3.43-4.59,6.38-4.59,6.55,0,.17,2.68.37,5.95.43,7.4.14,13.01,1.36,19.5,4.27,8.94,4,14.78,10.59,17.45,19.68,1.19,4.05,1.62,13.01.85,17.67-5.58,33.79-40.06,75.47-94.36,114.07-6.52,4.63-15.3,10.84-19.52,13.79-10.6,7.42-17.16,13.12-25.8,22.41-13.37,14.39-21.93,28.61-27.73,46.08-10.93,32.94-7.99,72.6,8.75,118.11,12.15,33.03,30.21,67.01,58.89,110.78,6.39,9.75,7.9,11.17,7.77,7.34-.1-2.88-4.12-11.56-12.02-25.95-3.92-7.13-11.03-20.08-15.81-28.78-9.66-17.59-14.6-28.11-20.15-42.87-21.99-58.53-20.38-109.09,4.8-150.09,1.96-3.19,3.72-5.81,3.91-5.81s.64,3.72.99,8.29c2.76,35.71,12.74,77.79,27.44,115.73,7.04,18.16,11.63,27.88,34.83,73.78C96.53-57.84,111.6-24.67,124.99,11.39c10.11,27.25,16.14,47.6,20.82,70.34,1.62,7.89,4,23.3,4.14,26.8.16,4.22.49,4.28,5.01.9,2.22-1.66,6.58-4.72,9.69-6.79,6.91-4.61,9.89-7.13,21.82-18.45,10.94-10.38,16.37-14.67,23.81-18.85,9.44-5.3,17.69-7.88,29.88-9.37,12.63-1.54,26.79-.19,39.86,3.82,9.97,3.05,20.04,8.03,40.73,20.12,9.23,5.4,15.28,8.2,22.44,10.42,15.92,4.92,27.8,10.8,39.36,19.46,4.33,3.24,10.88,9.52,13.4,12.85.83,1.09,1.67,1.98,1.88,1.98.21,0,.6-1.02.87-2.26,7.19-33,24.2-89.31,40.12-132.78,17.5-47.79,28.47-74.15,46.43-111.53,25.39-52.83,41.83-103.45,49.53-152.46l.58-3.72,6.83-.58c3.84-.33,9.69-1.27,13.36-2.15,4.96-1.19,6.64-1.42,6.97-.95.91,1.28,5.07,13.53,6.54,19.24,12.27,47.53,1.19,104.21-30.66,156.81-9.01,14.88-15.26,23.26-26.89,36.05-9.09,9.99-11.13,13.85-8.26,15.6.76.46,1.82.68,2.37.49,1.52-.54,18.07-18.81,24.22-26.75,51.48-66.37,73.3-144.25,57.7-205.99-.69-2.75-1.07-5.17-.84-5.39s2.01-1.1,3.95-1.98c9.5-4.32,29.58-16.17,39.48-23.31,27.02-19.48,36.75-38.68,30.51-60.2l-.99-3.4-5.15.02c-2.83.01-5.15.13-5.14.25s.46,2.08,1.01,4.34c1.91,7.85.78,15.89-3.3,23.41-2.15,3.96-11.17,13.62-16.62,17.78-12.88,9.84-36,22.29-53.05,28.58-31.2,11.5-54.58,9.77-67-4.97-5.21-6.18-8.42-13.66-10.43-24.26-.64-3.36-1.4-6.11-1.7-6.1-1.18.03-12.74-5.42-16.72-7.89-5.85-3.62-16.01-13.28-20.35-19.34-16.43-22.95-24.44-53.76-30.15-116.01-2.79-30.38-3.47-34.56-8.41-52.01-3.03-10.69-12.45-40.06-13.1-40.85-.27-.33-3.58-2.51-7.35-4.84-46.01-28.43-93.81-43.64-141.89-45.16h0Zm-1.45,692.85c-9.81-.98-20.88-.03-30.05,2.58-12.88,3.67-20.93,8.94-35.9,23.48-8.83,8.59-15.35,14.12-21.3,18.09-9.04,6.03-12.1,8.28-16.8,12.32-20.22,17.39-26.12,37.43-15.12,51.35,2.7,3.42,5.36,5.42,26.25,19.76,10.48,7.2,17.29,12.32,23.32,17.57,13.04,11.34,23.09,17.84,33.98,21.97,11.12,4.22,21.23,5.66,33.3,4.78,18.65-1.37,35.83-8.08,58.5-22.84,10.55-6.87,15.25-9.16,32.89-16.04,17.05-6.65,29.42-12.33,34.58-15.87,10.11-6.94,16.01-15.68,16.82-24.91,1.99-22.76-23.8-47.88-59.79-58.24-7.9-2.27-14.83-5.7-32.24-15.92-20.65-12.13-32.2-16.44-48.43-18.06h0Zm-26.71,37.67c9.58-1.5,24.68-.52,36.53,2.39,12.39,3.04,20.9,6.22,39.65,14.83,18.14,8.33,25.69,12.52,37.91,21.07,19.89,13.9,28.33,23.8,21.74,25.48-2.96.76-5.08-.39-8.57-4.64-4.24-5.16-5.15-5.92-16.63-13.84-18.03-12.44-25.15-16.56-42.04-24.29-14.89-6.82-29.47-11.64-41.94-13.88-6.04-1.08-7.66-1.16-17.73-.8-9.5.34-11.79.58-16.05,1.72-18.55,4.96-33.4,13.7-51.03,30.03-9.68,8.96-13.62,13.39-15.75,17.71-1.98,4-3.54,5.68-5.97,6.37-2.8.8-4-3.27-2.49-8.41.86-2.92,5.28-7.86,16.63-18.59,11.24-10.62,21.11-17.9,32.56-24.02,10.78-5.76,21.22-9.26,33.17-11.13h0Zm-15.61,103.88c3.39-1.54,5.31-1.31,9.34,1.15,2.28,1.39,4.75,2.41,6.59,2.73,3.1.53,5.18,1.95,4.96,3.36-.27,1.64-2.73,2.99-6.19,3.39-2.72.31-4.16.14-7.62-.88-2.35-.7-5.19-1.82-6.31-2.51-3.84-2.33-4.19-5.67-.76-7.23h0Zm70.59-2.52c4.25,1.61,3.6,5.24-1.46,8.16-5.94,3.43-12.15,4.5-16.27,2.79-1.81-.75-2.29-1.22-2.32-2.27-.06-1.65,1.33-2.66,5.24-3.81,1.7-.5,4.22-1.84,5.92-3.15,3.28-2.53,5.58-2.97,8.9-1.71Zm-117.48,2.87c-3.5-2.47-7.13-4.98-8.07-5.59l-1.71-1.1-2.62,3.13c-8.48,10.12-14.63,25.28-17.13,42.22-1.28,8.66-.77,27.38.96,35.34,2.75,12.63,8.32,25.16,14.65,32.96,6.13,7.56,14.58,13.23,21.91,14.69,4.8.96,12.24.34,16.9-1.4,15.09-5.64,27.52-22.6,33.01-45.05,2.23-9.11,2.83-15.77,2.47-27.35l-.32-10.43-5.34-1.66c-5.78-1.79-12.93-4.78-17.02-7.11-1.41-.8-2.65-1.46-2.76-1.45s-.17,4.11-.15,9.12c.05,10.55-.98,16.39-4.22,23.89-11.51,26.7-34.14,18.61-36.85-13.17-1.35-15.8,3.18-31.89,11.14-39.59,1.16-1.12,1.97-2.24,1.81-2.49-.17-.25-3.16-2.47-6.66-4.94h0Zm214.23-8.92c-1.55-2.05-3-3.7-3.2-3.67-.21.04-2.99,1.3-6.18,2.82-3.19,1.51-9.4,4.22-13.79,6.01-4.4,1.79-8.64,3.53-9.43,3.86l-1.44.6,4.17,4.07c6.06,5.92,8.79,12.09,10.58,23.92,3.2,21.16-4.24,42.52-17.23,49.43-4.11,2.19-10.63,2.72-15.02,1.24-6.71-2.27-12.76-7.97-17.05-16.07-3.07-5.78-4.64-10.08-5.92-16.17-1.05-4.97-1.74-16.88-1.2-20.68l.32-2.24-5.63,2.59c-5.8,2.67-17.95,7.07-23.26,8.43-2.85.73-3.02.87-3.34,2.68-.19,1.05-.14,7.01.1,13.25.36,9.15.7,12.55,1.8,17.6,2.52,11.65,8.32,24.9,15.05,34.39,4.08,5.76,13.77,14.7,20.06,18.51,9.46,5.73,17.02,7.66,28.56,7.26,9.6-.33,14.15-1.52,21.99-5.74,13.07-7.04,22.92-18.11,29.76-33.41,5.98-13.38,8.24-23.28,8.73-38.07.73-22.43-5.81-43.96-18.4-60.61h0Z" style="stroke-width: 0px;"/>
          <path id="path5272-3" data-name="path5272" d="m214.9-621.96c-52.6,11.18-84.23,30.38-107.17,65.06-12.23,18.49-12.68,20.34-4.9,20.07,4.71-.16,14.06,4.11,20.77,9.49,34.22,27.46-1.82,90.87-86.83,152.75-59.4,43.24-77.98,78.83-71.63,137.19,3.09,28.42,21.33,88.44,25.51,83.96.85-.91-1.98-15.84-6.27-33.17-9.82-39.6-7.93-74.1,5.83-106.48,12.27-28.87,14.49-26.23,23.43,27.95,7.03,42.62,22.69,83.31,65.29,169.69C116.72-18.8,133.68,24.16,145.3,72.69l8.47,35.38,26.77-22.01c31.84-26.17,52.62-34.74,77.99-32.14,19.49,2,115.14,44.96,129.61,58.22,8.27,7.58,8.72,6.72,24.55-47.09,21.39-72.74,27.5-89.11,66.64-178.78,18.93-43.37,37.55-93.87,43.12-116.96,5.39-22.35,10.47-43.06,11.28-46.03.81-2.97,8.21-5.63,16.48-5.91,12.73-.43,15.57,1.26,18.69,11.12,7.43,23.45,5.87,83.04-2.88,109.94-10.64,32.71-7.08,36.91,5.19,6.13,14.14-35.48,19.38-67.18,17.41-105.43l-1.78-34.61,20.41-10.42c36.86-18.82,60.19-50.56,50.82-69.15-2.94-5.84-3.93-4.52-4.77,6.31-1.96,25.21-44.53,56.98-92.45,68.98-18.43,4.61-23.85,4.34-37.81-1.89-10.73-4.8-17.9-11.63-21-20.04-2.59-7.01-14.96-21.99-27.49-33.28-27.71-24.97-35-44.51-44.11-118.18-7.02-56.74-18.49-99.2-28.93-107.08-13.78-10.4-76.93-36.12-97.87-39.86-32.95-5.88-66.54-6.58-88.76-1.86h0Z" style="fill: #ffb046; stroke: #000; stroke-miterlimit: 3.2; stroke-width: 21.8px;"/>
          <path id="path5296-3" data-name="path5296" d="m237.8,66.18c11.84-1.97,21.17-1.3,31.84,2.3,14.78,4.98,33.79,12.99,41.64,17.55,11.53,6.7,21.12,11.23,29.41,13.9,16.75,5.4,34.53,15.57,43.62,24.95,4.93,5.09,9.95,12.41,12.26,17.88,2.87,6.82,3.09,15.81.52,21.86-5.27,12.42-13.53,18.48-39.99,29.33-26.12,10.71-30.69,12.89-43.15,20.53-26.67,16.35-40.43,21.33-60.92,22.03-10.78.37-17-.47-26.48-3.57-11.76-3.84-21.15-9.65-37.13-22.99-4.92-4.11-17.02-13.1-26.88-19.99-9.86-6.89-19.24-13.88-20.84-15.54-4.82-4.99-6.34-8.83-6.61-16.74-.22-6.53-.1-7.16,2.71-13.32,5.6-12.31,12.73-19.72,32.62-33.91,5.74-4.09,14.23-11.02,18.86-15.39,16.63-15.68,35.05-26.64,48.54-28.89h0Zm11.87,35.93c-12.54-.83-18.82-.11-31.37,3.59-18.51,5.45-35.72,16.37-55.37,35.12-11.53,11.01-13.45,13.71-13.66,19.2-.14,3.56.07,4.49,1.07,4.84,2.77.96,5.01-.65,8.14-5.85,7.89-13.11,32.36-33.58,49.78-41.66,12.09-5.6,18.05-6.95,33.06-7.46,12.39-.42,14-.32,22.24,1.51,15.89,3.52,37.85,12.22,54.86,21.71,11.32,6.32,32.5,20.79,36.93,25.23,2.02,2.03,4.79,4.79,6.14,6.15,1.91,1.9,3.08,2.44,5.16,2.37,9.3-.32.87-11.15-20.16-25.92-12.09-8.49-20.36-13.01-40.72-22.24-25.07-11.37-38.85-15.44-56.1-16.58h0Zm-23.92,105.37c-5.47-2.67-5.73-2.7-8.95-1.16-3.05,1.46-3.65,3.39-1.77,5.75,4.52,5.7,20.78,7.5,22.51,2.49.56-1.64-1.66-3.73-4.52-4.26-1.31-.24-4.58-1.51-7.26-2.82h0Zm61.39-3.55c-3.79-1.43-5.91-.97-10.05,2.19-1.07.82-3.37,1.97-5.11,2.55-5.67,1.91-6.89,5.38-2.44,6.94,3.13,1.1,10.7.01,14.53-2.08,4.67-2.55,5.89-3.91,5.81-6.42-.06-1.78-.57-2.37-2.73-3.19h0Z" style="fill: #ff942a; stroke: #000; stroke-miterlimit: 3.2; stroke-width: 3.85px;"/>
          <path id="path5298-3" data-name="path5298" d="m184.92-599.47c-28.52,11.14-56.14,30.77-63.04,44.78-3.24,6.58-1.48,10.11,9.25,18.53,36.44,28.6,13.12,89.52-56.28,146.99-17.78,14.72-41.68,34.48-53.11,43.91L.96-328.12l8.85,8.93c5.91,5.97,10.92,20.17,15.11,42.84,8.79,47.63,20.09,78.35,59.85,162.73C126.62-24.79,142.32,13.46,153.58,53.94l8.51,30.61,13.11-10.54c26.19-21.06,50.01-31.47,73.32-32.06,18.79-.47,31.91,3.71,81,25.83,32.21,14.52,59.57,26.36,60.79,26.32s2.15-2.03,2.07-4.42c-.39-11.56,38.4-120.68,68.78-193.49,18.72-44.86,40.44-103.77,48.26-130.91l14.22-49.35-18.08-17.55c-43.21-41.96-65.92-71.88-74.53-98.23-2.54-7.78-8.38-39.05-12.97-69.47-4.59-30.43-11.61-65.39-15.6-77.69-8.4-25.91-16.2-31.54-69.9-50.5-28.56-10.08-42.14-12.27-77.42-12.45-36.41-.19-46.87,1.38-70.22,10.5h0Z" style="fill: url(#linear-gradient-4); stroke: #000; stroke-miterlimit: 3.2; stroke-width: 21.8px;"/>
        </g>
      </g>
    </g>
    <g id="Linux-7" data-name="Linux" style="opacity: .05;">
      <polygon points="1643.25 376.46 1748.44 380.05 1777.81 330.91 1772.81 143.31 1852.89 -42.99 1942.03 -130.93 1944.68 -208.49 1760.12 -204.94 1284.66 -175.8 1367.98 -14.17 1475.57 84.27 1456.77 319.95 1502.85 386.76 1643.25 376.46" style="fill: #fff; stroke-width: 0px;"/>
      <g id="Linux-8" data-name="Linux">
        <g id="layer7-4" data-name="layer7">
          <path id="path5266-4" data-name="path5266" d="m1439.77-764.03c15.23,2.84,30.17,9.41,42.31,18.6,5.52,4.18,14.52,13.28,18.92,19.13,7.26,9.65,14.14,23.04,16.81,32.71l1.54,5.58,6.38-.1c6.79-.11,25.65,1.21,35.26,2.46,8.32,1.09,20.26,3.03,38.89,6.32,27.23,4.82,30.58,5.23,46.03,5.75,23.85.8,41.18-.73,85.75-7.56,20.74-3.18,28.65-4.06,37.38-4.14l7.3-.07,2-3.68c12.52-22.99,36.5-39.44,65.06-44.62,13.87-2.51,32.9-2.82,47.6-.76,28.97,4.06,55.22,13.06,85.36,29.27,19.29,10.37,30.89,15.08,48.48,19.65,15.86,4.13,28.09,6.41,59.32,11.09,38.6,5.78,53.49,9.4,67.24,16.33,9.55,4.82,18.52,13.03,22.76,20.84,4.83,8.9,6.41,16.81,5.97,29.74-.48,13.73-3.48,26.67-10.52,45.4-4.1,10.9-4.65,13.91-4.66,25.4,0,7.11.46,13.47,2.03,27.54,3.1,27.87,3.25,37.38.74,48.5-4.16,18.46-16.71,34.08-34.83,43.33-6.07,3.1-11.44,5.17-22.13,8.53-24.48,7.7-31.78,11.09-39.28,18.24-4.59,4.37-6.39,6.48-17.5,20.44-11.14,13.99-14.4,17.75-20.51,23.68l-4.82,4.67.62,7.07c.85,9.74.52,31.94-.63,42.72-4.23,39.4-16.88,80.56-38.43,125.02-28.19,58.15-71.41,121.03-125.54,182.62-13.28,15.11-24.15,30.66-34.81,49.79-19.25,34.54-29.04,67.19-34.57,115.31-1.07,9.28-1.1,19.18-.16,52.56,1.03,36.84,1.08,45.79.32,68.3-.69,20.6-1.49,31.16-3.45,45.7-10.92,80.74-46.64,131.02-108.74,153.07-28.06,9.96-63.24,14.25-99.47,12.13-32.7-1.91-57.53-8.34-81.43-21.08-14.44-7.7-26.04-16.61-37.36-28.72-33.8-36.15-51.63-91.29-54.65-169.11-.83-21.27-.67-35.18.91-81.33,1.9-55.4,1.8-58.42-2.58-79.36-6.06-29.01-18.85-56.71-42.21-91.49-8.74-13.01-24.65-34.9-36.43-50.11-54.38-70.26-89.94-134.82-108.13-196.34-18.33-61.98-18.57-121.03-.69-173.22,1.33-3.88,2.53-7.4,2.66-7.83.17-.56-.8-1.25-3.37-2.38-5.28-2.34-14.02-8.78-18.83-13.88-9.58-10.17-15.26-23.01-19.84-44.89-1.01-4.81-2.96-14.14-4.33-20.73-3.93-18.83-7.49-29.15-12.38-35.9-1.21-1.66-4.45-5.81-7.2-9.21-37.17-45.94-39.58-78.69-7.54-102.71,10.07-7.55,18.97-12.19,53.67-27.97,14.46-6.58,29.2-13.47,32.75-15.3,25.57-13.24,41.16-24.77,58.02-42.9,32.9-35.37,69.18-56.34,107.98-62.44,6.25-.98,8.87-1.1,19.62-.87,8.83.18,13.83.53,17.35,1.18h0Zm-24.51,15.07c-21.31,1.27-43.33,8.81-65.21,22.33-16.23,10.03-28.76,20.75-47.21,40.42-14.95,15.93-32.07,28.46-56.48,41.33-7.99,4.21-14.94,7.44-52.87,24.52-25.67,11.56-37.32,19.11-43.85,28.42-7.66,10.92-6.04,25.27,5.02,44.56,4.79,8.35,11.04,17.05,22.54,31.37,7.54,9.39,12.15,21.19,16.32,41.83,6.67,32.99,8.04,38.28,12.28,47.6,4.39,9.64,11.88,17.56,21.25,22.5,8.91,4.69,11.69,5.28,29.03,6.14l14.95.74,5.54-5.12c17.8-16.47,42.93-29.34,65.14-33.35,7.82-1.41,20.55-.98,26.29.89,9.21,3,15.02,6.62,21.72,13.5,12.13,12.47,20.12,31.92,22.14,53.88.35,3.79.7,6.98.77,7.09.36.51,7.63-3.79,11.65-6.88,9.56-7.37,17.03-18.41,22.61-33.43,7.52-20.24,12.03-45.94,16.14-92.08,2.97-33.39,4.22-38.55,22.78-94.58,12.43-37.51,17.12-58.01,17.87-78.11.6-15.89-1.14-24.9-6.99-36.35-8.97-17.54-21.47-30.79-36.12-38.27-13.6-6.95-28.72-9.93-45.3-8.94h0Zm444.17,30.17c-16.82,1.25-32.42,5.95-44.41,13.4-5.2,3.23-13.73,11.2-17.31,16.16-5.58,7.75-9.55,16.65-12.18,27.32-1.67,6.78-2.64,19.23-1.93,24.82,1.86,14.69,10.77,34.9,25.18,57.07,6.08,9.36,13.59,19.86,29.84,41.7,23.91,32.14,31.7,43.79,38.46,57.58,1.45,2.96,12.76,25.45,25.12,49.99,24.74,49.09,25.33,50.11,36.04,61.92,8.83,9.74,16.36,15.87,24.44,19.91,11.17,5.58,24.39,7.64,34.53,5.38,12.13-2.7,22.91-11.32,38.32-30.62,16.63-20.83,19.95-24.66,26.07-30.08,9.23-8.17,17.76-12.29,39.11-18.93,23.42-7.27,30.33-10.67,38.31-18.84,5.9-6.04,10.04-13.29,11.82-20.73,2.74-11.44,2.45-19.75-2.02-56.8-.53-4.36-.8-10.88-.75-17.72.1-13.59.75-16.9,6.17-31.75,6.62-18.12,9.31-30.32,9.21-41.68-.1-10.56-2.13-16.96-7.26-22.89-9.97-11.53-26.23-17.04-67.87-23-45.2-6.46-63.01-10.16-84.19-17.49-11.55-4-17.17-6.54-33.82-15.33-8.42-4.44-18.66-9.53-22.75-11.31-19.52-8.48-38.7-14.13-56.73-16.73-7.95-1.14-24.51-1.85-31.4-1.34h0Zm-209.53,91.11c-48.08,1.52-95.88,16.73-141.89,45.16-3.77,2.33-7.08,4.51-7.35,4.84-.65.79-10.07,30.15-13.1,40.85-4.95,17.45-5.62,21.63-8.41,52.01-5.72,62.24-13.73,93.06-30.15,116.01-4.34,6.06-14.51,15.73-20.35,19.34-3.99,2.47-15.54,7.92-16.72,7.89-.3,0-1.06,2.74-1.7,6.1-2.01,10.6-5.22,18.08-10.43,24.26-12.42,14.74-35.8,16.47-67,4.97-17.05-6.29-40.17-18.74-53.05-28.58-5.45-4.16-14.47-13.81-16.62-17.78-4.07-7.52-5.2-15.56-3.3-23.41.55-2.26,1-4.22,1.01-4.34s-2.31-.24-5.14-.25l-5.15-.02-.99,3.4c-6.24,21.52,3.49,40.72,30.51,60.2,9.9,7.14,29.98,18.99,39.48,23.31,1.94.88,3.71,1.77,3.95,1.98s-.14,2.64-.84,5.39c-15.6,61.74,6.22,139.62,57.7,205.99,6.15,7.93,22.7,26.21,24.22,26.75.55.19,1.61-.02,2.37-.49,2.87-1.75.83-5.61-8.26-15.6-11.63-12.79-17.88-21.17-26.89-36.05-31.84-52.61-42.93-109.28-30.66-156.81,1.47-5.71,5.64-17.96,6.54-19.24.33-.47,2.01-.24,6.97.95,3.67.88,9.53,1.82,13.36,2.15l6.83.58.58,3.72c7.7,49,24.14,99.63,49.53,152.46,17.96,37.38,28.94,63.74,46.43,111.53,15.92,43.48,32.93,99.78,40.12,132.78.27,1.24.66,2.26.87,2.26.21,0,1.05-.89,1.88-1.98,2.53-3.33,9.08-9.61,13.4-12.85,11.56-8.67,23.43-14.54,39.36-19.46,7.17-2.22,13.21-5.02,22.44-10.42,20.7-12.1,30.77-17.07,40.73-20.12,13.07-4,27.23-5.36,39.86-3.82,12.19,1.49,20.44,4.07,29.88,9.37,7.44,4.17,12.87,8.47,23.81,18.85,11.93,11.31,14.91,13.83,21.82,18.45,3.11,2.08,7.47,5.14,9.69,6.79,4.52,3.38,4.84,3.32,5.01-.9.13-3.5,2.51-18.91,4.14-26.8,4.68-22.75,10.7-43.1,20.82-70.34,13.39-36.06,28.46-69.23,58.29-128.23,23.21-45.9,27.8-55.62,34.83-73.78,14.7-37.93,24.68-80.01,27.44-115.73.35-4.56.8-8.29.99-8.29s1.95,2.62,3.91,5.81c25.17,40.99,26.79,91.56,4.8,150.09-5.55,14.76-10.49,25.29-20.15,42.87-4.78,8.7-11.89,21.65-15.81,28.78-7.9,14.38-11.92,23.06-12.02,25.95-.13,3.84,1.38,2.41,7.77-7.34,28.68-43.77,46.74-77.75,58.89-110.78,16.74-45.51,19.68-85.17,8.75-118.11-5.79-17.47-14.35-31.69-27.73-46.08-8.63-9.29-15.2-14.99-25.8-22.41-4.22-2.95-13-9.16-19.52-13.79-54.3-38.6-88.78-80.28-94.36-114.07-.77-4.66-.34-13.62.85-17.67,2.67-9.08,8.51-15.68,17.45-19.68,6.48-2.9,12.09-4.13,19.5-4.27,3.27-.06,5.95-.25,5.95-.43,0-.17-2.06-3.12-4.59-6.55-8.09-10.97-19.29-27.22-24.39-35.4l-4.95-7.94-5.95-4.03c-12.16-8.24-24.45-15.08-36.3-20.19-22.27-9.6-41.34-14.43-67.56-17.14-5.8-.6-17.85-.91-25.61-.67h0Zm1.45,692.85c-16.23,1.63-27.78,5.94-48.43,18.06-17.41,10.22-24.34,13.65-32.24,15.92-35.99,10.36-61.78,35.48-59.79,58.24.81,9.23,6.7,17.97,16.82,24.91,5.16,3.54,17.52,9.22,34.58,15.87,17.64,6.88,22.34,9.17,32.89,16.04,22.67,14.76,39.85,21.47,58.5,22.84,12.07.89,22.18-.56,33.3-4.78,10.9-4.13,20.94-10.62,33.98-21.97,6.03-5.24,12.83-10.37,23.32-17.57,20.89-14.34,23.55-16.34,26.25-19.76,11-13.92,5.1-33.96-15.12-51.35-4.7-4.04-7.77-6.29-16.8-12.32-5.95-3.97-12.47-9.5-21.3-18.09-14.96-14.54-23.01-19.81-35.9-23.48-9.17-2.61-20.24-3.56-30.05-2.58h0Zm26.71,37.67c11.95,1.88,22.38,5.38,33.17,11.13,11.45,6.11,21.32,13.39,32.56,24.02,11.35,10.73,15.77,15.67,16.63,18.59,1.51,5.15.31,9.22-2.49,8.41-2.42-.7-3.99-2.37-5.97-6.37-2.13-4.31-6.07-8.74-15.75-17.71-17.63-16.33-32.48-25.07-51.03-30.03-4.26-1.14-6.55-1.39-16.05-1.72-10.07-.36-11.69-.28-17.73.8-12.47,2.24-27.05,7.06-41.94,13.88-16.88,7.73-24,11.84-42.04,24.29-11.48,7.92-12.39,8.68-16.63,13.84-3.49,4.25-5.61,5.39-8.57,4.64-6.58-1.68,1.86-11.58,21.74-25.48,12.22-8.54,19.77-12.74,37.91-21.07,18.76-8.61,27.27-11.79,39.65-14.83,11.85-2.9,26.95-3.89,36.53-2.39h0Zm15.61,103.88c3.43,1.56,3.08,4.9-.76,7.23-1.12.68-3.97,1.81-6.31,2.51-3.46,1.03-4.91,1.19-7.62.88-3.46-.39-5.93-1.74-6.19-3.39-.23-1.41,1.86-2.82,4.96-3.36,1.83-.32,4.31-1.34,6.59-2.73,4.03-2.46,5.96-2.69,9.34-1.15h0Zm-61.69-.81c1.7,1.31,4.22,2.65,5.92,3.15,3.91,1.15,5.29,2.16,5.24,3.81-.04,1.06-.52,1.53-2.32,2.27-4.13,1.71-10.33.64-16.27-2.79-5.06-2.92-5.71-6.55-1.46-8.16,3.32-1.25,5.61-.81,8.9,1.71Zm108.59,1.15c-3.5,2.47-6.49,4.69-6.66,4.94-.17.25.65,1.37,1.81,2.49,7.96,7.7,12.49,23.79,11.14,39.59-2.71,31.79-25.34,39.87-36.85,13.17-3.23-7.5-4.26-13.34-4.22-23.89.02-5.01-.04-9.11-.15-9.12s-1.34.65-2.76,1.45c-4.09,2.33-11.25,5.31-17.02,7.11l-5.34,1.66-.32,10.43c-.36,11.58.24,18.24,2.47,27.35,5.49,22.45,17.92,39.42,33.01,45.05,4.67,1.74,12.1,2.36,16.9,1.4,7.33-1.46,15.77-7.13,21.91-14.69,6.33-7.8,11.9-20.34,14.65-32.96,1.73-7.95,2.24-26.68.96-35.34-2.5-16.94-8.66-32.1-17.13-42.22l-2.62-3.13-1.71,1.1c-.94.61-4.57,3.12-8.07,5.59h0Zm-214.23-8.92c-12.59,16.65-19.13,38.18-18.4,60.61.48,14.79,2.75,24.69,8.73,38.07,6.83,15.3,16.69,26.37,29.76,33.41,7.84,4.22,12.39,5.41,21.99,5.74,11.54.39,19.1-1.53,28.56-7.26,6.29-3.81,15.98-12.75,20.06-18.51,6.73-9.49,12.53-22.74,15.05-34.39,1.09-5.05,1.44-8.45,1.8-17.6.24-6.24.29-12.2.1-13.25-.32-1.81-.5-1.95-3.34-2.68-5.31-1.36-17.46-5.76-23.26-8.43l-5.63-2.59.32,2.24c.54,3.8-.15,15.71-1.2,20.68-1.29,6.1-2.86,10.39-5.92,16.17-4.3,8.1-10.34,13.8-17.05,16.07-4.39,1.49-10.91.95-15.02-1.24-12.98-6.91-20.43-28.27-17.23-49.43,1.79-11.83,4.52-18,10.58-23.92l4.17-4.07-1.44-.6c-.79-.33-5.04-2.07-9.43-3.86-4.4-1.79-10.61-4.5-13.79-6.01-3.19-1.51-5.97-2.78-6.18-2.82-.21-.04-1.65,1.61-3.2,3.67h0Z" style="stroke-width: 0px;"/>
          <path id="path5272-4" data-name="path5272" d="m1695.32-621.96c52.6,11.18,84.23,30.38,107.17,65.06,12.23,18.49,12.68,20.34,4.9,20.07-4.71-.16-14.06,4.11-20.77,9.49-34.22,27.46,1.82,90.87,86.83,152.75,59.4,43.24,77.98,78.83,71.63,137.19-3.09,28.42-21.33,88.44-25.51,83.96-.85-.91,1.98-15.84,6.27-33.17,9.82-39.6,7.93-74.1-5.83-106.48-12.27-28.87-14.49-26.23-23.43,27.95-7.03,42.62-22.69,83.31-65.29,169.69-37.8,76.65-54.76,119.61-66.39,168.14l-8.47,35.38-26.77-22.01c-31.84-26.17-52.62-34.74-77.99-32.14-19.49,2-115.14,44.96-129.61,58.22-8.27,7.58-8.72,6.72-24.55-47.09-21.39-72.74-27.5-89.11-66.64-178.78-18.93-43.37-37.55-93.87-43.12-116.96-5.39-22.35-10.47-43.06-11.28-46.03-.81-2.97-8.21-5.63-16.48-5.91-12.73-.43-15.57,1.26-18.69,11.12-7.43,23.45-5.87,83.04,2.88,109.94,10.64,32.71,7.08,36.91-5.19,6.13-14.14-35.48-19.38-67.18-17.41-105.43l1.78-34.61-20.41-10.42c-36.86-18.82-60.19-50.56-50.82-69.15,2.94-5.84,3.93-4.52,4.77,6.31,1.96,25.21,44.53,56.98,92.45,68.98,18.43,4.61,23.85,4.34,37.81-1.89,10.73-4.8,17.9-11.63,21-20.04,2.59-7.01,14.96-21.99,27.49-33.28,27.71-24.97,35-44.51,44.11-118.18,7.02-56.74,18.49-99.2,28.93-107.08,13.78-10.4,76.93-36.12,97.87-39.86,32.95-5.88,66.54-6.58,88.76-1.86h0Z" style="fill: #ffb046; stroke: #000; stroke-miterlimit: 3.2; stroke-width: 21.8px;"/>
          <path id="path5296-4" data-name="path5296" d="m1672.42,66.18c13.49,2.24,31.91,13.21,48.54,28.89,4.63,4.37,13.12,11.29,18.86,15.39,19.89,14.19,27.02,21.59,32.62,33.91,2.81,6.17,2.93,6.79,2.71,13.32-.27,7.9-1.79,11.75-6.61,16.74-1.6,1.66-10.98,8.65-20.84,15.54-9.86,6.89-21.96,15.89-26.88,19.99-15.99,13.34-25.37,19.15-37.13,22.99-9.48,3.1-15.7,3.94-26.48,3.57-20.49-.7-34.26-5.68-60.92-22.03-12.46-7.64-17.04-9.82-43.15-20.53-26.45-10.85-34.71-16.91-39.99-29.33-2.57-6.04-2.35-15.04.52-21.86,2.3-5.47,7.32-12.79,12.26-17.88,9.09-9.38,26.87-19.55,43.62-24.95,8.29-2.67,17.88-7.21,29.41-13.9,7.85-4.56,26.86-12.57,41.64-17.55,10.66-3.59,19.99-4.27,31.84-2.3h0Zm-11.87,35.93c-17.25,1.14-31.03,5.21-56.1,16.58-20.37,9.24-28.63,13.75-40.72,22.24-21.03,14.77-29.46,25.6-20.16,25.92,2.08.07,3.25-.47,5.16-2.37,1.36-1.35,4.12-4.12,6.14-6.15,4.43-4.44,25.62-18.91,36.93-25.23,17.01-9.5,38.97-18.19,54.86-21.71,8.24-1.83,9.85-1.94,22.24-1.51,15,.51,20.97,1.86,33.06,7.46,17.42,8.07,41.89,28.55,49.78,41.66,3.13,5.2,5.37,6.81,8.14,5.85,1-.35,1.21-1.27,1.07-4.84-.21-5.49-2.13-8.19-13.66-19.2-19.64-18.75-36.86-29.67-55.37-35.12-12.55-3.69-18.83-4.41-31.37-3.59h0Zm23.92,105.37c-2.69,1.31-5.96,2.58-7.26,2.82-2.86.53-5.09,2.62-4.52,4.26,1.73,5,17.99,3.2,22.51-2.49,1.88-2.36,1.28-4.29-1.77-5.75-3.23-1.54-3.48-1.5-8.95,1.16h0Zm-61.39-3.55c-2.16.82-2.67,1.41-2.73,3.19-.09,2.51,1.14,3.86,5.81,6.42,3.83,2.09,11.39,3.18,14.53,2.08,4.45-1.56,3.22-5.03-2.44-6.94-1.74-.59-4.04-1.74-5.11-2.55-4.14-3.16-6.26-3.62-10.05-2.19h0Z" style="fill: #ff942a; stroke: #000; stroke-miterlimit: 3.2; stroke-width: 3.85px;"/>
          <path id="path5298-4" data-name="path5298" d="m1725.3-599.47c28.52,11.14,56.14,30.77,63.04,44.78,3.24,6.58,1.48,10.11-9.25,18.53-36.44,28.6-13.12,89.52,56.28,146.99,17.78,14.72,41.68,34.48,53.11,43.91l20.78,17.14-8.85,8.93c-5.91,5.97-10.92,20.17-15.11,42.84-8.79,47.63-20.09,78.35-59.85,162.73-41.86,88.84-57.56,127.09-68.82,167.56l-8.51,30.61-13.11-10.54c-26.19-21.06-50.01-31.47-73.32-32.06-18.79-.47-31.91,3.71-81,25.83-32.21,14.52-59.57,26.36-60.79,26.32s-2.15-2.03-2.07-4.42c.39-11.56-38.4-120.68-68.78-193.49-18.72-44.86-40.44-103.77-48.26-130.91l-14.22-49.35,18.08-17.55c43.21-41.96,65.92-71.88,74.53-98.23,2.54-7.78,8.38-39.05,12.97-69.47,4.59-30.43,11.61-65.39,15.6-77.69,8.4-25.91,16.2-31.54,69.9-50.5,28.56-10.08,42.14-12.27,77.42-12.45,36.41-.19,46.87,1.38,70.22,10.5h0Z" style="fill: url(#linear-gradient-5); stroke: #000; stroke-miterlimit: 3.2; stroke-width: 21.8px;"/>
        </g>
      </g>
    </g>
  </g>
  <g id="Layer_1" data-name="Layer 1">
    <g>
      <g style="opacity: .41;">
        <path d="m933.13,255.75c-13.4,3.65-26.8,7.31-40.19,10.96-4.84,1.32-9.75,2.65-14.68,2.25-5.77-.46-11.24-3.24-16.76-5.44-10.42-4.16-21.32-6.31-32.22-6.38-4.49-.03-6.93-6.77-4.16-11.34,5.79-9.55,16.43-15.06,25.9-18.92,12.79-5.21,25.69-10.45,39.04-12.23,12.26-1.63,24.63-.3,36.92,1.04,40.12,4.4,80.24,8.97,120.11,16.21,1.86.34,3.67,1.09,5.27,2.36,9.8,7.83,1.57,24.63-7.9,27.69-8.6,2.78-17.89-.22-26.41,2.92-5.07,1.86-9.58,5.8-14.67,7.54-6.64,2.27-13.66.62-20.41-1.04-16.11-3.96-32.22-7.92-48.32-11.88" style="stroke-width: 0px;"/>
      </g>
      <g id="Linux-9" data-name="Linux">
        <polygon points="945.34 45.5 923.24 45.5 917.43 56.02 919.82 95.35 904.35 135.02 886.27 154.12 886.27 170.41 924.98 168.34 1024.55 158.82 1005.9 125.5 982.62 105.61 984.88 56.02 974.73 42.33 945.34 45.5" style="fill: #fff; stroke-width: 0px;"/>
        <g id="Linux-10" data-name="Linux">
          <g id="layer7-5" data-name="layer7">
            <path id="path5266-5" data-name="path5266" d="m996.21,283.38c-3.22-.49-6.4-1.76-9.01-3.6-1.19-.84-3.14-2.68-4.11-3.88-1.59-1.97-3.13-4.73-3.76-6.74l-.36-1.16-1.34.07c-1.42.07-5.39-.07-7.42-.26-1.75-.17-4.27-.49-8.21-1.05-5.75-.82-6.45-.88-9.7-.88-5.01,0-8.64.45-17.94,2.2-4.33.82-5.98,1.06-7.81,1.14l-1.53.07-.39.79c-2.46,4.92-7.38,8.54-13.33,9.83-2.89.63-6.88.83-9.98.5-6.11-.64-11.68-2.34-18.12-5.53-4.12-2.04-6.59-2.94-10.31-3.78-3.36-.75-5.94-1.14-12.53-1.9-8.14-.94-11.29-1.59-14.23-2.94-2.04-.94-3.98-2.6-4.93-4.21-1.08-1.83-1.47-3.48-1.46-6.2,0-2.88.54-5.62,1.88-9.6.78-2.32.88-2.95.8-5.36-.05-1.49-.19-2.82-.62-5.77-.85-5.83-.95-7.82-.5-10.17.74-3.9,3.26-7.27,7-9.34,1.25-.69,2.36-1.17,4.58-1.95,5.08-1.79,6.59-2.55,8.11-4.11.93-.95,1.29-1.41,3.53-4.41,2.24-3.02,2.89-3.83,4.13-5.12l.98-1.01-.18-1.48c-.25-2.04-.34-6.7-.17-8.97.6-8.3,2.96-17.03,7.17-26.51,5.5-12.4,14.12-25.91,25.04-39.22,2.68-3.27,4.85-6.61,6.95-10.7,3.79-7.39,5.61-14.31,6.43-24.45.16-1.95.09-4.03-.34-11.03-.48-7.72-.55-9.6-.56-14.33,0-4.33.09-6.55.4-9.62,1.71-17.02,8.85-27.83,21.72-32.9,5.82-2.29,13.17-3.44,20.79-3.26,6.88.17,12.13,1.34,17.24,3.84,3.09,1.51,5.58,3.3,8.05,5.76,7.35,7.34,11.49,18.79,12.68,35.1.33,4.46.39,7.38.39,17.07,0,11.64.04,12.27,1.11,16.64,1.48,6.04,4.36,11.77,9.51,18.9,1.93,2.67,5.42,7.15,8,10.26,11.92,14.36,19.84,27.65,24.1,40.43,4.29,12.88,4.76,25.27,1.38,36.35-.25.82-.48,1.57-.5,1.66-.03.12.18.26.72.48,1.13.45,3.01,1.74,4.05,2.78,2.08,2.07,3.37,4.72,4.48,9.28.25,1,.72,2.95,1.06,4.32.96,3.92,1.78,6.06,2.85,7.44.27.34.97,1.19,1.58,1.88,8.13,9.38,8.87,16.23,2.32,21.5-2.06,1.66-3.89,2.69-11.06,6.26-2.99,1.48-6.03,3.04-6.76,3.45-5.27,2.96-8.46,5.49-11.87,9.42-6.65,7.66-14.11,12.32-22.21,13.88-1.3.25-1.85.29-4.11.32-1.85.02-2.91-.01-3.65-.12h0Zm5.04-3.34c4.46-.42,9.03-2.16,13.53-5.15,3.33-2.22,5.89-4.56,9.62-8.82,3.02-3.45,6.53-6.2,11.56-9.08,1.65-.94,3.08-1.67,10.92-5.52,5.3-2.61,7.7-4.28,9-6.28,1.53-2.35,1.09-5.35-1.37-9.32-1.06-1.72-2.44-3.5-4.95-6.42-1.65-1.92-2.7-4.36-3.73-8.66-1.64-6.88-1.96-7.98-2.92-9.9-.99-1.99-2.62-3.6-4.62-4.57-1.9-.92-2.49-1.02-6.14-1.08l-3.14-.05-1.12,1.11c-3.62,3.58-8.8,6.46-13.43,7.47-1.63.35-4.31.35-5.52,0-1.95-.56-3.2-1.28-4.66-2.68-2.63-2.53-4.45-6.56-5.03-11.15-.1-.79-.2-1.46-.21-1.48-.08-.11-1.58.85-2.4,1.53-1.95,1.62-3.44,3.99-4.51,7.18-1.43,4.3-2.2,9.73-2.73,19.44-.38,7.03-.61,8.12-4.1,20.01-2.34,7.96-3.18,12.3-3.19,16.52-.01,3.34.42,5.22,1.73,7.58,2.01,3.62,4.73,6.31,7.85,7.77,2.9,1.36,6.1,1.88,9.57,1.55h0Zm-93.43-3.15c3.52-.38,6.76-1.48,9.22-3.13,1.07-.72,2.8-2.45,3.52-3.52,1.12-1.67,1.88-3.56,2.36-5.82.3-1.43.42-4.05.23-5.22-.5-3.07-2.51-7.25-5.69-11.8-1.34-1.92-3-4.07-6.56-8.54-5.25-6.57-6.97-8.96-8.48-11.81-.33-.61-2.86-5.25-5.63-10.31-5.54-10.13-5.67-10.33-8.01-12.74-1.92-1.98-3.55-3.21-5.27-4-2.38-1.09-5.17-1.43-7.28-.88-2.53.65-4.73,2.54-7.82,6.7-3.34,4.49-4.01,5.32-5.26,6.5-1.88,1.78-3.64,2.71-8.07,4.25-4.86,1.69-6.29,2.46-7.9,4.23-1.2,1.31-2.01,2.86-2.33,4.43-.49,2.42-.37,4.16.83,11.91.14.91.25,2.28.28,3.71.08,2.85-.04,3.55-1.07,6.71-1.26,3.85-1.74,6.43-1.63,8.81.1,2.22.57,3.54,1.69,4.75,2.17,2.35,5.63,3.39,14.41,4.34,9.53,1.03,13.3,1.68,17.79,3.07,2.45.76,3.65,1.25,7.21,2.97,1.8.87,3.98,1.87,4.86,2.21,4.16,1.64,8.22,2.69,12.03,3.1,1.68.18,5.16.21,6.6.06h0Zm43.32-20.62c10.08-.66,20-4.2,29.45-10.49.77-.52,1.45-1,1.51-1.07.13-.17,1.9-6.4,2.46-8.67.91-3.7,1.03-4.58,1.39-10.98.75-13.1,2.21-19.63,5.5-24.56.87-1.3,2.93-3.4,4.13-4.21.82-.55,3.2-1.77,3.45-1.78.06,0,.2-.58.31-1.29.35-2.24.97-3.83,2.01-5.17,2.5-3.18,7.39-3.71,14.02-1.52,3.62,1.2,8.57,3.65,11.34,5.62,1.17.83,3.14,2.8,3.61,3.61.91,1.55,1.2,3.23.86,4.89-.1.48-.18.89-.18.92s.49.03,1.08.02l1.08-.03.18-.72c1.16-4.56-1.02-8.52-6.83-12.42-2.13-1.43-6.43-3.77-8.45-4.61-.41-.17-.79-.35-.84-.39s.01-.55.14-1.14c2.83-13.07-2.3-29.26-13.58-42.82-1.35-1.62-4.95-5.34-5.27-5.44-.12-.04-.34.02-.49.12-.59.39-.13,1.18,1.84,3.21,2.53,2.6,3.9,4.31,5.9,7.37,7.06,10.81,9.79,22.63,7.56,32.69-.27,1.21-1.05,3.81-1.24,4.09-.07.1-.42.07-1.47-.15-.78-.16-2.01-.31-2.82-.35l-1.44-.07-.15-.78c-1.97-10.23-5.78-20.73-11.49-31.64-4.04-7.72-6.53-13.17-10.54-23.07-3.65-9.01-7.63-20.7-9.37-27.58-.07-.26-.16-.47-.2-.47-.04,0-.21.19-.38.43-.51.72-1.84,2.08-2.72,2.79-2.36,1.9-4.81,3.22-8.12,4.37-1.49.52-2.74,1.15-4.64,2.35-4.26,2.69-6.33,3.8-8.4,4.52-2.71.93-5.68,1.32-8.34,1.09-2.57-.22-4.32-.71-6.34-1.75-1.59-.82-2.76-1.69-5.13-3.78-2.58-2.29-3.23-2.8-4.71-3.71-.67-.41-1.61-1.02-2.08-1.36-.97-.68-1.04-.66-1.04.22,0,.73-.39,3.99-.68,5.65-.82,4.81-1.94,9.12-3.86,14.91-2.55,7.66-5.48,14.73-11.31,27.33-4.54,9.8-5.43,11.87-6.78,15.73-2.81,8.07-4.61,16.97-4.93,24.48-.04.96-.11,1.75-.15,1.75s-.43-.54-.86-1.19c-5.58-8.42-6.28-19.02-2.08-31.46,1.06-3.14,2.02-5.38,3.92-9.14.94-1.86,2.34-4.63,3.11-6.15,1.56-3.08,2.34-4.93,2.34-5.53,0-.81-.31-.5-1.58,1.6-5.7,9.39-9.25,16.65-11.56,23.67-3.19,9.67-3.52,18.02-.99,24.85,1.34,3.62,3.24,6.55,6.15,9.47,1.88,1.89,3.3,3.04,5.57,4.52.91.59,2.79,1.83,4.19,2.75,11.67,7.71,19.21,16.21,20.62,23.26.19.97.17,2.86-.05,3.71-.49,1.93-1.67,3.35-3.52,4.25-1.34.66-2.51.95-4.06,1.03-.69.04-1.25.1-1.25.13,0,.04.46.64,1.01,1.34,1.78,2.24,4.24,5.57,5.37,7.25l1.1,1.63,1.28.8c2.61,1.64,5.24,2.99,7.76,3.98,4.74,1.85,8.78,2.73,14.3,3.11,1.22.08,3.75.06,5.38-.04h0Zm-5.27-145.39c3.39-.46,5.79-1.45,10.03-4.14,3.58-2.27,5.01-3.04,6.65-3.57,7.48-2.43,12.71-7.89,12.13-12.65-.24-1.93-1.54-3.72-3.71-5.11-1.11-.71-3.74-1.81-7.37-3.08-3.75-1.32-4.75-1.77-7.02-3.13-4.86-2.94-8.52-4.22-12.44-4.37-2.54-.1-4.65.28-6.95,1.24-2.26.94-4.32,2.38-6.97,4.85-1.23,1.14-2.62,2.27-4.77,3.85-4.28,3.16-4.82,3.6-5.37,4.33-2.21,3-.83,7.16,3.54,10.67,1.02.81,1.67,1.26,3.61,2.46,1.28.79,2.68,1.91,4.6,3.64,3.24,2.95,4.97,3.99,7.7,4.67,1.94.48,4.27.6,6.32.33h0Zm-5.88-7.71c-2.52-.31-4.74-.97-7.04-2.1-2.45-1.2-4.57-2.66-7.01-4.81-2.46-2.17-3.42-3.18-3.62-3.78-.35-1.07-.13-1.93.46-1.78.51.13.85.47,1.3,1.29.48.89,1.34,1.79,3.43,3.6,3.82,3.3,6.99,5.03,10.92,5.94.9.21,1.38.24,3.38.25,2.12,0,2.45-.02,3.71-.29,2.6-.56,5.63-1.68,8.7-3.21,3.49-1.74,4.95-2.66,8.65-5.4,2.35-1.74,2.54-1.91,3.39-3.02.7-.92,1.14-1.17,1.77-1.03,1.39.31-.31,2.44-4.38,5.5-2.5,1.88-4.06,2.82-7.8,4.69-3.87,1.94-5.64,2.67-8.22,3.4-2.47.69-5.63,1.01-7.65.76h0Zm-4.02-21.69c-.73-.3-.68-1.01.11-1.52.23-.15.82-.41,1.31-.57.72-.24,1.02-.29,1.59-.24.73.06,1.26.32,1.32.67.06.29-.37.61-1.02.74-.38.08-.9.31-1.36.62-.83.54-1.23.61-1.95.31h0Zm12.95-.27c-.37-.26-.9-.53-1.27-.62-.83-.21-1.13-.42-1.13-.76,0-.22.1-.32.47-.49.85-.39,2.16-.21,3.43.47,1.08.58,1.25,1.33.37,1.7-.69.29-1.17.21-1.88-.3Zm-22.8.54c.72-.54,1.33-1.03,1.36-1.08.03-.05-.15-.28-.4-.51-1.73-1.56-2.79-4.9-2.62-8.23.34-6.69,5.03-8.55,7.64-3.03.73,1.55.99,2.77,1.06,4.98.03,1.05.07,1.91.1,1.91s.28-.15.57-.32c.84-.52,2.32-1.2,3.52-1.61l1.11-.39v-2.19c-.01-2.43-.19-3.83-.72-5.72-1.31-4.67-4.04-8.14-7.25-9.22-.99-.33-2.56-.41-3.56-.17-1.53.36-3.26,1.61-4.49,3.24-1.27,1.68-2.35,4.35-2.84,7.02-.31,1.68-.28,5.61.05,7.42.65,3.54,2.05,6.67,3.9,8.74l.57.64.35-.24c.19-.13.94-.69,1.65-1.23h0Zm45.02.34c2.52-3.58,3.74-8.15,3.43-12.85-.21-3.1-.75-5.16-2.1-7.93-1.54-3.16-3.69-5.41-6.48-6.8-1.68-.83-2.64-1.05-4.66-1.05-2.42,0-4,.46-5.94,1.73-1.29.84-3.26,2.79-4.08,4.03-1.34,2.04-2.47,4.86-2.91,7.32-.19,1.07-.24,1.78-.25,3.71,0,1.31.03,2.56.07,2.78.08.38.12.41.72.54,1.12.25,3.7,1.08,4.94,1.6l1.2.5-.08-.47c-.14-.79-.08-3.3.1-4.35.23-1.29.53-2.2,1.13-3.44.84-1.73,2.07-2.97,3.46-3.5.91-.34,2.28-.28,3.16.15,2.77,1.36,4.49,5.79,3.97,10.25-.29,2.5-.82,3.81-2.05,5.1l-.85.88.31.12c.17.06,1.07.4,2.01.74s2.26.87,2.94,1.16c.68.29,1.27.54,1.32.55.04,0,.33-.35.65-.79h0Z" style="stroke-width: 0px;"/>
            <path id="path5272-5" data-name="path5272" d="m941.56,255.39c-11.12-1.97-17.89-5.77-22.96-12.89-2.7-3.79-2.81-4.18-1.17-4.18.99,0,2.92-.96,4.29-2.14,6.98-6.01-1.03-19.06-19.32-31.43-12.78-8.65-16.93-15.98-16.02-28.28.44-5.99,3.84-18.71,4.75-17.8.18.18-.3,3.34-1.08,7.01-1.78,8.38-1.13,15.61,1.99,22.3,2.78,5.97,3.23,5.4,4.72-6.03,1.17-8.99,4.17-17.65,12.49-36.08,7.38-16.36,10.64-25.49,12.73-35.76l1.52-7.49,5.78,4.43c6.87,5.26,11.29,6.91,16.6,6.19,4.08-.56,23.84-10.26,26.78-13.15,1.68-1.65,1.78-1.47,5.49,9.71,5.01,15.11,6.41,18.5,15.26,37.04,4.28,8.97,8.55,19.43,9.89,24.24,1.29,4.65,2.51,8.96,2.7,9.58.19.62,1.76,1.12,3.5,1.12,2.67,0,3.26-.38,3.84-2.47,1.39-4.97.64-17.47-1.39-23.05-2.47-6.79-1.75-7.7,1.05-1.32,3.22,7.34,4.55,13.96,4.41,22l-.12,7.28,4.36,2.04c7.87,3.69,12.99,10.18,11.16,14.15-.58,1.25-.79.98-1.05-1.29-.59-5.28-9.75-11.64-19.9-13.81-3.9-.84-5.04-.74-7.92.67-2.22,1.08-3.67,2.57-4.26,4.36-.49,1.49-2.98,4.72-5.53,7.18-5.64,5.44-7.03,9.59-8.41,25.12-1.07,11.96-3.17,20.95-5.3,22.68-2.82,2.28-15.89,8.13-20.25,9.07-6.87,1.47-13.92,1.86-18.61,1.03h0Z" style="fill: #ffb046; stroke: #000; stroke-miterlimit: 3.2; stroke-width: 4.58px;"/>
            <path id="path5274" d="m993.29,278.7c-3.77-1.16-8.98-7.1-10.19-11.6-1.15-4.28-.32-9.86,3.61-24.28,1.49-5.45,2.97-13.96,3.51-20.2,1.12-12.86,2.06-16.56,5.1-20.17,2.67-3.17,3.93-3.46,3.93-.89,0,2.74,3.22,8.52,5.93,10.65,4.58,3.6,13.93,1.88,20.68-3.82,2.24-1.89,3.76-2.38,7.36-2.38,6.7,0,8.62,2.08,11.65,12.57,1.81,6.26,3.45,9.84,6.19,13.46,8.17,10.82,7.43,12.74-7.94,20.71-9.06,4.7-12.44,7.07-19.38,13.59-4.62,4.35-10.49,8.95-13.02,10.24-5.1,2.58-12.85,3.52-17.41,2.11h0Z" style="fill: #ffbc00; stroke: #000; stroke-miterlimit: 3.2; stroke-width: 4.58px;"/>
            <path id="path5276" d="m898.79,275.95c-2.67-.46-8.73-2.5-13.46-4.53-8.19-3.51-10.68-4.09-30.8-7.18-8-1.23-10.57-3.25-10.57-8.32,0-2.11.61-5.81,1.35-8.24,1.13-3.7,1.18-5.8.32-13.08-1.37-11.53-.36-13.47,9.01-17.38,7.17-2.99,8.18-3.78,15.18-11.94,4.36-5.08,5.07-5.55,8.35-5.55,7.42,0,10.13,2.67,18.98,18.69,3.62,6.55,9.72,15.95,13.56,20.88,8.1,10.4,12.24,17.78,12.24,21.83,0,1.57-.91,4.66-2.02,6.87-3.44,6.83-11.64,9.77-22.14,7.96h0Z" style="fill: #ffbc00; stroke: #000; stroke-miterlimit: 3.2; stroke-width: 4.58px;"/>
            <path id="path5296-5" data-name="path5296" d="m941.44,110.82c-2.85-.37-6.79-2.54-10.39-5.71-1-.88-2.83-2.28-4.07-3.09-4.28-2.83-5.82-4.34-7.09-6.88-.63-1.27-.66-1.4-.66-2.78,0-1.66.29-2.48,1.27-3.56.32-.36,2.24-1.89,4.26-3.41s4.49-3.49,5.5-4.39c3.26-2.91,5.19-4.2,7.63-5.09,1.97-.72,3.27-.94,5.53-.94,4.3,0,7.23.95,12.94,4.19,2.67,1.51,3.65,1.94,9.2,4,5.63,2.09,7.41,3.3,8.6,5.87.58,1.25.6,3.14.05,4.59-.44,1.16-1.44,2.74-2.44,3.84-1.84,2.03-5.5,4.3-8.97,5.55-1.72.62-3.7,1.64-6.07,3.13-1.61,1.01-5.55,2.83-8.61,3.98-2.21.83-4.16,1.04-6.66.71h0Zm2.23-7.62c3.61-.36,6.47-1.32,11.65-3.88,4.21-2.08,5.91-3.09,8.39-4.96,4.31-3.25,6-5.58,4.04-5.58-.44,0-.68.12-1.07.53-.27.29-.84.89-1.25,1.33-.9.96-5.24,4.15-7.57,5.56-3.5,2.11-8.05,4.1-11.36,4.95-1.72.44-2.05.48-4.66.48-3.15,0-4.41-.24-6.99-1.33-3.71-1.57-9-5.69-10.74-8.39-.69-1.07-1.18-1.39-1.75-1.17-.21.08-.24.28-.19,1.02.08,1.15.51,1.7,3,3.93,4.26,3.79,7.95,5.96,11.87,6.97,2.66.69,3.98.79,6.61.53h0Zm-5.77-21.94c.55-.29,1.23-.58,1.5-.64.6-.13,1.05-.59.92-.93-.4-1.04-3.8-.54-4.71.68-.38.51-.24.91.41,1.19.69.3.74.29,1.87-.31h0Zm12.91.3c.45-.19.55-.32.55-.69,0-.53-.27-.8-1.26-1.3-.82-.41-2.41-.58-3.06-.33-.92.36-.64,1.08.56,1.44.37.11.86.34,1.09.5.89.63,1.34.72,2.12.39h0Z" style="fill: #ff942a; stroke: #000; stroke-miterlimit: 3.2; stroke-width: .81px;"/>
            <path id="path5298-5" data-name="path5298" d="m935.11,250.89c-6.07-2.13-12-6.05-13.55-8.95-.73-1.36-.38-2.11,1.81-3.95,7.44-6.26,2.11-18.88-12.86-30.44-3.84-2.96-8.99-6.94-11.46-8.83l-4.48-3.45,1.79-1.94c1.2-1.29,2.15-4.31,2.86-9.1,1.5-10.06,3.66-16.59,11.39-34.58,8.15-18.94,11.17-27.08,13.24-35.66l1.57-6.48,2.83,2.12c5.65,4.23,10.72,6.25,15.62,6.2,3.95-.03,6.67-1.01,16.81-6,6.66-3.28,12.31-5.96,12.57-5.96s.47.41.47.91c0,2.43,8.92,25.05,15.82,40.11,4.25,9.28,9.23,21.49,11.07,27.13l3.34,10.25-3.67,3.81c-8.77,9.12-13.32,15.56-14.94,21.15-.48,1.65-1.48,8.25-2.22,14.67-.75,6.42-1.97,13.81-2.72,16.42-1.58,5.5-3.17,6.74-14.31,11.1-5.92,2.32-8.76,2.88-16.16,3.17-7.64.3-9.85.05-14.81-1.7h0Z" style="fill: url(#linear-gradient-6); stroke: #000; stroke-miterlimit: 3.2; stroke-width: 4.58px;"/>
          </g>
        </g>
      </g>
    </g>
  </g>
</svg>