<?xml version="1.0" encoding="UTF-8"?>
<svg xmlns="http://www.w3.org/2000/svg" width="1900" height="300" xmlns:xlink="http://www.w3.org/1999/xlink" viewBox="0 0 1900 300">
  <defs>
    <linearGradient id="linear-gradient" x1="953.08" y1="11.55" x2="953.08" y2="320.06" gradientUnits="userSpaceOnUse">
      <stop offset="0" stop-color="#223654"/>
      <stop offset=".07" stop-color="#213450"/>
      <stop offset=".54" stop-color="#1d283e"/>
      <stop offset=".87" stop-color="#1c2538"/>
    </linearGradient>
    <linearGradient id="linear-gradient-2" x1="763.11" y1="136.84" x2="763.11" y2="-145.58" gradientUnits="userSpaceOnUse">
      <stop offset="0" stop-color="#2a59be"/>
      <stop offset=".47" stop-color="#1c2538" stop-opacity="0"/>
    </linearGradient>
    <linearGradient id="linear-gradient-3" x1="971.58" y1="89.62" x2="971.58" y2="244.75" gradientUnits="userSpaceOnUse">
      <stop offset="0" stop-color="#02adef"/>
      <stop offset="1" stop-color="#1c2538" stop-opacity="0"/>
    </linearGradient>
    <filter id="outer-glow-1" filterUnits="userSpaceOnUse">
      <feOffset dx="0" dy="0"/>
      <feGaussianBlur result="blur" stdDeviation="68"/>
      <feFlood flood-color="#2a59be" flood-opacity="1"/>
      <feComposite in2="blur" operator="in"/>
      <feComposite in="SourceGraphic"/>
    </filter>
    <linearGradient id="linear-gradient-4" x1="966.21" y1="114.67" x2="966.21" y2="305.05" xlink:href="#linear-gradient-3"/>
    <linearGradient id="linear-gradient-5" x1="945.54" y1="73.02" x2="945.54" y2="299.8" gradientUnits="userSpaceOnUse">
      <stop offset="0" stop-color="#2a59be"/>
      <stop offset=".94" stop-color="#1c2538" stop-opacity="0"/>
    </linearGradient>
  </defs>
  <g id="Layer_2" data-name="Layer 2">
    <rect x="-37" y="-22.7" width="1980.16" height="374.05" style="fill: url(#linear-gradient);"/>
  </g>
  <g id="Layer_1" data-name="Layer 1">
    <path d="m-11.52,227.39c300-121.21,690.69-29.04,1042.42,19.7,381.82,52.91,869.09-90.91,869.09-90.91h32.42v168.18H-11.52v-96.97Z" style="fill: #151c2b;"/>
    <path d="m-73.76,47.85C208.3-7.92,499.85,33.81,770.06,93.54s621.01-1.9,815.37-134.64C1779.8-173.84-37-22.7-37-22.7l-36.76,70.54Z" style="fill: #1c2538;"/>
    <path d="m1570.55-78.68c-196.99,125.91-537.04,183.04-800.49,124.81C508.58-11.66,227.12-52.61-46.39-4.65l-27.36,52.5C208.31-7.92,499.85,33.81,770.06,93.54c270.21,59.72,621.01-1.9,815.37-134.64,24.54-16.76,17-28.99-14.89-37.58Z" style="fill: url(#linear-gradient-2);"/>
    <path d="m0,260.49s317.79-82.43,523.03-51.54c342.35,51.54,676.01,48.92,919.28-26.66,312.58-97.11,490.11-26.11,490.11-26.11l10.74-83.78s-367.71,13.6-574.82,77.6-627.65,20.54-841.09,0C313.81,129.46,0,240.27,0,240.27v20.21Z" style="fill: url(#linear-gradient-3);"/>
    <g id="Active_Directory" data-name="Active Directory" style="filter: url(#outer-glow-1);">
      <path d="m1300.87,51.23l116.06-15.8.05,111.95-116,.66-.11-96.8h0Zm116,109.04l.09,112.05-116-15.95v-96.85s115.91.75,115.91.75h0Zm14.07-126.91l153.88-22.46v135.05l-153.88,1.22V33.36h0Zm153.92,127.97l-.04,134.44-153.88-21.72-.22-112.98,154.14.25Z" style="fill: #00adef;"/>
    </g>
    <g id="Artwork_35" data-name="Artwork 35">
      <g>
        <path id="cloud" d="m1574.96,253.19c-.76-3.95-4.28-6.95-8.49-6.95h-1.52c-1.14-5.65-6.09-9.79-11.92-9.79s-10.81,4.16-11.94,9.83c-4.33.46-7.71,4.1-7.71,8.51,0,4.73,3.88,8.56,8.64,8.56h12.79c.67-.02,1.21-.59,1.17-1.27-.02-.64-.53-1.16-1.17-1.17h-12.79c-3.42,0-6.19-2.75-6.19-6.11s2.78-6.11,6.19-6.11c1.26,0,2.5.38,3.53,1.12.49.35,1.16.3,1.58-.12h0c.48-.47.48-1.24,0-1.72h0c-.05-.06-.1-.1-.15-.14-1.02-.73-2.19-1.22-3.42-1.44,1.05-4.34,4.91-7.48,9.45-7.48,4.8,0,8.86,3.51,9.6,8.24-.38.2-.76.42-1.11.67-.55.39-.68,1.16-.3,1.71.04.06.08.11.14.16h0c.42.42,1.09.47,1.58.12,1.03-.73,2.27-1.13,3.53-1.12,3.02,0,5.53,2.14,6.08,4.96.11.57.61,1,1.21,1h0c.67,0,1.22-.53,1.23-1.21h0c.02-.08.02-.17,0-.25Z" style="fill: #fff;"/>
        <g id="numbers">
          <path d="m1559.72,261.37h-1.05v-3.35s.02-.52.02-.52c-.12.12-.24.23-.37.34l-.57.46-.51-.63,1.6-1.28h.86l.02,4.97Z" style="fill: #fff;"/>
          <path d="m1564.56,258.88c0,.87-.14,1.52-.43,1.93s-.73.62-1.32.62-1.01-.22-1.3-.65-.44-1.07-.44-1.91.14-1.52.42-1.95.72-.62,1.31-.62,1.01.22,1.3.65c.31.44.45,1.08.45,1.92Zm-2.43,0c0,.61.06,1.05.16,1.32s.29.4.53.4.42-.14.53-.4.16-.7.16-1.32-.06-1.05-.17-1.32-.29-.4-.53-.4-.42.14-.53.4-.16.7-.16,1.32Z" style="fill: #fff;"/>
          <path d="m1559.72,268.93h-1.05v-3.35s.02-.52.02-.52c-.12.12-.24.23-.37.34l-.57.46-.51-.63,1.6-1.28h.86l.02,4.97Z" style="fill: #fff;"/>
          <path d="m1563.7,268.93h-1.05v-3.35s.02-.52.02-.52c-.12.12-.24.23-.37.34l-.57.46-.51-.63,1.6-1.28h.86v4.97h.02Z" style="fill: #fff;"/>
          <path d="m1567.69,268.93h-1.05v-3.35s.02-.52.02-.52c-.12.12-.24.23-.37.34l-.57.46-.51-.63,1.6-1.28h.86l.02,4.97Z" style="fill: #fff;"/>
          <path d="m1572.52,266.44c0,.87-.14,1.52-.43,1.93s-.73.63-1.32.63-1.01-.22-1.3-.65-.44-1.07-.44-1.92.14-1.52.42-1.95.72-.62,1.31-.62,1.01.22,1.3.65c.31.43.46,1.07.45,1.92Zm-2.43,0c0,.61.06,1.05.16,1.32s.28.4.53.4.42-.14.53-.4.16-.7.16-1.31-.06-1.05-.17-1.32-.29-.4-.53-.4-.42.14-.53.4-.16.69-.16,1.31Z" style="fill: #fff;"/>
          <path d="m1574.8,272.42c0,.63-.1,1.1-.31,1.4s-.53.45-.96.45-.73-.16-.94-.47-.32-.77-.32-1.39.1-1.11.31-1.41c.21-.3.53-.45.96-.45s.73.16.95.48.32.78.31,1.39Zm-1.77,0c0,.45.04.77.11.96.05.18.21.29.39.29s.3-.1.38-.3.12-.51.12-.95-.04-.77-.12-.96-.21-.3-.38-.3-.31.1-.38.3-.12.51-.12.96h0Z" style="fill: #fff;"/>
          <path d="m1577.08,274.23h-.77v-2.44s.02-.38.02-.38c-.13.13-.22.21-.26.25l-.42.34-.37-.46,1.17-.93h.63v3.62h0Z" style="fill: #fff;"/>
          <path d="m1559.5,272.46c0,.62-.1,1.08-.3,1.37s-.52.45-.94.45-.72-.15-.93-.46-.31-.76-.31-1.36.1-1.09.3-1.38.51-.45.93-.45.72.15.93.46.32.77.32,1.36Zm-1.73,0c0,.43.04.75.11.93.05.17.21.29.38.28.18,0,.3-.1.38-.29s.12-.5.12-.93-.04-.75-.12-.93-.2-.29-.38-.29-.3.1-.38.29-.13.5-.12.94h0Z" style="fill: #fff;"/>
          <path d="m1561.73,274.23h-.75v-2.39s.02-.37.02-.37c-.13.13-.21.21-.26.25l-.41.33-.36-.45,1.14-.91h.61v3.54Z" style="fill: #fff;"/>
          <path d="m1565.17,272.46c0,.62-.1,1.08-.3,1.37s-.52.45-.94.45-.72-.15-.93-.46-.31-.76-.31-1.36.1-1.09.3-1.38.51-.45.93-.45.72.15.93.46.32.77.32,1.36Zm-1.73,0c0,.43.04.75.11.93.05.17.21.29.38.28.18,0,.3-.1.38-.29s.12-.5.12-.93-.04-.75-.12-.93-.21-.29-.38-.29-.3.1-.38.29-.13.5-.12.94h0Z" style="fill: #fff;"/>
          <path d="m1567.4,274.23h-.75v-2.39s.02-.37.02-.37c-.13.13-.22.21-.26.25l-.41.33-.36-.45,1.14-.91h.61v3.54Z" style="fill: #fff;"/>
          <path d="m1558.75,276.98c0,.45-.07.77-.22.99s-.37.32-.68.32c-.26.02-.52-.11-.66-.34-.15-.22-.22-.55-.22-.98,0-.45.07-.78.22-1s.37-.32.67-.32c.26-.02.52.11.67.34.14.23.22.56.22.99Zm-1.25,0c0,.31.02.53.08.67.04.15.19.23.34.19h0c.1-.02.17-.1.19-.19.06-.14.08-.36.08-.67,0-.23-.02-.46-.09-.68-.04-.14-.19-.23-.34-.2h-.02c-.1.02-.17.1-.19.19-.06.23-.08.45-.07.69Z" style="fill: #fff;"/>
          <path d="m1560.36,278.25h-.54v-1.72s.02-.26.02-.26c-.09.09-.15.15-.18.18l-.3.23-.26-.32.82-.65h.44v2.55Z" style="fill: #fff;"/>
          <path d="m1565.84,280.16c0,.45-.07.77-.22.99s-.38.32-.68.32c-.26.02-.52-.11-.66-.34-.15-.22-.22-.55-.22-.98s.07-.78.22-1,.37-.32.67-.32c.26-.02.52.11.67.34.16.23.23.56.23.99Zm-1.25,0c0,.31.02.53.08.67.04.14.19.23.34.2h.02c.1-.02.17-.1.19-.19.06-.14.08-.36.08-.67,0-.23-.02-.46-.09-.68-.03-.12-.14-.21-.27-.21s-.24.08-.27.21c-.05.13-.07.35-.07.67Z" style="fill: #fff;"/>
          <path d="m1567.45,281.44h-.54v-1.72s.02-.26.02-.26c-.09.09-.15.15-.18.18l-.3.24-.26-.33.82-.65h.45v2.55Z" style="fill: #fff;"/>
          <path d="m1571.69,276.48c0,.62-.1,1.08-.3,1.37s-.52.45-.94.45-.72-.15-.93-.46-.31-.76-.31-1.36.1-1.09.3-1.38.51-.45.93-.45.72.15.93.46.32.77.32,1.36Zm-1.73,0c0,.44.04.75.11.93.05.17.21.29.38.28.18,0,.3-.1.38-.29s.12-.5.12-.93-.04-.75-.12-.94-.21-.29-.38-.29-.3.1-.38.29-.11.52-.11.95h0Z" style="fill: #fff;"/>
          <path d="m1573.93,278.25h-.75v-2.39s.02-.37.02-.37c-.13.13-.21.21-.26.25l-.41.33-.36-.45,1.14-.91h.61v3.54h0Z" style="fill: #fff;"/>
          <path d="m1577.37,276.48c0,.62-.1,1.08-.3,1.37s-.52.45-.94.45-.72-.15-.93-.46-.31-.76-.31-1.36.1-1.09.3-1.38.51-.45.93-.45.72.15.93.46.32.77.32,1.36Zm-1.73,0c0,.44.04.75.11.93.05.17.21.29.38.28.18,0,.3-.1.38-.29s.12-.5.12-.93-.04-.75-.12-.94-.21-.29-.38-.29-.3.1-.38.29-.12.52-.12.95h0Z" style="fill: #fff;"/>
          <path d="m1571.92,261.37h-1.05v-3.35s.02-.52.02-.52c-.12.12-.24.23-.37.34l-.57.46-.51-.63,1.6-1.28h.87v4.97h0Z" style="fill: #fff;"/>
          <path d="m1576.76,258.88c0,.87-.14,1.52-.43,1.93s-.73.62-1.32.62-1.01-.22-1.3-.65-.44-1.07-.44-1.91.14-1.52.42-1.95.72-.62,1.31-.62,1.01.22,1.3.65.45,1.08.45,1.92Zm-2.44,0c0,.61.06,1.05.16,1.32s.29.4.53.4.42-.14.53-.4.16-.7.16-1.32-.06-1.05-.17-1.32-.29-.4-.53-.4-.42.14-.53.4-.16.7-.16,1.32h0Z" style="fill: #fff;"/>
        </g>
      </g>
    </g>
    <path d="m0,186.52c220.83-120.46,673.42-59.97,837.91,12.68,228.24,100.8,518.82,114.51,682.59,50.72,200.76-78.19,411.92-156.38,411.92-156.38v230.83H0v-137.84Z" style="fill: url(#linear-gradient-4);"/>
    <path d="m-4.97,137.03c345.78-200.59,906.88,55.41,1116.14,88.9,360.49,57.69,796.39-178.08,796.39-178.08v274.95H-16.48L-4.97,137.03Z" style="fill: url(#linear-gradient-5);"/>
  </g>
</svg>