<?xml version="1.0" encoding="UTF-8"?>
<svg id="Layer_14" data-name="Layer 14" xmlns="http://www.w3.org/2000/svg" width="600" height="600" xmlns:xlink="http://www.w3.org/1999/xlink" viewBox="0 0 600 600">
  <defs>
    <linearGradient id="linear-gradient" x1="96.37" y1="227" x2="-17.43" y2="302.11" gradientTransform="matrix(1, 0, 0, 1, 0, 0)" gradientUnits="userSpaceOnUse">
      <stop offset="0" stop-color="#9da8c4"/>
      <stop offset=".57" stop-color="#4f5669"/>
      <stop offset="1" stop-color="#444b5c"/>
    </linearGradient>
    <linearGradient id="linear-gradient-2" x1="30.35" y1="122.61" x2="416.3" y2="122.61" xlink:href="#linear-gradient"/>
    <linearGradient id="linear-gradient-3" x1="40.33" y1="255.36" x2="418.87" y2="255.36" xlink:href="#linear-gradient"/>
    <linearGradient id="linear-gradient-4" x1="204.47" y1="271.26" x2="286.25" y2="364.86" xlink:href="#linear-gradient"/>
    <linearGradient id="linear-gradient-5" x1="196.46" y1="470.59" x2="37.51" y2="361.12" xlink:href="#linear-gradient"/>
    <linearGradient id="linear-gradient-6" x1="399.16" y1="516.69" x2="399.16" y2="334.17" xlink:href="#linear-gradient"/>
    <linearGradient id="linear-gradient-7" x1="50.63" y1="326.32" x2="200.23" y2="331.9" gradientTransform="translate(3.77 -26.66) rotate(.94)" gradientUnits="userSpaceOnUse">
      <stop offset=".28" stop-color="#fff" stop-opacity="0"/>
      <stop offset="1" stop-color="#fff"/>
    </linearGradient>
    <linearGradient id="linear-gradient-8" x1="30.85" y1="216.27" x2="156.06" y2="216.27" gradientTransform="translate(2.5 -21.61) rotate(.77)" gradientUnits="userSpaceOnUse">
      <stop offset=".22" stop-color="#16243a" stop-opacity="0"/>
      <stop offset="1" stop-color="#000"/>
    </linearGradient>
    <linearGradient id="linear-gradient-9" x1="30.87" y1="193.59" x2="156.03" y2="193.59" gradientTransform="translate(2.5 -21.61) rotate(.77)" gradientUnits="userSpaceOnUse">
      <stop offset=".22" stop-color="#16243a" stop-opacity="0"/>
      <stop offset=".99" stop-color="#16243a"/>
    </linearGradient>
    <linearGradient id="linear-gradient-10" x1="30.65" y1="166.29" x2="163.38" y2="166.29" gradientTransform="translate(2.5 -21.61) rotate(.77)" gradientUnits="userSpaceOnUse">
      <stop offset=".22" stop-color="#16243a" stop-opacity="0"/>
      <stop offset=".9" stop-color="#132238"/>
    </linearGradient>
    <linearGradient id="linear-gradient-11" x1="52.49" y1="239.87" x2="188.53" y2="239.87" gradientTransform="translate(3.77 -26.66) rotate(.94)" gradientUnits="userSpaceOnUse">
      <stop offset=".22" stop-color="#16243a" stop-opacity="0"/>
      <stop offset="1" stop-color="#525e72"/>
    </linearGradient>
    <linearGradient id="linear-gradient-12" x1="51.97" y1="261.67" x2="183.54" y2="261.67" gradientTransform="translate(3.77 -26.66) rotate(.94)" gradientUnits="userSpaceOnUse">
      <stop offset=".28" stop-color="#16243a" stop-opacity="0"/>
      <stop offset="1" stop-color="#16243a"/>
    </linearGradient>
  </defs>
  <rect x="-10" y="-7.5" width="622" height="613.5" style="fill: #192740; stroke: #000; stroke-miterlimit: 10; stroke-width: .57px;"/>
  <path d="M35.35,393.39l-25.49,3.39c-3.65,.48-4.23,5.52-.78,6.82l190.23,71.88c.59,.22,1.23,.28,1.85,.18l344.6-59.23c3.74-.64,3.98-5.93,.31-6.91l-187.82-50.09c-.42-.11-.85-.15-1.29-.1L35.35,393.39" style="fill: #13071c; opacity: .38;"/>
  <g>
    <path d="M43.14,124.71l-12.86,5.78-2.32,251.09c-.08,8.37,5.31,15.96,13.36,18.23,1.25,.35,2.62,.67,4.1,.93l-2.28-276.03Z" style="fill: url(#linear-gradient);"/>
    <path d="M30.39,131.59s-.97-12.43,7.52-14.17c12.19-2.49,363.36-9.87,363.36-9.87,0,0,10.02,0,15.04,5.01L52.83,126.6c-4.82,.18-12.42-1.08-9.92,11.06" style="fill: url(#linear-gradient-2);"/>
    <path d="M418.86,119.61l-10.76,227.75c-.22,4.45-3.17,8.06-7.01,8.53L49.08,400.6c-4.69,.59-8.77-3.64-8.75-9.06l1.08-259.69c.02-4.89,3.39-8.89,7.64-9.02l37.83-1.34,9.95-.35,62.65-2.21,21.71-.77,217.75-7.68h.04l11.76-.41c4.61-.16,8.37,4.26,8.12,9.56Z" style="fill: url(#linear-gradient-3);"/>
    <path d="M411.81,128.93l-.39,7.92-2.7,55.76-1.89,38.77-1.83,37.85-3.51,72.07c-.22,4.14-3.05,7.51-6.76,7.96l-85.15,10.5-119.41,14.72-76.98,9.48-56.62,6.97c-4.49,.55-8.43-3.39-8.41-8.45l.04-10.7,.35-83.89,.65-147.57c.02-4.55,3.27-8.27,7.35-8.41l110.33-3.78,144.12-4.93,73.86-2.54,19.15-.65c4.45-.16,8.06,3.96,7.8,8.92Z" style="fill: #a3ea2a;"/>
  </g>
  <polygon points="37.91 384.6 219.85 449.84 579.14 396.1 413.54 338.94 37.91 384.6" style="fill: url(#linear-gradient-4);"/>
  <polygon points="37.74 382.1 39.24 399.27 220.04 464.59 219.85 449.74 37.74 382.1" style="fill: url(#linear-gradient-5);"/>
  <path d="M220.91,464.7l349.69-55.92c3.87-.62,7.03-3.42,8.1-7.19l.75-2.61c.53-1.85-1.03-3.63-2.94-3.34l-355.64,53.76c-.82,.12-1.46,.79-1.56,1.61l-.54,11.64c-.14,1.22,.92,2.24,2.13,2.04Z" style="fill: url(#linear-gradient-6);"/>
  <path d="M182.15,419.78l-14.88-6.03c-.46-.19-.37-.87,.12-.94l27.75-3.96c.09-.01,.17,0,.25,.03l17.06,5.79c.47,.19,.38,.88-.12,.94l-29.92,4.2c-.08,.01-.17,0-.25-.03Z" style="opacity: .19;"/>
  <path d="M219.56,415.69l-14.88-6.03c-.46-.19-.37-.87,.12-.94l27.75-3.96c.09-.01,.17,0,.25,.03l17.06,5.79c.47,.19,.38,.88-.12,.94l-29.92,4.2c-.08,.01-.17,0-.25-.03Z" style="opacity: .19;"/>
  <path d="M257.98,411.12l-14.88-6.03c-.46-.19-.37-.87,.12-.94l152.23-20.16c.09-.01,.17,0,.25,.03l17.06,5.79c.47,.19,.38,.88-.12,.94l-154.41,20.4c-.08,.01-.17,0-.25-.03Z" style="opacity: .19;"/>
  <path d="M159.6,411.31l-16.55-4.95c-1.01-.3-.92-1.76,.12-1.93l48.56-8.05c.14-.02,.29-.02,.43,.02l18.24,5.01c1.03,.28,.95,1.77-.11,1.94l-50.25,7.99c-.15,.02-.3,.01-.44-.03Z" style="opacity: .19;"/>
  <path d="M137.5,402.89l-18.09-5.52c-.68-.21-.61-1.2,.09-1.31l46.62-7.37c.1-.02,.2,0,.3,.02l15.44,4.68c.67,.2,.62,1.18-.07,1.3l-43.97,8.2c-.11,.02-.22,.01-.32-.02Z" style="opacity: .19;"/>
  <path d="M115.53,394.97l-17.23-5c-.55-.16-.49-.95,.08-1.03l28.35-3.87c.07-.01,.15,0,.22,.02l15.87,4.67c.54,.16,.49,.94-.07,1.02l-26.99,4.2c-.08,.01-.15,0-.23-.01Z" style="opacity: .19;"/>
  <path d="M150.64,389.66l-17.23-5c-.55-.16-.49-.95,.08-1.03l28.35-3.87c.07-.01,.15,0,.22,.02l15.87,4.67c.54,.16,.49,.94-.07,1.02l-26.99,4.2c-.08,.01-.15,0-.23-.01Z" style="opacity: .19;"/>
  <path d="M191.21,394.3l-17.23-5c-.55-.16-.49-.95,.08-1.03l28.35-3.87c.07-.01,.15,0,.22,.02l15.87,4.67c.54,.16,.49,.94-.07,1.02l-26.99,4.2c-.08,.01-.15,0-.23-.01Z" style="opacity: .19;"/>
  <path d="M220.05,402.37l-17.23-5c-.55-.16-.49-.95,.08-1.03l28.35-3.87c.07-.01,.15,0,.22,.02l15.87,4.67c.54,.16,.49,.94-.07,1.02l-26.99,4.2c-.08,.01-.15,0-.23-.01Z" style="opacity: .19;"/>
  <path d="M255.46,398.57l-17.23-5c-.55-.16-.49-.95,.08-1.03l28.35-3.87c.07-.01,.15,0,.22,.02l15.87,4.67c.54,.16,.49,.94-.07,1.02l-26.99,4.2c-.08,.01-.15,0-.23-.01Z" style="opacity: .19;"/>
  <path d="M290.05,394.26l-17.23-5c-.55-.16-.49-.95,.08-1.03l28.35-3.87c.07-.01,.15,0,.22,.02l15.87,4.67c.54,.16,.49,.94-.07,1.02l-26.99,4.2c-.08,.01-.15,0-.23-.01Z" style="opacity: .19;"/>
  <path d="M325.13,389.95l-17.23-5c-.55-.16-.49-.95,.08-1.03l28.35-3.87c.07-.01,.15,0,.22,.02l15.87,4.67c.54,.16,.49,.94-.07,1.02l-26.99,4.2c-.08,.01-.15,0-.23-.01Z" style="opacity: .19;"/>
  <path d="M361.71,386.01l-17.23-5c-.55-.16-.49-.95,.08-1.03l28.35-3.87c.07-.01,.15,0,.22,.02l15.87,4.67c.54,.16,.49,.94-.07,1.02l-26.99,4.2c-.08,.01-.15,0-.23-.01Z" style="opacity: .19;"/>
  <path d="M397.96,382.06l-17.23-5c-.55-.16-.49-.95,.08-1.03l28.35-3.87c.07-.01,.15,0,.22,.02l15.87,4.67c.54,.16,.49,.94-.07,1.02l-26.99,4.2c-.08,.01-.15,0-.23-.01Z" style="opacity: .19;"/>
  <path d="M420.61,391.01l-17.23-5c-.55-.16-.49-.95,.08-1.03l28.35-3.87c.07-.01,.15,0,.22,.02l15.87,4.67c.54,.16,.49,.94-.07,1.02l-26.99,4.2c-.08,.01-.15,0-.23-.01Z" style="opacity: .19;"/>
  <path d="M454.71,386.36l-17.23-5c-.55-.16-.49-.95,.08-1.03l43.08-7.08c.07-.01,.15,0,.22,.02l15.87,4.67c.54,.16,.49,.94-.07,1.02l-41.72,7.41c-.08,.01-.15,0-.23-.01Z" style="opacity: .19;"/>
  <path d="M431.88,377.74l-17.23-5c-.55-.16-.49-.95,.08-1.03l47.72-5.99c.07-.01,.15,0,.22,.02l15.87,4.67c.54,.16,.49,.94-.07,1.02l-46.36,6.32c-.08,.01-.15,0-.23-.01Z" style="opacity: .19;"/>
  <path d="M228.45,390.54l-17.23-5c-.55-.16-.49-.95,.08-1.03l28.35-3.87c.07-.01,.15,0,.22,.02l15.87,4.67c.54,.16,.49,.94-.07,1.02l-26.99,4.2c-.08,.01-.15,0-.23-.01Z" style="opacity: .19;"/>
  <path d="M261.45,385.59l-17.12-5.36c-.54-.17-.47-.96,.1-1.02l28.42-3.28c.07,0,.15,0,.22,.02l15.76,5c.54,.17,.47,.95-.09,1.02l-27.07,3.64c-.08,.01-.15,0-.23-.02Z" style="opacity: .19;"/>
  <path d="M296.01,382.44l-17.12-5.36c-.54-.17-.47-.96,.1-1.02l28.42-3.28c.07,0,.15,0,.22,.02l15.76,5c.54,.17,.47,.95-.09,1.02l-27.07,3.64c-.08,.01-.15,0-.23-.02Z" style="opacity: .19;"/>
  <path d="M329.42,378.6l-17.12-5.36c-.54-.17-.47-.96,.1-1.02l28.42-3.28c.07,0,.15,0,.22,.02l15.76,5c.54,.17,.47,.95-.09,1.02l-27.07,3.64c-.08,.01-.15,0-.23-.02Z" style="opacity: .19;"/>
  <path d="M363.66,375.11l-17.12-5.36c-.54-.17-.47-.96,.1-1.02l28.42-3.28c.07,0,.15,0,.22,.02l15.76,5c.54,.17,.47,.95-.09,1.02l-27.07,3.64c-.08,.01-.15,0-.23-.02Z" style="opacity: .19;"/>
  <path d="M396.23,371.43l-17.12-5.36c-.54-.17-.47-.96,.1-1.02l28.42-3.28c.07,0,.15,0,.22,.02l15.76,5c.54,.17,.47,.95-.09,1.02l-27.07,3.64c-.08,.01-.15,0-.23-.02Z" style="opacity: .19;"/>
  <path d="M428.65,366.9l-17.12-5.36c-.54-.17-.47-.96,.1-1.02l30.43-3.74c.07,0,.15,0,.22,.02l15.76,5c.54,.17,.47,.95-.09,1.02l-29.08,4.1c-.08,.01-.15,0-.23-.02Z" style="opacity: .19;"/>
  <path d="M184.23,384.83l-17.23-5c-.55-.16-.49-.95,.08-1.03l28.35-3.87c.07-.01,.15,0,.22,.02l15.87,4.67c.54,.16,.49,.94-.07,1.02l-26.99,4.2c-.08,.01-.15,0-.23-.01Z" style="opacity: .19;"/>
  <path d="M216.58,380.56l-17.15-5.26c-.54-.17-.47-.96,.09-1.03l28.4-3.44c.07,0,.15,0,.22,.02l15.79,4.91c.54,.17,.47,.95-.08,1.02l-27.05,3.79c-.08,.01-.15,0-.23-.02Z" style="opacity: .19;"/>
  <path d="M251.36,377.13l-17.02-5.67c-.54-.18-.45-.97,.12-1.02l28.48-2.76c.07,0,.15,0,.22,.03l15.67,5.28c.53,.18,.45,.96-.11,1.02l-27.13,3.15c-.08,0-.15,0-.23-.02Z" style="opacity: .19;"/>
  <path d="M286.1,373.82l-17.03-5.65c-.54-.18-.45-.97,.11-1.02l28.47-2.8c.07,0,.15,0,.22,.02l15.68,5.26c.53,.18,.45,.96-.11,1.02l-27.13,3.18c-.08,0-.15,0-.23-.02Z" style="opacity: .19;"/>
  <path d="M318.97,369.94l-16.98-5.78c-.54-.18-.44-.97,.12-1.02l28.5-2.57c.07,0,.15,0,.22,.03l15.64,5.39c.53,.18,.44,.96-.11,1.02l-27.15,2.97c-.08,0-.15,0-.23-.02Z" style="opacity: .19;"/>
  <path d="M352.79,366.53l-17.08-5.49c-.54-.17-.46-.96,.1-1.02l28.45-3.06c.07,0,.15,0,.22,.02l15.73,5.11c.53,.17,.46,.95-.1,1.02l-27.1,3.44c-.08,0-.15,0-.23-.02Z" style="opacity: .19;"/>
  <path d="M387.86,362.04l-17.06-5.55c-.54-.18-.46-.96,.11-1.02l50.53-6.36c.07,0,.15,0,.22,.02l15.71,5.17c.53,.18,.46,.95-.1,1.02l-49.18,6.74c-.08,0-.15,0-.23-.02Z" style="opacity: .19;"/>
  <polygon points="182.73 244.79 57.76 246.36 56.67 350.48 180.47 370.35 182.73 244.79" style="fill: url(#linear-gradient-7);"/>
  <polygon points="155.72 189.42 30.56 186.87 30.73 198.02 155.54 204.92 155.72 189.42" style="fill: url(#linear-gradient-8);"/>
  <polygon points="155.94 158.01 31.12 156.67 30.56 188.42 155.72 189.42 155.94 158.01" style="fill: url(#linear-gradient-9);"/>
  <path d="M163.81,134.02s-129,.55-131.13,2.3c-2.12,1.75-1.88,21.59-1.88,21.59l125.5,.09s-1.6-23.75,7.51-23.99Z" style="fill: url(#linear-gradient-10);"/>
  <polygon points="187.77 210.8 52.31 214.64 52.23 219.5 188.3 218.54 187.77 210.8" style="fill: url(#linear-gradient-11);"/>
  <path d="M155.94,158.91l391.41-13.88,.42-12.43c-.18-4.57-3.94-8.15-8.28-8.08l-375.48,9.45c-4.07,.07-8.02,4.39-8.3,8.68l.23,16.25Z" style="fill: #223654;"/>
  <polygon points="155.94 157.97 155.24 204.95 544.82 187.03 547.2 144.09 155.94 157.97" style="fill: #192740;"/>
  <line x1="252.85" y1="372.43" x2="467.18" y2="352.92" style="fill: none;"/>
  <polygon points="155.24 204.95 155.51 189.42 546.11 173.82 544.82 187.03 155.24 204.95" style="opacity: .37;"/>
  <path d="M278.15,214.89l-89.85,3.65c-2.68,.12-4.95-1.49-4.95-3.51v-.71c0-1.87,1.94-3.42,4.42-3.52l90.3-3.56,.07,7.65Z" style="fill: #727c92;"/>
  <polygon points="182.7 244.83 180.47 370.31 522.21 341.37 530.66 225.89 182.7 244.83" style="fill: #fff;"/>
  <polyline points="185.68 387.58 185.9 397.47 186 387.27 504.74 346.65 504.22 361.71" style="fill: none;"/>
  <line x1="430.71" y1="357.5" x2="270.61" y2="375.96" style="fill: none;"/>
  <polyline points="513.15 220.68 516.87 224.54 519.91 220.28" style="fill: none; stroke: #fff; stroke-linecap: round; stroke-linejoin: round; stroke-width: .84px;"/>
  <path d="M194.97,352.42l-.2,6.75c-.06,1.89,1.54,3.4,3.42,3.25l248.55-20.25c1.57-.13,2.81-1.39,2.9-2.96l.31-5.43c.12-1.92-1.48-3.49-3.4-3.35l-248.67,18.93c-1.62,.12-2.88,1.44-2.93,3.07Z" style="fill: #c1c7d3;"/>
  <path d="M454.78,332.25l-.18,5.4c-.06,1.89,1.54,3.4,3.42,3.25l53.63-3.73c1.57-.13,2.81-1.39,2.9-2.96l.31-5.43c.12-1.92-1.48-3.49-3.4-3.35l-53.77,3.76c-1.62,.12-2.88,1.44-2.93,3.07Z" style="fill: none; stroke: #14890b; stroke-miterlimit: 10; stroke-width: .81px;"/>
  <path d="M195.68,253.29l-.21,6.09c-.03,.88,.7,1.59,1.57,1.55l142.79-7.56c.75-.04,1.36-.63,1.41-1.38l.43-5.92c.07-.9-.67-1.65-1.57-1.6l-143.01,7.39c-.77,.04-1.39,.67-1.42,1.44Z" style="fill: #727c92;"/>
  <path d="M195.42,268.95l-.21,6.09c-.03,.88,.71,1.6,1.59,1.54l213.15-13.13c.75-.05,1.34-.64,1.4-1.38l.43-5.91c.07-.9-.68-1.66-1.58-1.6l-213.37,12.95c-.77,.05-1.38,.67-1.4,1.44Z" style="fill: #727c92;"/>
  <path d="M195.79,287.66l-.21,6.09c-.03,.88,.7,1.6,1.58,1.54l304.58-18.54c.75-.05,1.35-.64,1.4-1.38l.43-5.91c.07-.9-.68-1.66-1.58-1.6l-304.8,18.36c-.77,.05-1.38,.67-1.4,1.44Z" style="fill: #727c92;"/>
  <path d="M195.52,304.17l-.21,6.09c-.03,.88,.7,1.6,1.58,1.54l261.05-15.38c.75-.04,1.35-.64,1.4-1.38l.43-5.91c.07-.9-.68-1.65-1.58-1.6l-261.27,15.2c-.77,.04-1.38,.67-1.41,1.44Z" style="fill: #727c92;"/>
  <path d="M195.26,319.83l-.21,6.09c-.03,.89,.71,1.61,1.6,1.54l124.27-8.66c.74-.05,1.33-.64,1.39-1.38l.43-5.91c.07-.91-.69-1.66-1.59-1.6l-124.49,8.48c-.76,.05-1.37,.67-1.39,1.44Z" style="fill: #7a1123;"/>
  <path d="M195.05,332.97l-.21,6.09c-.03,.89,.71,1.61,1.6,1.54l106.55-7.6c.74-.05,1.33-.64,1.39-1.38l.43-5.91c.07-.91-.69-1.66-1.59-1.6l-106.77,7.43c-.76,.05-1.37,.67-1.39,1.44Z" style="fill: #727c92;"/>
  <path d="M529.73,201.05c.05,2.01-1.52,3.69-3.53,3.77l-248.05,10.07-.07-7.65,247.83-9.78c2.06-.08,3.78,1.54,3.83,3.59Z" style="fill: #d9dde2;"/>
  <polygon points="182.63 245.27 183.04 228.49 531.9 212.73 531.16 226.24 182.63 245.27" style="fill: #223654;"/>
  <polygon points="183.15 228.49 51.5 232.32 51.28 245.33 182.74 245.27 183.15 228.49" style="fill: url(#linear-gradient-12);"/>
</svg>