<?xml version="1.0" encoding="UTF-8"?>
<svg xmlns="http://www.w3.org/2000/svg" width="600" height="600" xmlns:xlink="http://www.w3.org/1999/xlink" viewBox="0 0 600 600">
  <defs>
    <filter id="AI_GaussianBlur_4">
      <feGaussianBlur stdDeviation="4"/>
    </filter>
    <linearGradient id="linear-gradient" x1="292.81" y1="516.64" x2="292.81" y2="348.72" gradientTransform="matrix(1, 0, 0, 1, 0, 0)" gradientUnits="userSpaceOnUse">
      <stop offset=".42" stop-color="#9da8c4"/>
      <stop offset=".66" stop-color="#4f5669"/>
      <stop offset=".84" stop-color="#444b5c"/>
    </linearGradient>
    <linearGradient id="linear-gradient-2" x1="292.81" y1="134.14" x2="292.81" y2="239.39" gradientTransform="matrix(1, 0, 0, 1, 0, 0)" gradientUnits="userSpaceOnUse">
      <stop offset="0" stop-color="#9da8c4"/>
      <stop offset=".57" stop-color="#4f5669"/>
      <stop offset="1" stop-color="#444b5c"/>
    </linearGradient>
    <linearGradient id="linear-gradient-3" x1="293.5" y1="157.16" x2="291.84" y2="461.68" gradientTransform="matrix(1, 0, 0, 1, 0, 0)" gradientUnits="userSpaceOnUse">
      <stop offset=".31" stop-color="#21b8f1"/>
      <stop offset=".77" stop-color="#2091ef"/>
      <stop offset="1" stop-color="#2a59be"/>
    </linearGradient>
    <linearGradient id="linear-gradient-4" x1="293.3" y1="455.95" x2="293.3" y2="413.97" xlink:href="#linear-gradient"/>
    <linearGradient id="linear-gradient-5" x1="293.3" y1="455.25" x2="293.3" y2="427.26" xlink:href="#linear-gradient"/>
    <filter id="AI_GaussianBlur_4-2" data-name="AI_GaussianBlur_4">
      <feGaussianBlur stdDeviation="4"/>
    </filter>
    <filter id="AI_GaussianBlur_4-3" data-name="AI_GaussianBlur_4">
      <feGaussianBlur stdDeviation="4"/>
    </filter>
    <filter id="AI_GaussianBlur_4-4" data-name="AI_GaussianBlur_4">
      <feGaussianBlur stdDeviation="4"/>
    </filter>
    <filter id="AI_GaussianBlur_4-5" data-name="AI_GaussianBlur_4">
      <feGaussianBlur stdDeviation="4"/>
    </filter>
    <filter id="AI_GaussianBlur_4-6" data-name="AI_GaussianBlur_4">
      <feGaussianBlur stdDeviation="4"/>
    </filter>
    <filter id="AI_GaussianBlur_4-7" data-name="AI_GaussianBlur_4">
      <feGaussianBlur stdDeviation="4"/>
    </filter>
    <filter id="AI_GaussianBlur_4-8" data-name="AI_GaussianBlur_4">
      <feGaussianBlur stdDeviation="4"/>
    </filter>
  </defs>
  <g id="Layer_1" data-name="Layer 1">
    <rect x="-12" y="-11" width="624" height="620" style="fill: #192740; stroke: #000; stroke-miterlimit: 10; stroke-width: 1.08px;"/>
  </g>
  <g id="Layer_9" data-name="Layer 9">
    <g style="filter: url(#AI_GaussianBlur_4);">
      <ellipse cx="293.23" cy="438.09" rx="271.01" ry="16.9" style="fill: none; stroke: #2550cc; stroke-miterlimit: 10; stroke-width: 9.51px;"/>
    </g>
    <ellipse cx="292.44" cy="437.07" rx="220.09" ry="12.77" style="fill: #4976f6;"/>
  </g>
  <g id="Layer_16" data-name="Layer 16">
    <g>
      <g>
        <rect x="262" y="377.73" width="61.62" height="43.5" style="fill: url(#linear-gradient);"/>
        <rect x="111.57" y="174.73" width="362.49" height="217.49" rx="9.53" ry="9.53" style="fill: url(#linear-gradient-2);"/>
        <rect x="122.44" y="187.05" width="340.74" height="192.87" rx="9.53" ry="9.53" style="fill: url(#linear-gradient-3);"/>
        <polygon points="262 421.23 236.78 432.1 349.82 432.1 323.62 421.23 262 421.23" style="fill: url(#linear-gradient-4);"/>
        <path d="M236.78,432.1h113.05v3.42c0,2.11-1.71,3.83-3.83,3.83h-105.39c-2.11,0-3.83-1.71-3.83-3.83v-3.42h0Z" style="fill: url(#linear-gradient-5);"/>
      </g>
      <g>
        <path d="M338.41,290.99c0,11.55-4.29,22.1-11.38,30.13-8.35,9.48-20.59,15.47-34.22,15.47s-25.87-5.99-34.22-15.47c-7.09-8.03-11.38-18.58-11.38-30.13,0-25.18,20.41-45.6,45.6-45.6s45.6,20.41,45.6,45.6Z" style="fill: #e6e6e6;"/>
        <circle cx="292.81" cy="278.42" r="18.41"/>
        <path d="M327.03,321.12c-8.35,9.48-20.59,15.47-34.22,15.47s-25.87-5.99-34.22-15.47c4.54-13.32,16.29-23.17,30.46-24.67,1.24-.13,2.5-.2,3.76-.2s2.53,.06,3.76,.2c14.17,1.5,25.92,11.35,30.46,24.67Z"/>
      </g>
      <circle cx="145.24" cy="206.91" r="3.9" style="fill: #fff;"/>
      <circle cx="156.94" cy="206.91" r="3.9" style="fill: #fff;"/>
      <circle cx="168.64" cy="206.91" r="3.9" style="fill: #fff;"/>
    </g>
  </g>
  <g id="Layer_11" data-name="Layer 11">
    <g style="filter: url(#AI_GaussianBlur_4-2); opacity: .5;">
      <path d="M25.92,447.61S-29.43,114.52,296.27,120.33c325.69,5.8,271.68,327.29,271.68,327.29,0,0-271.96,45.37-542.03,0Z" style="fill: #30a9c9;"/>
    </g>
  </g>
  <g id="Layer_18" data-name="Layer 18">
    <g>
      <g style="filter: url(#AI_GaussianBlur_4-3); opacity: .38;">
        <path d="M53.98,237.18c5.98,1.67,11.92,11.26,11.34,17.59-.58,6.33-4.79,10.58-9.52,13.21-4.74,2.63-10.16,4.03-14.75,6.9-5.86,3.65-10.21,9.67-12.34,17.05,2.07-4.81,9.39-14.34,10.28-15.23,.89-.88,2.72,1.59,3.91,2.67,1.76,4.22,2.71,8.66,2.76,12.86,.78-4.52-.06-9.8-2.31-14.59,6.2-4.45,12.63-8.56,19.26-12.32,4.83,3.74,2.28,13.32,7.32,16.52,1.6,1.02,3.31,.83,4.92,.76,8.52-.39,19.17,4.51,23.96,14.06,4.19,8.34,2.67,17.44-.59,24.21-3.26,6.77-8.1,12.31-10.56,19.66-1.03,3.07-1.53,5.51-4.64,3.59-.91-.56-3.81-1.26-4.42-2.22-4.97-7.89-7.86-10.07-3.2-17.02-1.29,8.7,9.73,30.94,12.68,26.07,3.43-7.83,6.06-14.7,10.4-21.78l4.76,5.03c.39-2.93-2.83-6.68-5.47-6.36,3.45-7.3,6.62-15.3,5.67-24.61-.95-9.31-7.4-20.12-15.74-22.61-6.49-1.93-13.86,.79-18.85-5.15-1.34-1.59-2.21-3.56-2.76-5.51-1.89-6.74,.19-13.53,4.94-16.15,3.16-1.75,1.35-4.18,7.23-7.37-3.94,2.09-7.44,4.97-10.33,8.5-2.71-3.57-2.58-8.2-3.86-12.39-1.27-4.19-5.56-5.77-9.56-5.7" style="fill: #50a0ff;"/>
        <path d="M53.1,240.37c.27,.08,.53,.16,.79,.27-.15-.06-.53-.29,0,.02,.44,.25,.87,.48,1.29,.77,.58,.39,1.22,.96,2.03,1.83,.9,.95,1.15,1.29,1.85,2.35,.65,.99,1.2,2.03,1.72,3.09,.15,.3,.23,.5,.45,1.13,.17,.47,.32,.95,.44,1.44s.22,.94,.31,1.42c.18,.96,.01-.61,.03,.35,0,.3,.03,.59,.03,.89,0,2.07-.68,3.97-1.79,5.75-.93,1.49-2.62,3.16-3.97,4.11-2.03,1.42-4.28,2.49-6.56,3.45-5.4,2.29-10.71,4.34-15.06,8.42s-7.45,9.62-9.16,15.41c-.46,1.57,.43,3.3,1.91,3.9,1.38,.56,3.46,.17,4.13-1.35,1.66-3.79,4.22-7.24,6.65-10.56,.56-.76,1.13-1.51,1.69-2.26,.37-.5-.27,.34-.03,.04,.11-.13,.21-.27,.32-.4,.19-.24,.39-.49,.58-.73,.13-.16,.3-.32,.41-.49,.03-.04,.08-.07,.1-.11-.94,.78-1.84,.97-2.7,.57-.27-.12-.26-.1,.02,.06-.17,.07-.32-.29,.11,.14,.19,.19,.38,.38,.57,.57,.42,.43,.83,.88,1.27,1.29l-.85-1.46c1.57,3.83,2.57,7.83,2.64,11.98,.03,1.63,1.23,3.05,2.87,3.25,1.48,.18,3.36-.72,3.63-2.37,.96-5.93-.14-11.71-2.65-17.14l-1.19,4.52c6.2-4.44,12.63-8.56,19.26-12.32l-4.01-.52c.33,.27,.61,.55,.9,.86,.33,.35-.27-.43-.02-.02,.12,.2,.25,.39,.36,.59s.49,1.12,.26,.49c.17,.46,.32,.91,.45,1.38,.47,1.71,.71,3.47,1.07,5.2,.85,4.17,2.86,8.46,7.39,9.54,2.22,.53,4.5,.09,6.75,.26,.19,.01,1.17,.12,.96,.09-.48-.06,.55,.09,.5,.08,.21,.04,.42,.08,.63,.12,.96,.19,1.91,.44,2.85,.73,3.39,1.07,6.76,3.04,9.4,5.63,1.61,1.58,2.56,2.81,3.66,4.75,1.17,2.07,1.92,4.31,2.34,6.65,.8,4.4,.03,8.95-1.56,13.22-1.5,4.01-4.39,8.22-6.76,12.13-1.31,2.16-2.55,4.37-3.56,6.69-.52,1.19-1.01,2.39-1.42,3.61-.16,.49-.32,.98-.48,1.47-.07,.2-.14,.39-.21,.59-.09,.23-.07,.19,.06-.12-.05,.12-.11,.24-.18,.35-.11,.23-.38,.32-.07,.16,.41-.21,.6-.54,1.14-.58,.1,0,.96,.13,.52,.03-.21-.06-.18-.03,.09,.08l-.31-.16c-.96-.54-1.98-.92-3.01-1.32-.19-.07-.39-.15-.58-.23,.6,.26-.16-.12-.28-.16-.56-.21-.01-.08,.05,.1,.38,1.01-.1-.19-.27-.45-.77-1.19-1.56-2.37-2.33-3.56-.61-.94-1.21-1.9-1.71-2.9-.09-.18-.17-.35-.25-.53,.29,.68-.04-.16-.06-.25-.09-.28-.23-1.47-.2-.66-.01-.25,.05-1.49-.06-.71,.06-.43,.19-.85,.31-1.27,.04-.12,.28-.74,.08-.26,.12-.27,.25-.54,.39-.8,.35-.66,.75-1.29,1.16-1.92l-6.04-2.55c-.51,3.69,.18,7.36,1.23,10.91,1.15,3.9,2.73,7.72,4.64,11.31,1.48,2.78,3.24,5.78,5.84,7.66,1.22,.88,2.77,1.33,4.26,.92,2.46-.67,3.16-3.08,4.05-5.17,2.75-6.4,5.47-12.81,9.1-18.78l-5.19,.67,4.76,5.03c.9,.95,2.44,1.2,3.61,.68,1.28-.56,1.91-1.65,2.03-3.02,.42-4.56-4.01-9.99-8.78-9.67l2.86,4.98c3.68-7.82,6.76-16.1,6.23-24.89-.46-7.7-3.62-15.31-8.84-21.01-2.49-2.72-5.61-4.94-9.13-6.08-3.43-1.11-7.1-.96-10.65-1.24-.46-.04-.92-.07-1.38-.14,.49,.07-.5-.1-.64-.13-.39-.08-.77-.17-1.15-.28-.16-.05-1.2-.42-.8-.25-1.58-.68-2.61-1.55-3.54-3.03-1.85-2.97-2.44-6.96-1.79-10.01,.1-.47,.22-.94,.37-1.4,.05-.17,.11-.34,.17-.51,.35-1.02-.12,.2,.14-.34,.22-.46,.47-.92,.74-1.35,.09-.14,.19-.28,.28-.42,.13-.18,.13-.18-.01,0l.21-.25c.3-.32,.6-.63,.93-.92,.06-.06,.49-.36,.1-.08,.18-.12,.36-.24,.54-.35,.75-.46,1.51-.93,2.13-1.56,.93-.95,1.43-2.08,2.09-3.2,.15-.26,.32-.51,.49-.75-.43,.6,.17-.15,.35-.33,.74-.72,1.34-1.07,2.45-1.69,1.56-.87,2.07-3.01,1.19-4.52s-2.95-2.04-4.52-1.19c-4.2,2.26-7.95,5.34-10.99,9.01l5.19,.67c-2.8-3.84-2.16-9.19-4.31-13.53-2.18-4.4-7.33-6.22-11.96-6.19-4.25,.03-4.26,6.64,0,6.61,.45,0,.89,.02,1.34,.04,.2,0,.49,.05,.12,0,.22,.03,.44,.07,.66,.12,.43,.09,.87,.2,1.29,.34,.21,.07,.42,.14,.62,.23-.33-.14-.05-.01,.1,.08,.37,.23,.76,.41,1.1,.69-.28-.22-.04-.02,.07,.11,.14,.16,.31,.31,.45,.47-.27-.31,.32,.51,.42,.7,.05,.1,.21,.48,.09,.17,.12,.3,.19,.61,.28,.92,1.18,4.3,1.3,8.87,4.02,12.6,1.13,1.55,3.71,2.46,5.19,.67,2.73-3.3,5.89-5.95,9.66-7.98l-3.34-5.71c-1.66,.92-3.3,2.04-4.51,3.52-.81,1-1.35,2.07-2,3.16-.08,.14-.5,.7-.16,.28,.37-.45-.19,.15-.28,.25-.33,.39,.03-.05,.14-.11-.14,.08-.29,.18-.43,.26-.37,.22-.74,.45-1.09,.71-1.62,1.19-2.98,2.68-3.96,4.44-4.18,7.46-2.44,18.63,4.52,23.84,3.12,2.34,7.01,2.86,10.8,3.06,1.56,.08,3.6,.14,4.86,.31-.35-.05,.37,.06,.44,.07,.17,.03,.35,.06,.52,.1,.46,.09,.92,.21,1.38,.34,.36,.11,.71,.23,1.06,.36s.01,0-.05-.02c.25,.11,.49,.23,.73,.36,2.81,1.46,5.08,3.78,6.82,6.37,2.1,3.12,3.37,5.99,4.24,9.6,.11,.46,.21,.93,.3,1.39,.04,.23,.08,.46,.12,.69,.01,.09,.11,.83,.05,.32,.13,1.18,.2,2.36,.21,3.55,.01,2.38-.23,4.62-.73,6.91-.99,4.53-2.72,8.7-4.66,12.82-.98,2.08,.14,5.16,2.86,4.98,.18-.02,.36-.02,.53-.01l-.34-.03c.66,.54-.47-.41,.29,.11,.05,.03,.76,.59,.35,.22,.24,.22,.48,.45,.69,.7-.33-.39,.23,.37,.26,.42,.07,.11,.41,.94,.22,.4,.03,.08,.25,.89,.17,.48-.06-.3,0,.61-.02,.77l5.65-2.34-4.76-5.03c-1.49-1.58-4.11-1.1-5.19,.67-2.89,4.73-5.21,9.75-7.41,14.83-.54,1.24-1.07,2.49-1.6,3.73-.27,.64-.55,1.28-.82,1.91-.12,.29-.24,.58-.37,.86-.4,.88-.17,.35,.14,.03-.15,.16-.31,.19,.13-.06,.75-.43-.66,.04,.82-.42-.57,.18,.91-.05,.46-.06,1.06,.02,.87,.15,.56,.07-.47-.13,.45,.07,.45,.21,0-.01-.45-.27-.51-.3-.43-.18,.42,.22,.35,.27-.01,0-.25-.21-.27-.24-.17-.17-.34-.33-.51-.5-.18-.19-.35-.4-.52-.6-.1-.12-.2-.25-.3-.37,.28,.34,.32,.44,.03,.03-.81-1.15-1.54-2.34-2.22-3.58-.82-1.51-1.56-3.06-2.24-4.63-.25-.58-.04-.11,0,.01-.09-.22-.18-.44-.27-.66-.16-.39-.31-.79-.46-1.19-.33-.88-.64-1.76-.92-2.66-.55-1.71-1.02-3.46-1.32-5.24-.03-.2-.06-.4-.1-.6-.12-.68,.04,.69,0-.05-.02-.37-.07-.73-.09-1.1-.02-.34-.03-.69-.02-1.03,0-.28,.15-1.63-.02-.43,.22-1.63-.25-3.23-1.91-3.9-1.57-.63-3.2-.06-4.13,1.35-1.42,2.15-2.57,4.5-2.77,7.11-.17,2.2,.55,4.31,1.55,6.23,1.12,2.16,2.59,4.15,3.9,6.2,.75,1.16,1.46,2.11,2.71,2.78,1.01,.54,2.18,1.02,3.28,1.36,.47,.14-.58-.38-.02,0,.14,.1,.36,.22,.49,.29,.61,.32,1.27,.62,1.93,.78,1.38,.32,2.76,.1,3.94-.67,2.11-1.37,2.65-4.07,3.42-6.29,1.77-5.05,4.96-9.44,7.67-14.01s4.83-9.3,5.61-14.52c.89-6,.14-12.02-2.6-17.47-4.35-8.63-13.38-14.32-22.84-15.51-1.12-.14-2.25-.22-3.38-.2-1.08,.02-2.57,.32-3.45-.06-.22-.1-.43-.25-.63-.38,.59,.39-.03-.06-.14-.18-.12-.13-.24-.26-.35-.39,.49,.61-.06-.17-.14-.32-.11-.2-.21-.4-.31-.6,.25,.52,.01,0-.08-.24-.16-.46-.29-.92-.4-1.39-1.1-4.4-1.18-9.62-5.01-12.73-1.17-.95-2.63-1.3-4.01-.52-6.63,3.77-13.06,7.88-19.26,12.32-1.56,1.12-2,2.77-1.19,4.52,1.72,3.72,2.59,8.28,1.98,12.04l6.5,.88c-.07-3.99-.79-8-2.11-11.76-.36-1.03-.7-2.23-1.35-3.1-.44-.59-1.02-1.1-1.53-1.63-1.19-1.22-2.67-2.55-4.49-2.54-2.46,.02-3.74,2.22-5.07,3.95-1.5,1.95-2.95,3.94-4.33,5.98-1.55,2.27-3.11,4.61-4.22,7.13l6.04,2.55c1.44-4.91,3.94-9.29,7.72-12.74,4.03-3.67,9.92-5.48,15.1-7.86,4.85-2.22,9.5-5.55,11.95-10.44,1.27-2.54,2.1-5.45,1.99-8.3-.1-2.68-.88-5.2-1.95-7.64-2.23-5.06-6.37-10.21-11.85-11.84-1.71-.51-3.6,.61-4.07,2.31s.59,3.56,2.31,4.07h0Z" style="fill: #50a0ff;"/>
      </g>
      <g>
        <path d="M53.07,235.75c5.98,1.67,11.92,11.26,11.34,17.59s-4.79,10.58-9.52,13.21c-4.74,2.63-10.16,4.03-14.75,6.9-5.86,3.65-10.21,9.67-12.34,17.05,2.07-4.81,9.39-14.34,10.28-15.23s2.72,1.59,3.91,2.67c1.76,4.22,2.71,8.66,2.76,12.86,.78-4.52-.06-9.8-2.31-14.59,6.2-4.45,12.63-8.56,19.26-12.32,4.83,3.74,2.28,13.32,7.32,16.52,1.6,1.02,3.31,.83,4.92,.76,8.52-.39,19.17,4.51,23.96,14.06,4.19,8.34,2.67,17.44-.59,24.21-3.26,6.77-8.1,12.31-10.56,19.66-1.03,3.07-5.15,.76-5.76-.2-4.97-7.89-4.63-12.11-6.49-15.45-1.29,8.7,9.73,30.94,12.68,26.07,3.43-7.83,5.1-13.41,9.44-20.48,1.59,1.68,3.3,7.27,4.89,8.94,.39-2.93-2-11.88-4.64-11.57,3.45-7.3,6.62-15.3,5.67-24.61-.95-9.31-7.4-20.12-15.74-22.61-6.49-1.93-13.86,.79-18.85-5.15-1.34-1.59-2.21-3.56-2.76-5.51-1.89-6.74,.19-13.53,4.94-16.15,3.16-1.75,1.35-4.18,7.23-7.37-3.94,2.09-7.44,4.97-10.33,8.5-2.71-3.57-2.58-8.2-3.86-12.39-1.27-4.19-5.56-5.77-9.56-5.7" style="fill: #fff;"/>
        <path d="M53,236.01c4.41,1.32,7.65,5.71,9.49,9.71,2.14,4.65,2.25,9.59-.52,14.03s-7.59,6.97-12.34,8.95c-4.89,2.05-9.79,3.96-13.73,7.64-4.06,3.8-6.82,8.77-8.38,14.07-.09,.29,.38,.5,.5,.21,2.14-4.86,5.6-9.32,8.85-13.48,.38-.49,.79-1.24,1.3-1.6,.93-.65,2.86,1.69,3.41,2.4,.66,.85,.94,2.15,1.26,3.15s.61,2.07,.84,3.13c.48,2.16,.73,4.36,.77,6.57,0,.3,.49,.39,.54,.07,.82-5.06-.21-10.19-2.34-14.8l-.1,.38c5.04-3.61,10.22-7.01,15.55-10.17,.68-.41,1.37-.81,2.06-1.21,.35-.2,1.15-.91,1.54-.81,.75,.18,1.52,1.85,1.81,2.49,.84,1.83,1.15,3.87,1.51,5.83,.61,3.29,1.43,7.53,5.12,8.66,2.06,.63,4.38,.1,6.51,.27s4.33,.66,6.39,1.38c9.93,3.48,17.06,12.51,17.12,23.19,.03,5.48-1.67,10.72-4.27,15.49-2.58,4.72-5.81,9.08-8.04,13.99-.28,.61-.54,1.22-.78,1.84-.29,.73-.45,1.65-.93,2.27-.72,.94-1.96,.77-2.95,.39-2.44-.93-3.47-3.69-4.51-5.9-.99-2.1-1.72-4.29-2.36-6.51-.43-1.48-.85-2.98-1.59-4.34-.1-.19-.47-.18-.5,.07-.43,3.1,.36,6.34,1.23,9.29,1.08,3.65,2.55,7.22,4.33,10.58,1.22,2.29,2.64,4.97,4.75,6.57,.53,.4,1.23,.81,1.93,.62,1.29-.35,1.62-2.34,2.05-3.38,2.55-6.09,4.88-12.23,8.33-17.89l-.43,.06c2.27,2.55,2.61,6.39,4.89,8.94,.18,.2,.45,.02,.47-.19,.28-2.49-.52-5.3-1.38-7.61-.53-1.42-1.58-4.35-3.53-4.24l.24,.41c3.46-7.35,6.31-15.11,5.82-23.36-.41-6.87-3.29-13.78-7.95-18.86-2.14-2.33-4.76-4.32-7.8-5.3-3.18-1.03-6.56-.88-9.84-1.13-4.11-.32-7.84-1.68-10.12-5.33s-2.97-8.25-2.09-12.34c.44-2.04,1.3-4.03,2.69-5.61,1.07-1.22,2.59-1.79,3.7-2.92,.72-.74,1.1-1.71,1.62-2.59,1.03-1.74,2.64-2.89,4.38-3.86,.31-.17,.03-.64-.28-.48-4,2.15-7.49,5.05-10.38,8.54l.43,.06c-1.49-2.04-2.15-4.42-2.64-6.87-.44-2.21-.66-4.63-1.67-6.67-1.72-3.46-5.72-4.71-9.34-4.69-.35,0-.36,.55,0,.55,4.22-.02,8.27,1.73,9.46,6.07,1.11,4.03,1.17,8.38,3.72,11.88,.09,.13,.31,.21,.43,.06,2.87-3.46,6.31-6.32,10.27-8.45l-.28-.48c-1.45,.81-2.86,1.74-3.9,3.05-.62,.79-1.01,1.69-1.52,2.55-.72,1.21-1.82,1.67-2.9,2.48-1.19,.89-2.15,2.05-2.88,3.35-3.35,5.97-2.11,15.39,3.44,19.69,5.66,4.39,13.57,1.38,19.73,4.58,6.55,3.4,10.78,10.82,12.46,17.78,2.34,9.71-.9,19.3-5.01,28.03-.08,.17,.01,.43,.24,.41,1.89-.11,2.95,3.59,3.37,4.91,.63,1.99,1.23,4.28,1,6.38l.47-.19c-2.27-2.55-2.61-6.39-4.89-8.94-.12-.14-.35-.09-.43,.06-2.62,4.3-4.64,8.87-6.54,13.52-.47,1.16-.94,2.33-1.42,3.49-.3,.73-.61,1.46-.92,2.19-.2,.46-.36,1.12-.7,1.49-.53,.57-1.19,.3-1.76-.09-2.02-1.38-3.38-3.98-4.52-6.07-1.71-3.13-3.11-6.45-4.2-9.85-1.01-3.15-2.01-6.72-1.55-10.06l-.5,.07c1.48,2.72,1.92,5.95,3.07,8.82,.87,2.16,1.93,4.24,3.16,6.21,.69,1.1,1.79,1.79,3.03,2.13,1.1,.3,2.36,.23,3.09-.76,.59-.8,.79-1.93,1.16-2.85,.55-1.35,1.19-2.67,1.88-3.96,2.41-4.5,5.44-8.63,7.7-13.22,4.26-8.64,4.82-19.17-.71-27.41-4.42-6.59-12.08-10.97-19.98-11.6-2.69-.22-5.88,.69-8.11-1.22-1.53-1.31-2.15-3.33-2.58-5.23-.83-3.68-.92-8.24-4.09-10.81-.1-.08-.22-.11-.33-.04-6.63,3.77-13.06,7.88-19.26,12.32-.13,.09-.17,.23-.1,.38,2.06,4.47,3.08,9.48,2.29,14.38l.54,.07c-.07-3.74-.76-7.43-2.01-10.96-.23-.65-.42-1.5-.81-2.07-.32-.47-.89-.91-1.29-1.32-.56-.58-1.44-1.65-2.35-1.65-1,0-1.93,1.77-2.45,2.44-1.5,1.95-2.95,3.94-4.33,5.98-1.55,2.27-3.11,4.61-4.22,7.13l.5,.21c1.57-5.34,4.37-10.31,8.5-14.07,4.51-4.11,10.27-5.84,15.71-8.33,4.42-2.03,8.63-4.89,10.86-9.35,2.11-4.21,1.89-8.64,.04-12.88-1.88-4.31-5.32-9.04-10.04-10.45-.34-.1-.49,.43-.15,.53h0Z" style="fill: #fff;"/>
      </g>
      <g style="filter: url(#AI_GaussianBlur_4-4);">
        <path d="M53.07,235.75c5.98,1.67,11.92,11.26,11.34,17.59s-4.79,10.58-9.52,13.21c-4.74,2.63-10.16,4.03-14.75,6.9-5.86,3.65-10.21,9.67-12.34,17.05,2.07-4.81,9.39-14.34,10.28-15.23s2.72,1.59,3.91,2.67c1.76,4.22,2.71,8.66,2.76,12.86,.78-4.52-.06-9.8-2.31-14.59,6.2-4.45,12.63-8.56,19.26-12.32,4.83,3.74,2.28,13.32,7.32,16.52,1.6,1.02,3.31,.83,4.92,.76,8.52-.39,19.17,4.51,23.96,14.06,4.19,8.34,2.67,17.44-.59,24.21-3.26,6.77-8.1,12.31-10.56,19.66-1.03,3.07-5.15,.76-5.76-.2-4.97-7.89-4.63-12.11-6.49-15.45-1.29,8.7,9.73,30.94,12.68,26.07,3.43-7.83,5.1-13.41,9.44-20.48,1.59,1.68,3.3,7.27,4.89,8.94,.39-2.93-2-11.88-4.64-11.57,3.45-7.3,6.62-15.3,5.67-24.61-.95-9.31-7.4-20.12-15.74-22.61-6.49-1.93-13.86,.79-18.85-5.15-1.34-1.59-2.21-3.56-2.76-5.51-1.89-6.74,.19-13.53,4.94-16.15,3.16-1.75,1.35-4.18,7.23-7.37-3.94,2.09-7.44,4.97-10.33,8.5-2.71-3.57-2.58-8.2-3.86-12.39-1.27-4.19-5.56-5.77-9.56-5.7" style="fill: #fff;"/>
        <path d="M53,236.01c4.41,1.32,7.65,5.71,9.49,9.71,2.14,4.65,2.25,9.59-.52,14.03s-7.59,6.97-12.34,8.95c-4.89,2.05-9.79,3.96-13.73,7.64-4.06,3.8-6.82,8.77-8.38,14.07-.09,.29,.38,.5,.5,.21,2.14-4.86,5.6-9.32,8.85-13.48,.38-.49,.79-1.24,1.3-1.6,.93-.65,2.86,1.69,3.41,2.4,.66,.85,.94,2.15,1.26,3.15s.61,2.07,.84,3.13c.48,2.16,.73,4.36,.77,6.57,0,.3,.49,.39,.54,.07,.82-5.06-.21-10.19-2.34-14.8l-.1,.38c5.04-3.61,10.22-7.01,15.55-10.17,.68-.41,1.37-.81,2.06-1.21,.35-.2,1.15-.91,1.54-.81,.75,.18,1.52,1.85,1.81,2.49,.84,1.83,1.15,3.87,1.51,5.83,.61,3.29,1.43,7.53,5.12,8.66,2.06,.63,4.38,.1,6.51,.27s4.33,.66,6.39,1.38c9.93,3.48,17.06,12.51,17.12,23.19,.03,5.48-1.67,10.72-4.27,15.49-2.58,4.72-5.81,9.08-8.04,13.99-.28,.61-.54,1.22-.78,1.84-.29,.73-.45,1.65-.93,2.27-.72,.94-1.96,.77-2.95,.39-2.44-.93-3.47-3.69-4.51-5.9-.99-2.1-1.72-4.29-2.36-6.51-.43-1.48-.85-2.98-1.59-4.34-.1-.19-.47-.18-.5,.07-.43,3.1,.36,6.34,1.23,9.29,1.08,3.65,2.55,7.22,4.33,10.58,1.22,2.29,2.64,4.97,4.75,6.57,.53,.4,1.23,.81,1.93,.62,1.29-.35,1.62-2.34,2.05-3.38,2.55-6.09,4.88-12.23,8.33-17.89l-.43,.06c2.27,2.55,2.61,6.39,4.89,8.94,.18,.2,.45,.02,.47-.19,.28-2.49-.52-5.3-1.38-7.61-.53-1.42-1.58-4.35-3.53-4.24l.24,.41c3.46-7.35,6.31-15.11,5.82-23.36-.41-6.87-3.29-13.78-7.95-18.86-2.14-2.33-4.76-4.32-7.8-5.3-3.18-1.03-6.56-.88-9.84-1.13-4.11-.32-7.84-1.68-10.12-5.33s-2.97-8.25-2.09-12.34c.44-2.04,1.3-4.03,2.69-5.61,1.07-1.22,2.59-1.79,3.7-2.92,.72-.74,1.1-1.71,1.62-2.59,1.03-1.74,2.64-2.89,4.38-3.86,.31-.17,.03-.64-.28-.48-4,2.15-7.49,5.05-10.38,8.54l.43,.06c-1.49-2.04-2.15-4.42-2.64-6.87-.44-2.21-.66-4.63-1.67-6.67-1.72-3.46-5.72-4.71-9.34-4.69-.35,0-.36,.55,0,.55,4.22-.02,8.27,1.73,9.46,6.07,1.11,4.03,1.17,8.38,3.72,11.88,.09,.13,.31,.21,.43,.06,2.87-3.46,6.31-6.32,10.27-8.45l-.28-.48c-1.45,.81-2.86,1.74-3.9,3.05-.62,.79-1.01,1.69-1.52,2.55-.72,1.21-1.82,1.67-2.9,2.48-1.19,.89-2.15,2.05-2.88,3.35-3.35,5.97-2.11,15.39,3.44,19.69,5.66,4.39,13.57,1.38,19.73,4.58,6.55,3.4,10.78,10.82,12.46,17.78,2.34,9.71-.9,19.3-5.01,28.03-.08,.17,.01,.43,.24,.41,1.89-.11,2.95,3.59,3.37,4.91,.63,1.99,1.23,4.28,1,6.38l.47-.19c-2.27-2.55-2.61-6.39-4.89-8.94-.12-.14-.35-.09-.43,.06-2.62,4.3-4.64,8.87-6.54,13.52-.47,1.16-.94,2.33-1.42,3.49-.3,.73-.61,1.46-.92,2.19-.2,.46-.36,1.12-.7,1.49-.53,.57-1.19,.3-1.76-.09-2.02-1.38-3.38-3.98-4.52-6.07-1.71-3.13-3.11-6.45-4.2-9.85-1.01-3.15-2.01-6.72-1.55-10.06l-.5,.07c1.48,2.72,1.92,5.95,3.07,8.82,.87,2.16,1.93,4.24,3.16,6.21,.69,1.1,1.79,1.79,3.03,2.13,1.1,.3,2.36,.23,3.09-.76,.59-.8,.79-1.93,1.16-2.85,.55-1.35,1.19-2.67,1.88-3.96,2.41-4.5,5.44-8.63,7.7-13.22,4.26-8.64,4.82-19.17-.71-27.41-4.42-6.59-12.08-10.97-19.98-11.6-2.69-.22-5.88,.69-8.11-1.22-1.53-1.31-2.15-3.33-2.58-5.23-.83-3.68-.92-8.24-4.09-10.81-.1-.08-.22-.11-.33-.04-6.63,3.77-13.06,7.88-19.26,12.32-.13,.09-.17,.23-.1,.38,2.06,4.47,3.08,9.48,2.29,14.38l.54,.07c-.07-3.74-.76-7.43-2.01-10.96-.23-.65-.42-1.5-.81-2.07-.32-.47-.89-.91-1.29-1.32-.56-.58-1.44-1.65-2.35-1.65-1,0-1.93,1.77-2.45,2.44-1.5,1.95-2.95,3.94-4.33,5.98-1.55,2.27-3.11,4.61-4.22,7.13l.5,.21c1.57-5.34,4.37-10.31,8.5-14.07,4.51-4.11,10.27-5.84,15.71-8.33,4.42-2.03,8.63-4.89,10.86-9.35,2.11-4.21,1.89-8.64,.04-12.88-1.88-4.31-5.32-9.04-10.04-10.45-.34-.1-.49,.43-.15,.53h0Z" style="fill: #fff;"/>
      </g>
    </g>
    <g>
      <g style="filter: url(#AI_GaussianBlur_4-5); opacity: .55;">
        <path d="M513.77,457.04s12.21-19.11,20.01-22.04c7.8-2.93,16.01-6.81,14.46-17.6-1.55-10.79-3.12-21-3.12-21,0,0-10.64-3.11-12.27-8.64s-10.15-27.33-10.15-27.33l-19.46-9.11s23.75,7.27,25.93,6.24c2.18-1.03,4.47-20.86,4.47-20.86,0,0-6.02,26.12-2.86,31.67,3.16,5.55,5.73,18.69,8.35,18.45,2.62-.23,12.42,8.62,12.42,8.62,0,0,2.85,15.27,3.12,21,.27,5.73-6.39,25.5-13.46,22.1-7.07-3.4-19.1,17.08-14,16.4" style="fill: #00adef;"/>
        <path d="M513.77,457.04s12.21-19.11,20.01-22.04c7.8-2.93,16.01-6.81,14.46-17.6-1.55-10.79-3.12-21-3.12-21,0,0-10.64-3.11-12.27-8.64s-10.15-27.33-10.15-27.33l-19.46-9.11s23.75,7.27,25.93,6.24c2.18-1.03,4.47-20.86,4.47-20.86,0,0-6.02,26.12-2.86,31.67,3.16,5.55,5.73,18.69,8.35,18.45,2.62-.23,12.42,8.62,12.42,8.62,0,0,2.85,15.27,3.12,21,.27,5.73-6.39,25.5-13.46,22.1-7.07-3.4-19.1,17.08-14,16.4" style="fill: none; stroke: #00adef; stroke-miterlimit: 10; stroke-width: 2.93px;"/>
      </g>
      <path d="M512.12,459.26s12.21-19.11,20.01-22.04c7.8-2.93,16.01-6.81,14.46-17.6-1.55-10.79-3.12-21-3.12-21,0,0-10.64-3.11-12.27-8.64-1.63-5.53-10.15-27.33-10.15-27.33l-19.46-9.11s20.72,6.52,22.89,5.48c2.18-1.03,7.5-20.1,7.5-20.1,0,0-6.02,26.12-2.86,31.67,3.16,5.55,3.42,20.67,6.04,20.43,2.62-.23,14.72,6.64,14.72,6.64,0,0,2.85,15.27,3.12,21,.27,5.73-6.39,25.5-13.46,22.1-7.07-3.4-19.1,17.08-14,16.4" style="fill: #fff;"/>
      <g style="filter: url(#AI_GaussianBlur_4-6);">
        <path d="M513.52,462.02s12.21-19.11,20.01-22.04c7.8-2.93,16.01-6.81,14.46-17.6-1.55-10.79-3.12-21-3.12-21,0,0-10.64-3.11-12.27-8.64-1.63-5.53-10.15-27.33-10.15-27.33l-19.46-9.11s20.72,6.52,22.89,5.48c2.18-1.03,7.5-20.1,7.5-20.1,0,0-6.02,26.12-2.86,31.67,3.16,5.55,3.42,20.67,6.04,20.43,2.62-.23,14.72,6.64,14.72,6.64,0,0,2.85,15.27,3.12,21,.27,5.73-6.39,25.5-13.46,22.1-7.07-3.4-19.1,17.08-14,16.4" style="fill: #fff;"/>
      </g>
    </g>
    <g>
      <g style="filter: url(#AI_GaussianBlur_4-7); opacity: .38;">
        <path d="M408.58,235.33c-1-6.1,6.28-18.15,12.15-20.6,5.86-2.45,11.4-.7,15.7,2.29,4.31,2.98,7.81,7.15,12.26,9.9,5.68,3.5,8.26,4.31,15.7,2.75-5.13,.41-12.07-1.39-13.22-1.77-1.16-.38,.28-3.16,.75-4.73,3.02-3.55,6.57-6.47,10.29-8.48-4.35,1.43-8.69,4.64-12.01,8.89-6.53-3.43-12.86-7.23-18.96-11.37,1.31-6.05,10.9-8.27,11.65-14.25,.24-1.9,22.84,21,22.1,19.6-3.88-7.4-3.96-19.17,2.54-27.91,5.68-7.64,14.39-10.55,21.77-10.81s14.31,1.44,21.86,.19c3.16-.53,5.54-1.22,5.12,2.44-.12,1.07,.46,3.98-.14,4.97-4.94,8.12-5.69,11.71-13.8,10.82,8.27-2.93,23.47-23.15,17.91-23.5-8.39,.61-15.59,1.49-23.68,.94l2.49-6.59c-2.77,1.03-4.76,5.65-3.38,7.85-7.92,.35-16.36,1.27-24.24,6.48-7.88,5.21-38.29-8.33-37.03,.26,.98,6.68,6.46,11.96,3.26,19.19-.86,1.93-2.25,3.63-3.76,5.04-5.2,4.83-12.11,6.17-16.41,3.17-2.87-2-4.27,.76-9.56-2.98,3.5,2.53,7.51,4.29,11.85,5.21-2.05,4.08-6.22,6.14-9.41,9.23-3.2,3.1-4.04,9.92-2.32,13.45" style="fill: #02adef;"/>
        <path d="M411.74,234.46c.15,1.02,.02-.24,.03-.5,0-.2,.16-1.5,.02-.65,.16-.94,.38-1.86,.68-2.77,.16-.49,.34-.97,.52-1.45,.36-.94-.14,.31,.1-.25,.11-.25,.22-.49,.34-.74,.47-1,1-1.98,1.57-2.93,1.26-2.1,2.07-3.22,3.69-4.89,.31-.32,.63-.63,.96-.93,.16-.14,1.21-.97,.62-.55,.35-.25,.7-.49,1.07-.71,.14-.08,.28-.16,.42-.23,.14-.07,.28-.14,.42-.2-.21,.09-.18,.09,.08-.02,5-1.81,9.64-.11,13.72,3.1,4.54,3.57,8.44,7.71,13.58,10.49,2.27,1.23,4.59,2.09,7.16,2.38,2.85,.33,5.76-.2,8.55-.78,3.59-.74,2.83-6.71-.87-6.45-3.43,.24-6.24-.2-9.5-.92-.9-.2-1.85-.59-2.76-.7,1.27,2.68,1.9,3.41,1.89,2.17l-.03,.35c.11-.4,.22-.8,.36-1.2,.24-.68,.51-1.35,.73-2.05l-.84,1.45c2.76-3.2,5.91-5.93,9.62-7.96,3.21-1.76,1.04-7.21-2.53-6-5.35,1.81-9.97,5.33-13.46,9.74l3.98-.51c-6.53-3.44-12.86-7.23-18.96-11.37l1.51,3.71c.07-.31,.16-.6,.27-.9,.12-.35-.05,.14-.07,.17,.06-.12,.12-.24,.19-.35,.16-.27,.33-.53,.5-.8,.03-.05,.31-.39,.07-.1s.14-.15,.18-.2c.92-.99,1.94-1.86,3-2.7,2.17-1.72,4.37-3.32,5.97-5.62,.66-.95,1.67-2.57,1.54-3.76,0-.03-2.19,2.19-2.21,2.2-.38,.15-.83,.08-1.22,.06-.49-.02-.5-.07-.28-.01-.54-.14-.86-.46-.31-.08,.17,.12,.34,.24,.51,.36,.78,.55-.52-.44,.11,.09,.57,.47,1.14,.94,1.69,1.43,5.75,5.01,11.08,10.46,16.65,15.66,.71,.66,1.45,1.43,2.28,1.93,1.99,1.2,4.64-.11,4.94-2.39,.13-.95-.16-1.59-.55-2.42-.1-.2-.43-.89-.37-.75,.13,.3-.08-.19-.08-.2-.08-.2-.16-.4-.23-.61-2.1-5.79-1.92-12.4,.57-18,1.42-3.19,3.39-5.85,6.02-8.13,2.18-1.9,5.21-3.5,7.87-4.38,1.47-.49,2.97-.86,4.5-1.12,.22-.04,.44-.07,.66-.11-.07,.01-.44,.05-.05,0,.33-.04,.65-.07,.98-.1,.9-.08,1.8-.12,2.7-.14,4.16-.06,8.3,.46,12.46,.63,2.18,.09,4.38,.07,6.55-.16,1.09-.12,2.18-.27,3.26-.46,.3-.05,.6-.1,.89-.15,.14-.02,.28-.05,.42-.07-.74,.11-.12,.01,.04,.01,.21,0,.5,.03,.69-.01,.41-.09-.66-.12-.28-.03,.34,.08-.38-.17-.37-.16-.43-.28-.67-.61-.87-1.08,.2,.47,0,.02,0-.13,0,.21,0,.41-.01,.62-.07,1.38,.1,2.75,.1,4.13,0-.13,.19-.43,.03-.2-.21,.31,.14-.26,.14-.27-.26,.38-.48,.8-.72,1.2-.43,.73-.86,1.46-1.28,2.19-.68,1.16-1.35,2.33-2.12,3.44-.08,.11-.61,.83-.34,.48s-.19,.23-.27,.31c-.17,.2-.36,.39-.55,.57-.21,.21-.88,.6-.16,.18-.18,.1-.35,.24-.53,.35-.11,.07-.85,.44-.37,.22,.45-.21-.21,.06-.33,.1-.3,.09-.61,.14-.91,.22-.36,.09,.23-.02,.25-.03-.13,.01-.26,.03-.39,.04-.33,.02-.65,.04-.98,.04-.75,0-1.5-.06-2.25-.13l.87,6.45c3.41-1.25,6.3-3.6,8.91-6.07,2.96-2.8,5.61-5.93,7.98-9.23,1.74-2.42,3.62-5.18,4.35-8.11,.37-1.49,.39-3.04-.39-4.41-1.23-2.18-3.59-2.15-5.78-1.98-7.24,.57-14.47,1.27-21.73,.8l3.17,4.16,2.49-6.59c.83-2.2-1.79-4.97-4.04-4.04-4.56,1.88-7.99,7.97-5.34,12.67l2.84-4.94c-5.76,.26-11.6,.82-17.09,2.68-3.03,1.03-5.92,2.41-8.61,4.12-.23,.15-.47,.27-.7,.42-.67,.42,.72-.19-.06,.02-.33,.09-1.52,.61-1.82,.42,.03,.02,.81-.07,.32-.05-.19,0-.38,.04-.57,.05-.3,.02-.6,.03-.9,.04-.75,.02-1.5,0-2.25-.05s-1.55-.11-2.32-.2c-.4-.04-.81-.1-1.21-.15,.92,.12-.5-.08-.74-.11-3.47-.53-6.91-1.26-10.36-1.93-3.21-.62-6.48-1.27-9.75-1.43-2.46-.12-5.36,.12-7.13,2.06-2.89,3.16-.59,8.08,.78,11.4,.43,1.05,.87,2.09,1.24,3.16,.19,.55,.37,1.11,.52,1.68,.09,.34,.15,.68,.23,1.02,.15,.63,.03-.19,.08,.51,.17,2.38-.38,4.36-2.01,6.44-.84,1.06-1.95,2.11-2.97,2.87-.53,.39-1.09,.74-1.66,1.07-.33,.19-.67,.37-1.02,.54,.01,0-.88,.39-.59,.27-.67,.27-1.37,.48-2.07,.64-.23,.05-.46,.1-.69,.14-.41,.07-.46,.08-.15,.03-.17,.02-.34,.03-.5,.04-.6,.04-1.21,.03-1.81-.03,.68,.06-.32-.07-.39-.08-.31-.07-.6-.17-.9-.25-.57-.15-.24-.07-.08,0-.33-.14-.64-.32-.95-.51-.41-.25-.79-.52-1.23-.73-1.14-.55-2.32-.78-3.59-.81-.33,0-.67,0-1,0-.21,0-.43-.03-.65-.03-.7,.01,.66,.19-.08-.01-.22-.06-.44-.1-.66-.17-.11-.03-.99-.39-.56-.19-.77-.36-1.49-.82-2.18-1.31-1.46-1.01-3.64-.27-4.49,1.18-.96,1.65-.27,3.46,1.18,4.49,3.77,2.69,8.11,4.55,12.63,5.54l-1.96-4.82c-2.3,4.39-7.99,6.43-10.71,10.88-2.67,4.37-3.18,10.46-1.02,15.12,.75,1.61,3.07,2.01,4.49,1.18,1.65-.97,1.93-2.88,1.18-4.49,.31,.67-.15-.49-.21-.75-.06-.24-.1-.48-.15-.72-.1-.51,.02,.76-.02-.19-.04-.89-.03-2.27,.04-2.81-.04,.32,.11-.57,.1-.55,.04-.22,.09-.44,.14-.65,.13-.54,.3-1.06,.48-1.59,.33-.95-.14,.24,.11-.26,.12-.24,.23-.47,.36-.7s.27-.44,.41-.66c.28-.43-.48,.47,.13-.17,3.41-3.59,7.95-5.77,10.33-10.32,.93-1.78,.2-4.35-1.96-4.82-4.05-.88-7.68-2.47-11.06-4.88l-3.31,5.67c2.19,1.51,4.56,2.5,7.24,2.59,.34,.01,.68,0,1.01,0s1.26,.23,.27-.04c.34,.09,1.08,.5,.4,.05,.42,.27,.86,.54,1.29,.79,4.79,2.71,10.73,1.72,15.35-.86,5.36-2.99,9.85-8.4,10.1-14.73,.21-5.24-2.9-9.57-4.08-14.5-.06-.24-.1-.48-.16-.71-.28-1.11,.02,.43-.03-.1-.04-.35,.14-1.04-.09,.2,.07-.35,.38-.84-.15,.22,.32-.66-.41,.45-.18,.2,.45-.48-.74,.51-.19,.15,.64-.42-.49,.07-.17,.06,.18,0,.42-.12,.6-.16,.94-.24-.65,0,.11-.02,1.23-.04,2.43-.01,3.65,.12,.17,.02,1.26,.15,.71,.08s.59,.09,.77,.11c.81,.12,1.63,.26,2.44,.41,6.83,1.23,13.79,3.22,20.77,3.14,1.62-.02,3.33-.15,4.87-.65,2.46-.8,4.52-2.5,6.87-3.57,5.72-2.63,11.85-3.21,18-3.49,2.48-.11,4.09-2.7,2.84-4.94-.17-.32-.16-.27,.04,.13-.07-.3-.08-.32-.04-.06,.03,.27,.03,.24,0-.08,0-.14,0-.27,.01-.41,.02-.24,0-.19-.03,.17,.04-.19,.08-.39,.13-.58,.04-.13,.33-.94,.09-.36,.12-.28,.27-.56,.43-.82,.07-.12,.56-.76,.2-.33,.19-.23,.4-.44,.62-.64-.6,.56,.83-.39-.03-.04l-4.04-4.04-2.49,6.59c-.81,2.13,1.23,4.03,3.17,4.16,5.75,.37,11.5,.03,17.23-.43,1.42-.11,2.84-.23,4.26-.34,.1,0,2.17-.24,2.19-.17,.09,.29-1.41-.51-1.02-.28-.12-.07-.72-.65-.79-.78-.11-.19-.33-.94-.19-.37-.26-1.12-.06-.65-.1-.24,.06-.65,.12-.69-.02-.11-.09,.37-.71,1.71-.2,.73-.3,.59-.56,1.19-.88,1.77-.69,1.25-1.48,2.46-2.3,3.62-.25,.36-.51,.71-.77,1.07-.14,.18-.72,.94-.31,.41-.57,.73-1.16,1.45-1.76,2.16-1.15,1.36-2.36,2.67-3.63,3.92-.64,.63-1.3,1.25-1.97,1.84-.32,.28-.65,.56-.98,.84-.16,.13-.32,.26-.49,.39-.21,.17,.48-.35-.11,.08-.64,.46-1.28,.92-1.96,1.32-.29,.17-.59,.34-.89,.49-.14,.07-.3,.12-.43,.21-.19,.12,.76-.29,.03-.03-3.56,1.3-2.84,6.07,.87,6.45,3.48,.36,6.89-.09,9.68-2.35,2.47-2,3.99-5.07,5.57-7.77,1.12-1.91,2.14-3.5,2.11-5.8-.01-.83-.13-1.66-.15-2.49-.03-1.03,.11-2-.12-3.03-.5-2.22-2.38-3.56-4.56-3.75-1.71-.15-3.42,.36-5.1,.59-5.01,.68-10.1-.02-15.12-.3-4.29-.24-8.59-.09-12.77,.95-8.5,2.13-16.06,7.8-19.81,15.81-2.11,4.5-3.18,9.46-3.02,14.43,.07,2.26,.38,4.56,.95,6.75,.25,.96,.55,1.91,.91,2.83,.26,.66,.54,1.31,.84,1.96,.09,.19,.18,.38,.27,.56,.28,.53-.04,.27-.17-.46v-1.75h0l.84-1.44h0l2.32-.96c.49-.05,1.23,.22,1.58,.42-.03-.02-.06-.04-.09-.06,.38,.22,.79,.66,.29,.21-.32-.29-.64-.57-.95-.86-1.03-.95-2.04-1.92-3.05-2.89-2.8-2.68-5.58-5.37-8.41-8.02-2.39-2.24-4.77-4.52-7.34-6.55-.96-.76-1.91-1.56-3.11-1.9-1.64-.45-3.38,.41-4.03,1.96-.19,.44-.25,.87-.36,1.34-.03,.13-.08,.24-.12,.37,0-.03,.25-.53,.08-.19-.16,.31-.33,.6-.51,.9-.38,.61,.16-.1-.2,.28-.22,.23-.42,.47-.65,.7-.46,.47-.96,.91-1.47,1.33-1.09,.91-2.25,1.75-3.35,2.65-2.36,1.92-4.52,4.28-5.25,7.32-.36,1.5,.26,2.86,1.51,3.71,6.11,4.14,12.44,7.93,18.96,11.37,1.17,.62,3.06,.64,3.98-.51,2.8-3.53,6.51-6.68,10.56-8.05l-2.53-6c-3.37,1.85-6.46,4.26-9.14,7-.62,.64-1.24,1.29-1.81,1.99-.7,.85-.97,1.86-1.35,2.87-.54,1.46-1.07,3.06-.64,4.62,.78,2.82,4.19,3.2,6.62,3.68,3.32,.66,6.77,1.17,10.16,.93l-.87-6.45c-1.37,.28-2.54,.5-3.59,.58-.58,.05-1.17,.07-1.76,.06-.2,0-.4-.01-.6-.02-.19-.01-.39-.03-.58-.05,.35,.05,.41,.06,.17,.02-.98-.16-1.92-.43-2.84-.8,.55,.22,.07,.03-.04-.02-.28-.14-.56-.27-.84-.41-.61-.31-1.2-.65-1.79-.99-5.13-3.01-8.97-7.61-13.9-10.91-5.54-3.71-12.51-4.84-18.69-2.06-4.02,1.81-7.1,5.76-9.39,9.39-2.75,4.37-5.04,9.66-4.27,14.92,.26,1.76,2.48,2.72,4.04,2.29,1.88-.52,2.55-2.28,2.29-4.04h0Z" style="fill: #00adef;"/>
      </g>
      <g>
        <path d="M407.68,236.81c-1-6.1,6.28-18.15,12.15-20.6s11.4-.7,15.7,2.29c4.31,2.98,7.81,7.15,12.26,9.9,5.68,3.5,8.26,4.31,15.7,2.75-5.13,.41-12.07-1.39-13.22-1.77-1.16-.38,.28-3.16,.75-4.73,3.02-3.55,6.57-6.47,10.29-8.48-4.35,1.43-8.69,4.64-12.01,8.89-6.53-3.43-12.86-7.23-18.96-11.37,1.31-6.05,10.9-8.27,11.65-14.25,.24-1.9-.63-3.34-1.37-4.74-3.88-7.4,19.52,5.17,26.01-3.57,5.68-7.64,14.39-10.55,21.77-10.81,7.38-.27,14.31,1.44,21.86,.19,3.16-.53,2.82,4.23,2.21,5.23-4.94,8.12-8.85,9.79-11.03,13.01,8.27-2.93,23.47-23.15,17.91-23.5-8.39,.61-14.04,1.75-22.14,1.2,.83-2.2,5.09-6.34,5.92-8.54-2.77,1.03-9.73,7.35-8.36,9.55-7.92,.35-16.36,1.27-24.24,6.48-7.88,5.21-38.29-8.33-37.03,.26,.98,6.68,6.46,11.96,3.26,19.19-.86,1.93-2.25,3.63-3.76,5.04-5.2,4.83-12.11,6.17-16.41,3.17-2.87-2-4.27,.76-9.56-2.98,3.5,2.53,7.51,4.29,11.85,5.21-2.05,4.08-6.22,6.14-9.41,9.23-3.2,3.1-4.04,9.92-2.32,13.45" style="fill: #fff;"/>
        <path d="M407.94,236.74c-.58-3.97,1.57-8.31,3.56-11.6,2.12-3.53,5.05-7.45,9.06-8.92,5.98-2.2,11.91,.09,16.65,3.87,4.32,3.44,8.06,7.36,12.97,10.02,1.77,.96,3.63,1.72,5.64,1.97,2.59,.32,5.22-.15,7.75-.67,.3-.06,.24-.56-.07-.54-2.75,.19-5.51-.12-8.21-.61-1.06-.19-2.12-.41-3.17-.67-.61-.15-1.82-.22-2.01-.95-.22-.86,.61-2.31,.9-3.11,.5-1.39,1.76-2.45,2.81-3.47,2.29-2.22,4.84-4.13,7.64-5.67,.27-.15,.09-.6-.21-.5-3.01,1.02-5.74,2.69-8.14,4.76-.64,.56-1.26,1.14-1.86,1.75-.3,.31-.59,.63-.88,.95-.25,.28-.66,1.02-.98,1.16-.66,.29-2.03-.81-2.64-1.15-.9-.49-1.79-.98-2.68-1.49-3.48-1.97-6.9-4.05-10.26-6.23-.79-.51-1.58-1.03-2.36-1.56-.32-.21-.72-.38-.75-.74-.02-.29,.28-.81,.4-1.06,.55-1.14,1.39-2.1,2.3-2.96,3.02-2.87,8.33-5.27,8.86-9.91,.16-1.46-.32-2.78-.98-4.06-.28-.55-.88-1.34-.82-2.02,.07-.97,1.45-.85,2.15-.82,3.58,.18,7.11,1.25,10.66,1.73,3.56,.48,7.67,.85,11-.83,2.03-1.02,3.09-2.96,4.61-4.55,2.27-2.36,4.99-4.25,7.97-5.62,6.28-2.87,12.9-2.9,19.66-2.41,3.94,.28,7.9,.59,11.84,.18,1.33-.14,3.1-.83,3.87,.65,.47,.9,.47,2.1,.28,3.08-.25,1.29-1.27,2.44-2,3.49-.96,1.38-2.01,2.69-3.14,3.94-1.46,1.6-3.1,3-4.61,4.55-.56,.58-1.08,1.19-1.54,1.85-.13,.19,.09,.48,.31,.4,2.89-1.06,5.38-3.21,7.58-5.3,2.77-2.62,5.28-5.53,7.51-8.62,1.59-2.21,3.38-4.71,4.05-7.4,.16-.65,.3-1.48-.08-2.09-.65-1.01-2.2-.57-3.15-.48-6.75,.58-13.42,1.48-20.21,1.04l.26,.35c1.32-3.22,4.59-5.31,5.92-8.54,.08-.19-.15-.41-.34-.34-2.35,.92-4.46,2.9-6.15,4.72-1.07,1.15-3.32,3.48-2.37,5.23l.24-.41c-5.51,.25-11.04,.79-16.29,2.58-2.79,.95-5.41,2.24-7.89,3.82-1.02,.65-2.1,1-3.3,1.17-3.05,.44-6.25,0-9.27-.47-3.47-.53-6.91-1.26-10.36-1.93-2.95-.57-5.94-1.18-8.95-1.32-1.56-.08-3.89-.17-5,1.17-.44,.53-.55,1.2-.49,1.88,.2,2.27,1.18,4.51,2.04,6.59,.95,2.3,1.97,4.66,2.18,7.18,.24,2.88-.7,5.65-2.42,7.96-3.46,4.66-10.23,8.62-16.15,6.63-1.82-.61-3.05-1.89-5.05-1.94-.85-.02-1.69,.02-2.53-.15-1.52-.3-2.86-1.1-4.12-1.96-.29-.2-.56,.27-.28,.47,3.59,2.55,7.61,4.3,11.91,5.24l-.16-.4c-1.3,2.48-3.36,4.27-5.53,5.97-1.85,1.46-3.93,2.86-5.18,4.91-2.07,3.39-2.72,8.42-1.02,12.08,.15,.32,.62,.04,.47-.28-1.77-3.81-.87-9.54,1.87-12.69,3.08-3.54,7.6-5.39,9.86-9.71,.08-.15,.02-.36-.16-.4-4.25-.93-8.23-2.65-11.78-5.18l-.28,.47c1.74,1.2,3.57,2.11,5.72,2.18,.69,.02,1.4-.04,2.09,.07,.94,.15,1.6,.69,2.41,1.14,3.83,2.17,8.65,1.19,12.31-.86,4.39-2.46,8.4-6.88,8.61-12.13,.19-4.89-2.87-9.08-3.97-13.7-.23-.98-.64-2.29,.17-3.12,.61-.63,1.64-.78,2.48-.86,2.78-.24,5.65,.34,8.37,.83,6.57,1.19,13.25,3.11,19.97,3.04,1.36-.01,2.77-.12,4.07-.54,.55-.18,1.07-.42,1.56-.72,1.5-.91,2.98-1.81,4.59-2.55,6.13-2.82,12.85-3.59,19.52-3.9,.21,0,.34-.22,.24-.41-.88-1.62,1.91-4.22,2.89-5.19,1.51-1.51,3.29-3.16,5.31-3.95l-.34-.34c-1.32,3.22-4.59,5.31-5.92,8.54-.07,.18,.11,.34,.26,.35,5.35,.34,10.64-.11,15.95-.64,1.34-.13,2.68-.27,4.02-.38,.69-.06,2.01-.45,2.66-.04,.62,.39,.43,1.31,.28,1.9-.62,2.47-2.24,4.79-3.69,6.84-2.06,2.92-4.4,5.66-6.94,8.17-2.33,2.3-5,4.77-8.13,5.92l.31,.4c.98-1.41,2.27-2.54,3.51-3.71,1.65-1.57,3.21-3.21,4.6-5.02,1.24-1.6,3.01-3.51,3.3-5.59,.18-1.28,.09-3.07-1.03-3.94-.56-.43-1.19-.46-1.87-.39-1.96,.22-3.87,.45-5.84,.46-3.46,.01-6.91-.35-10.37-.55-5.55-.32-10.99,.03-16.19,2.13-2.42,.98-4.7,2.28-6.74,3.9-1.11,.88-2.14,1.85-3.09,2.9-.78,.87-1.41,1.88-2.25,2.69-2.51,2.42-6.47,2.49-9.73,2.25-3.53-.26-6.99-1.06-10.47-1.65-1.28-.22-4.43-1.1-5.38,.28-.57,.83,.14,1.95,.52,2.68,.85,1.61,1.42,3.25,.86,5.06-.38,1.22-1.16,2.26-2.03,3.16-3.13,3.22-8.26,5.34-9.39,10.07-.03,.13,.02,.24,.13,.31,6.11,4.14,12.44,7.93,18.96,11.37,.1,.05,.26,.05,.33-.04,3.1-3.91,7.12-7.2,11.89-8.82l-.21-.5c-3.16,1.73-6.02,3.96-8.53,6.53-.59,.6-1.4,1.26-1.81,1.99-.26,.46-.39,1.05-.58,1.54-.3,.82-.95,2.11-.64,3.02,.19,.57,.68,.66,1.21,.81,1.09,.3,2.2,.55,3.31,.77,3.07,.61,6.23,1.04,9.36,.82l-.07-.54c-2.59,.54-5.3,1.02-7.95,.6-2.25-.35-4.29-1.39-6.23-2.53-5.14-3.02-8.97-7.61-13.9-10.91-4.62-3.09-10.41-4.33-15.66-2.06-3.59,1.55-6.29,5.1-8.31,8.31-2.24,3.56-4.6,8.25-3.96,12.6,.05,.35,.58,.2,.53-.15h0Z" style="fill: #fff;"/>
      </g>
      <g style="filter: url(#AI_GaussianBlur_4-8);">
        <path d="M407.68,236.81c-1-6.1,6.28-18.15,12.15-20.6s11.4-.7,15.7,2.29c4.31,2.98,7.81,7.15,12.26,9.9,5.68,3.5,8.26,4.31,15.7,2.75-5.13,.41-12.07-1.39-13.22-1.77-1.16-.38,.28-3.16,.75-4.73,3.02-3.55,6.57-6.47,10.29-8.48-4.35,1.43-8.69,4.64-12.01,8.89-6.53-3.43-12.86-7.23-18.96-11.37,1.31-6.05,10.9-8.27,11.65-14.25,.24-1.9-.63-3.34-1.37-4.74-3.88-7.4,19.52,5.17,26.01-3.57,5.68-7.64,14.39-10.55,21.77-10.81,7.38-.27,14.31,1.44,21.86,.19,3.16-.53,2.82,4.23,2.21,5.23-4.94,8.12-8.85,9.79-11.03,13.01,8.27-2.93,23.47-23.15,17.91-23.5-8.39,.61-14.04,1.75-22.14,1.2,.83-2.2,5.09-6.34,5.92-8.54-2.77,1.03-9.73,7.35-8.36,9.55-7.92,.35-16.36,1.27-24.24,6.48-7.88,5.21-38.29-8.33-37.03,.26,.98,6.68,6.46,11.96,3.26,19.19-.86,1.93-2.25,3.63-3.76,5.04-5.2,4.83-12.11,6.17-16.41,3.17-2.87-2-4.27,.76-9.56-2.98,3.5,2.53,7.51,4.29,11.85,5.21-2.05,4.08-6.22,6.14-9.41,9.23-3.2,3.1-4.04,9.92-2.32,13.45" style="fill: #fff;"/>
        <path d="M407.94,236.74c-.58-3.97,1.57-8.31,3.56-11.6,2.12-3.53,5.05-7.45,9.06-8.92,5.98-2.2,11.91,.09,16.65,3.87,4.32,3.44,8.06,7.36,12.97,10.02,1.77,.96,3.63,1.72,5.64,1.97,2.59,.32,5.22-.15,7.75-.67,.3-.06,.24-.56-.07-.54-2.75,.19-5.51-.12-8.21-.61-1.06-.19-2.12-.41-3.17-.67-.61-.15-1.82-.22-2.01-.95-.22-.86,.61-2.31,.9-3.11,.5-1.39,1.76-2.45,2.81-3.47,2.29-2.22,4.84-4.13,7.64-5.67,.27-.15,.09-.6-.21-.5-3.01,1.02-5.74,2.69-8.14,4.76-.64,.56-1.26,1.14-1.86,1.75-.3,.31-.59,.63-.88,.95-.25,.28-.66,1.02-.98,1.16-.66,.29-2.03-.81-2.64-1.15-.9-.49-1.79-.98-2.68-1.49-3.48-1.97-6.9-4.05-10.26-6.23-.79-.51-1.58-1.03-2.36-1.56-.32-.21-.72-.38-.75-.74-.02-.29,.28-.81,.4-1.06,.55-1.14,1.39-2.1,2.3-2.96,3.02-2.87,8.33-5.27,8.86-9.91,.16-1.46-.32-2.78-.98-4.06-.28-.55-.88-1.34-.82-2.02,.07-.97,1.45-.85,2.15-.82,3.58,.18,7.11,1.25,10.66,1.73,3.56,.48,7.67,.85,11-.83,2.03-1.02,3.09-2.96,4.61-4.55,2.27-2.36,4.99-4.25,7.97-5.62,6.28-2.87,12.9-2.9,19.66-2.41,3.94,.28,7.9,.59,11.84,.18,1.33-.14,3.1-.83,3.87,.65,.47,.9,.47,2.1,.28,3.08-.25,1.29-1.27,2.44-2,3.49-.96,1.38-2.01,2.69-3.14,3.94-1.46,1.6-3.1,3-4.61,4.55-.56,.58-1.08,1.19-1.54,1.85-.13,.19,.09,.48,.31,.4,2.89-1.06,5.38-3.21,7.58-5.3,2.77-2.62,5.28-5.53,7.51-8.62,1.59-2.21,3.38-4.71,4.05-7.4,.16-.65,.3-1.48-.08-2.09-.65-1.01-2.2-.57-3.15-.48-6.75,.58-13.42,1.48-20.21,1.04l.26,.35c1.32-3.22,4.59-5.31,5.92-8.54,.08-.19-.15-.41-.34-.34-2.35,.92-4.46,2.9-6.15,4.72-1.07,1.15-3.32,3.48-2.37,5.23l.24-.41c-5.51,.25-11.04,.79-16.29,2.58-2.79,.95-5.41,2.24-7.89,3.82-1.02,.65-2.1,1-3.3,1.17-3.05,.44-6.25,0-9.27-.47-3.47-.53-6.91-1.26-10.36-1.93-2.95-.57-5.94-1.18-8.95-1.32-1.56-.08-3.89-.17-5,1.17-.44,.53-.55,1.2-.49,1.88,.2,2.27,1.18,4.51,2.04,6.59,.95,2.3,1.97,4.66,2.18,7.18,.24,2.88-.7,5.65-2.42,7.96-3.46,4.66-10.23,8.62-16.15,6.63-1.82-.61-3.05-1.89-5.05-1.94-.85-.02-1.69,.02-2.53-.15-1.52-.3-2.86-1.1-4.12-1.96-.29-.2-.56,.27-.28,.47,3.59,2.55,7.61,4.3,11.91,5.24l-.16-.4c-1.3,2.48-3.36,4.27-5.53,5.97-1.85,1.46-3.93,2.86-5.18,4.91-2.07,3.39-2.72,8.42-1.02,12.08,.15,.32,.62,.04,.47-.28-1.77-3.81-.87-9.54,1.87-12.69,3.08-3.54,7.6-5.39,9.86-9.71,.08-.15,.02-.36-.16-.4-4.25-.93-8.23-2.65-11.78-5.18l-.28,.47c1.74,1.2,3.57,2.11,5.72,2.18,.69,.02,1.4-.04,2.09,.07,.94,.15,1.6,.69,2.41,1.14,3.83,2.17,8.65,1.19,12.31-.86,4.39-2.46,8.4-6.88,8.61-12.13,.19-4.89-2.87-9.08-3.97-13.7-.23-.98-.64-2.29,.17-3.12,.61-.63,1.64-.78,2.48-.86,2.78-.24,5.65,.34,8.37,.83,6.57,1.19,13.25,3.11,19.97,3.04,1.36-.01,2.77-.12,4.07-.54,.55-.18,1.07-.42,1.56-.72,1.5-.91,2.98-1.81,4.59-2.55,6.13-2.82,12.85-3.59,19.52-3.9,.21,0,.34-.22,.24-.41-.88-1.62,1.91-4.22,2.89-5.19,1.51-1.51,3.29-3.16,5.31-3.95l-.34-.34c-1.32,3.22-4.59,5.31-5.92,8.54-.07,.18,.11,.34,.26,.35,5.35,.34,10.64-.11,15.95-.64,1.34-.13,2.68-.27,4.02-.38,.69-.06,2.01-.45,2.66-.04,.62,.39,.43,1.31,.28,1.9-.62,2.47-2.24,4.79-3.69,6.84-2.06,2.92-4.4,5.66-6.94,8.17-2.33,2.3-5,4.77-8.13,5.92l.31,.4c.98-1.41,2.27-2.54,3.51-3.71,1.65-1.57,3.21-3.21,4.6-5.02,1.24-1.6,3.01-3.51,3.3-5.59,.18-1.28,.09-3.07-1.03-3.94-.56-.43-1.19-.46-1.87-.39-1.96,.22-3.87,.45-5.84,.46-3.46,.01-6.91-.35-10.37-.55-5.55-.32-10.99,.03-16.19,2.13-2.42,.98-4.7,2.28-6.74,3.9-1.11,.88-2.14,1.85-3.09,2.9-.78,.87-1.41,1.88-2.25,2.69-2.51,2.42-6.47,2.49-9.73,2.25-3.53-.26-6.99-1.06-10.47-1.65-1.28-.22-4.43-1.1-5.38,.28-.57,.83,.14,1.95,.52,2.68,.85,1.61,1.42,3.25,.86,5.06-.38,1.22-1.16,2.26-2.03,3.16-3.13,3.22-8.26,5.34-9.39,10.07-.03,.13,.02,.24,.13,.31,6.11,4.14,12.44,7.93,18.96,11.37,.1,.05,.26,.05,.33-.04,3.1-3.91,7.12-7.2,11.89-8.82l-.21-.5c-3.16,1.73-6.02,3.96-8.53,6.53-.59,.6-1.4,1.26-1.81,1.99-.26,.46-.39,1.05-.58,1.54-.3,.82-.95,2.11-.64,3.02,.19,.57,.68,.66,1.21,.81,1.09,.3,2.2,.55,3.31,.77,3.07,.61,6.23,1.04,9.36,.82l-.07-.54c-2.59,.54-5.3,1.02-7.95,.6-2.25-.35-4.29-1.39-6.23-2.53-5.14-3.02-8.97-7.61-13.9-10.91-4.62-3.09-10.41-4.33-15.66-2.06-3.59,1.55-6.29,5.1-8.31,8.31-2.24,3.56-4.6,8.25-3.96,12.6,.05,.35,.58,.2,.53-.15h0Z" style="fill: #fff;"/>
      </g>
    </g>
  </g>
</svg>