<?xml version="1.0" encoding="UTF-8"?>
<svg id="Layer_18" data-name="Layer 18" xmlns="http://www.w3.org/2000/svg" width="600" height="600" xmlns:xlink="http://www.w3.org/1999/xlink" viewBox="0 0 600 600">
  <defs>
    <linearGradient id="linear-gradient" x1="299.35" y1="645.89" x2="299.35" y2="386.66" gradientTransform="matrix(1, 0, 0, 1, 0, 0)" gradientUnits="userSpaceOnUse">
      <stop offset=".52" stop-color="#fff"/>
      <stop offset="1" stop-color="#000"/>
    </linearGradient>
    <radialGradient id="radial-gradient" cx="299.34" cy="271.76" fx="299.34" fy="271.76" r="202.85" gradientTransform="matrix(1, 0, 0, 1, 0, 0)" gradientUnits="userSpaceOnUse">
      <stop offset=".24" stop-color="#000"/>
      <stop offset=".99" stop-color="#192740"/>
    </radialGradient>
    <filter id="drop-shadow-7" filterUnits="userSpaceOnUse">
      <feOffset dx="1.06" dy="-5.29"/>
      <feGaussianBlur result="blur" stdDeviation="5.29"/>
      <feFlood flood-color="#000" flood-opacity=".75"/>
      <feComposite in2="blur" operator="in"/>
      <feComposite in="SourceGraphic"/>
    </filter>
    <linearGradient id="linear-gradient-2" x1="299.35" y1="520.67" x2="299.35" y2="459.66" gradientTransform="matrix(1, 0, 0, 1, 0, 0)" gradientUnits="userSpaceOnUse">
      <stop offset="0" stop-color="#fff"/>
      <stop offset="1" stop-color="#000"/>
    </linearGradient>
    <linearGradient id="linear-gradient-3" x1="299.35" y1="609.15" x2="299.35" y2="66.96" gradientTransform="matrix(1, 0, 0, 1, 0, 0)" gradientUnits="userSpaceOnUse">
      <stop offset=".02" stop-color="#fff"/>
      <stop offset=".51" stop-color="#000"/>
    </linearGradient>
    <filter id="AI_GaussianBlur_4">
      <feGaussianBlur stdDeviation="4"/>
    </filter>
    <filter id="AI_GaussianBlur_4-2" data-name="AI_GaussianBlur_4">
      <feGaussianBlur stdDeviation="4"/>
    </filter>
    <filter id="AI_GaussianBlur_4-3" data-name="AI_GaussianBlur_4">
      <feGaussianBlur stdDeviation="4"/>
    </filter>
    <filter id="AI_GaussianBlur_4-4" data-name="AI_GaussianBlur_4">
      <feGaussianBlur stdDeviation="4"/>
    </filter>
  </defs>
  <rect x="-9.5" y="-10.5" width="625" height="622" style="fill: #770e15;"/>
  <g>
    <path d="M523.54,504.5H88.49c-1.95,0-2.48-2.69-.67-3.43l38.16-15.61,364.98,1.06,33.44,13.53c2.35,.95,1.67,4.45-.87,4.45Z" style="fill: #56070f;"/>
    <rect x="254.57" y="406.99" width="89.55" height="63.21" style="fill: url(#linear-gradient);"/>
    <rect x="38.7" y="112.01" width="520.5" height="316.05" rx="13.76" ry="13.76" style="fill: #b7bbbc;"/>
    <path d="M546.92,140.9V402.61c0,7.78-6.31,14.08-14.08,14.08H65.85c-1.34,0-2.63-.19-3.86-.54-2.03-.57-3.86-1.6-5.41-2.95-2.95-2.57-4.81-6.37-4.81-10.59V140.9c0-7.78,6.31-14.08,14.08-14.08h466.99c.41,0,.81,.02,1.22,.05,5.15,.44,9.52,3.66,11.58,8.16,.82,1.79,1.28,3.78,1.28,5.87Z" style="fill: url(#radial-gradient); filter: url(#drop-shadow-7);"/>
    <polygon points="254.57 470.2 233.5 486 365.19 486 344.12 470.2 254.57 470.2" style="fill: url(#linear-gradient-2);"/>
    <path d="M233.5,486h131.69v4.97c0,3.07-2.49,5.56-5.56,5.56h-120.57c-3.07,0-5.56-2.49-5.56-5.56v-4.97h0Z" style="fill: url(#linear-gradient-3);"/>
    <g>
      <g style="filter: url(#AI_GaussianBlur_4); opacity: .55;">
        <path d="M454.77,425.64s24.61-28.28,38.08-31.18c13.47-2.9,27.84-7.24,27.92-25.26,.08-18.02,0-35.1,0-35.1,0,0-16.64-7.67-17.97-17.11-1.33-9.44-9.95-47.16-9.95-47.16l-29.6-19.62s37.07,17.66,40.88,16.5c3.81-1.16,12.37-33.02,12.37-33.02,0,0-16.18,41.25-12.37,51.09,3.81,9.84,4.83,31.95,9.16,32.2,4.34,.26,18.21,17.11,18.21,17.11,0,0,.95,25.66,0,35.1-.95,9.44-16.65,40.15-27.38,32.87-10.73-7.28-35.37,23.29-26.88,23.41" style="fill: #b92026;"/>
        <path d="M454.77,425.64s24.61-28.28,38.08-31.18c13.47-2.9,27.84-7.24,27.92-25.26,.08-18.02,0-35.1,0-35.1,0,0-16.64-7.67-17.97-17.11-1.33-9.44-9.95-47.16-9.95-47.16l-29.6-19.62s37.07,17.66,40.88,16.5c3.81-1.16,12.37-33.02,12.37-33.02,0,0-16.18,41.25-12.37,51.09,3.81,9.84,4.83,31.95,9.16,32.2,4.34,.26,18.21,17.11,18.21,17.11,0,0,.95,25.66,0,35.1-.95,9.44-16.65,40.15-27.38,32.87-10.73-7.28-35.37,23.29-26.88,23.41" style="fill: none; stroke: #b92026; stroke-miterlimit: 10; stroke-width: 4.85px;"/>
      </g>
      <path d="M451.54,428.87s24.61-28.28,38.08-31.18c13.47-2.9,27.84-7.24,27.92-25.26,.08-18.02,0-35.1,0-35.1,0,0-16.64-7.67-17.97-17.11-1.33-9.44-9.95-47.16-9.95-47.16l-29.6-19.62s32.29,15.69,36.1,14.53c3.81-1.16,17.15-31.05,17.15-31.05,0,0-16.18,41.25-12.37,51.09,3.81,9.84,.58,34.63,4.91,34.88,4.34,.26,22.46,14.43,22.46,14.43,0,0,.95,25.66,0,35.1-.95,9.44-16.65,40.15-27.38,32.87-10.73-7.28-35.37,23.29-26.88,23.41" style="fill: #fff;"/>
      <g style="filter: url(#AI_GaussianBlur_4-2);">
        <path d="M453.16,433.72s24.61-28.28,38.08-31.18c13.47-2.9,27.84-7.24,27.92-25.26,.08-18.02,0-35.1,0-35.1,0,0-16.64-7.67-17.97-17.11-1.33-9.44-9.95-47.16-9.95-47.16l-29.6-19.62s32.29,15.69,36.1,14.53c3.81-1.16,17.15-31.05,17.15-31.05,0,0-16.18,41.25-12.37,51.09,3.81,9.84,.58,34.63,4.91,34.88,4.34,.26,22.46,14.43,22.46,14.43,0,0,.95,25.66,0,35.1-.95,9.44-16.65,40.15-27.38,32.87-10.73-7.28-35.37,23.29-26.88,23.41" style="fill: #fff;"/>
      </g>
    </g>
    <g>
      <g style="filter: url(#AI_GaussianBlur_4-3); opacity: .38;">
        <path d="M124.51,114.24c4,8.21-2.87,25.12-11.26,28.87-8.39,3.75-17.9,1.78-25.93-1.96-8.04-3.74-15.26-9.14-23.44-12.55-10.43-4.35-14.86-5.26-26.11-2.59,8.02-.93,19.79,1.01,21.78,1.44,1.99,.43,.79,4.32,.66,6.48-3.42,5.04-7.93,9.27-13.07,12.27,6.37-2.25,12.03-6.94,15.65-12.96,11.76,4.19,23.34,8.88,34.7,14.07,.28,8.32-14.12,12.03-12.96,20.21,.37,2.6,2.32,4.49,4.04,6.33,9.1,9.77,13.84,25.75,6.93,38.1-6.04,10.79-18.79,15.37-30.45,16.27-11.66,.9-23.37-.92-34.92,1.34-4.83,.94-8.34,2.07-9.13-2.95-.23-1.46-2.3-5.37-1.73-6.77,4.69-11.39,4.46-16.33,17.74-15.71-12.03,4.58-28.3,33.16-19.31,33.22,13.13-1.45,24.26-3.16,37.38-3.01l-1.38,9.13c4.01-1.59,5.36-8.02,2.3-10.91,12.49-1.05,25.57-2.92,36.09-10.57,10.52-7.65,17.32-22.83,11.94-34.4-4.19-9-15-15.78-12.74-25.83,.61-2.69,2.15-5.1,4.01-7.11,6.39-6.95,16.87-9.26,24.92-5.51,5.36,2.5,6.51-1.34,16.41,3.36-6.57-3.18-13.66-5.28-20.93-6.21,1.66-5.7,7.49-8.79,11.37-13.23s2.54-13.77-1.6-18.44" style="fill: #b92026;"/>
        <path d="M120.31,116.7c.34,.72-.36-1.12-.07-.15,.09,.28,.19,.55,.26,.84s.15,.58,.2,.88c.03,.17,.05,.35,.09,.52,.12,.54-.11-1.32-.06-.36,.07,1.41,.02,2.75-.07,4.16-.04,.53,.08-.56,.08-.54-.06,.15-.07,.43-.09,.6-.06,.36-.13,.71-.2,1.07-.16,.77-.35,1.54-.57,2.3s-.44,1.44-.7,2.14c-.13,.35-.28,.7-.41,1.06-.22,.62,.4-.85,.12-.27-.12,.24-.22,.49-.33,.74-.65,1.4-1.39,2.75-2.23,4.04-.2,.3-.4,.6-.61,.9-.13,.18-.76,1.11-.34,.48s-.22,.25-.37,.43c-.25,.29-.51,.58-.78,.86-.45,.47-.92,.92-1.42,1.34-.13,.11-.3,.22-.42,.34-.03,.03,.88-.62,.46-.36-.33,.2-.63,.44-.97,.63-.21,.13-.43,.24-.65,.36-.9,.48,.44-.12-.5,.22-1.02,.37-2.06,.69-3.12,.93-.49,.11-.98,.2-1.48,.28,.97-.16-.29,.02-.62,.05-1.07,.08-2.14,.1-3.21,.06-.5-.02-1-.05-1.5-.1-.33-.03-1.57-.22-.64-.06-1.14-.2-2.28-.4-3.4-.69-2.04-.51-4.02-1.21-5.98-1.98-.52-.21,.1,.04,.17,.07-.26-.12-.53-.23-.79-.35-.47-.21-.94-.44-1.41-.66-1.01-.49-2.01-1.01-3.01-1.54-3.91-2.1-7.68-4.46-11.55-6.62-4.06-2.27-8.28-4.18-12.63-5.84-3.78-1.45-7.64-2.5-11.69-2.76-4.49-.29-9.04,.6-13.4,1.62-2.36,.55-3.79,3.04-3.48,5.34,.29,2.17,2.37,4.48,4.78,4.22,2.79-.31,5.6-.3,8.39-.15,1.47,.07,2.94,.19,4.41,.33,.63,.06,1.26,.13,1.88,.2,.32,.04,.65,.08,.97,.12,.18,.02,1.31,.18,.43,.05-.83-.12,.04,0,.22,.03,.27,.04,.54,.08,.81,.12,.47,.07,.94,.14,1.41,.22,.52,.09,1.29,.39,1.82,.33,.4-.05-.53-.25-.63-.31-.85-.51-1.4-1.21-1.65-2.12l.06,.22c-.32-1.49-.08-.73-.08-.28,0,.29-.02,.58-.04,.86-.03,.4-.31,1.2,.03-.08-.07,.29-.09,.6-.13,.9-.13,.88-.26,1.76-.33,2.64l.66-2.45c-.39,.57-.8,1.13-1.21,1.69,.64-.86-.19,.22-.26,.32-.22,.27-.44,.53-.67,.79-.94,1.09-1.94,2.13-2.99,3.12-.5,.47-1.01,.92-1.53,1.37-.26,.22-.53,.43-.79,.65-.43,.37,.59-.42-.15,.12-1.2,.89-2.44,1.71-3.73,2.47-2.09,1.23-2.92,3.86-1.99,6.07,.88,2.08,3.45,3.64,5.74,2.82,7.77-2.81,14.25-8.14,18.55-15.19l-5.49,2.24c5.81,2.07,11.57,4.26,17.28,6.57,1.41,.57,2.82,1.15,4.22,1.73,.3,.12,.59,.25,.89,.37,1.42,.59-.43-.18,.39,.16,.74,.31,1.47,.63,2.21,.94,2.87,1.23,5.72,2.5,8.56,3.8l-2.41-4.2c0,.28-.05,.59-.02,.86,.05,.42,.08-.67,.1-.7-.05,.08-.04,.26-.07,.35-.08,.26-.16,.53-.23,.79-.17,.68,.55-1.03,.07-.18-.26,.46-.52,.91-.81,1.35-.07,.11-.24,.27-.29,.4-.02,.04,.7-.85,.37-.49-.23,.25-.44,.52-.67,.77-1.64,1.78-3.56,3.29-5.34,4.92-1.89,1.73-3.81,3.71-4.88,6.07-1.66,3.67-1.65,7.66,.47,11.19,1.04,1.73,2.45,3.19,3.81,4.66,.54,.58,1.05,1.17,1.55,1.78,.07,.08,.33,.32,.34,.43,0-.07-.67-.9-.09-.11,.26,.35,.51,.69,.76,1.05,1,1.43,1.9,2.92,2.7,4.46,.37,.72,.72,1.46,1.06,2.2,.39,.86-.24-.66,.09,.22,.18,.47,.36,.93,.53,1.41,.56,1.59,1.02,3.22,1.36,4.87,.09,.43,.17,.85,.24,1.28,.03,.18,.06,.37,.09,.55,.1,.57-.04-.35-.05-.37,.23,.77,.18,1.78,.21,2.59,.03,.86,.03,1.72,0,2.59-.02,.37-.04,.74-.07,1.1-.02,.24-.05,.49-.07,.73-.08,.82-.06-.17,.03-.2-.16,.05-.4,2.08-.46,2.35-.2,.84-.45,1.67-.74,2.49-.14,.41-.28,.83-.47,1.22,.37-.77,.07-.19-.12,.21-.38,.79-.8,1.55-1.26,2.29-.2,.32-1.07,2.03-1.43,2.08-.02,0,.59-.71,.21-.28-.12,.13-.23,.28-.34,.41-.31,.36-.62,.71-.95,1.06-.53,.56-1.08,1.09-1.64,1.6-.31,.27-.62,.54-.94,.8-.14,.11-.28,.22-.41,.33-.52,.43,.7-.5,.14-.12-1.32,.9-2.62,1.79-4.04,2.55-.73,.39-1.48,.76-2.23,1.1-.16,.07-.33,.14-.49,.22-.51,.24,.32-.15,.34-.14-.14-.08-1.17,.46-1.33,.52-1.51,.56-3.06,1.04-4.62,1.44s-3.13,.72-4.72,.98c-.15,.02-1.51,.21-.76,.12s-.6,.07-.75,.08c-.9,.1-1.8,.17-2.71,.23-8.82,.57-17.66-.31-26.47,.31-2.45,.17-4.9,.47-7.33,.87-.88,.15-1.75,.32-2.62,.5-.72,.14-1.64,.17-2.32,.43-.02,0,1.1-.09,.59-.08-.13,0-.27,.03-.41,.04-.3,.02-.59,0-.89,.02-.05,0-.32-.05-.36-.02-.02,.02,1.16,.17,.73,.08-.89-.18,.88,.62,.18,.1-.4-.3,.65,.53,.56,.45-.28-.26-.34-.52,.32,.48-.45-.69,.06-.14,.02,.26,.05-.49-.34-1.39-.47-1.9-.33-1.29-.93-2.51-1.34-3.78-.09-.28-.17-.56-.24-.85-.03-.13-.05-.27-.09-.4-.18-.59,.07,1.14,.09,.58,.02-.44-.16,.82-.13,.8,.04-.03,.11-.3,.12-.33,.2-.41,.34-.85,.51-1.27,.51-1.28,1-2.58,1.49-3.87,.21-.55,.42-1.09,.64-1.64,.06-.16,.13-.32,.19-.47,.19-.49-.29,.66-.25,.59,.15-.28,.26-.59,.39-.88,.41-.89,.87-1.74,1.4-2.56,.12-.18,.59-.8,.03-.07s-.03,.06,.11-.11c.29-.32,.71-.58,.97-.92-.27,.35-1.05,.7-.28,.25,.17-.1,.33-.21,.51-.3,.2-.11,.45-.19,.64-.32,.05-.03-1.11,.39-.68,.29,.17-.04,.35-.13,.51-.18,.48-.16,.98-.28,1.48-.38,.25-.05,.5-.08,.75-.13,.51-.1-.68,.08-.63,.09,.21,.02,.49-.05,.7-.07,1.49-.12,2.99-.1,4.49-.04l-1.29-9.55c-4.93,1.92-8.97,5.45-12.43,9.39-3.64,4.15-6.89,8.76-9.4,13.69-1.86,3.66-4.06,8.29-3.6,12.54,.29,2.63,1.37,4.95,3.78,6.27,1.53,.83,3.16,.94,4.85,.75,2.23-.25,4.45-.51,6.68-.77,9.8-1.15,19.6-2.2,29.48-2.1l-4.69-6.16-1.38,9.13c-.3,2,.05,3.8,1.74,5.11s3.54,1.18,5.4,.38c3.14-1.35,5.39-4.75,6.07-8.02,.78-3.76,0-7.75-2.78-10.53l-3.44,8.3c12.69-1.08,25.89-2.93,36.79-10.03,9.91-6.45,17.03-17.25,17.92-29.17,.42-5.65-1.1-11.28-4.12-16.05-1.52-2.4-3.32-4.63-5.08-6.86-.36-.45-.72-.91-1.08-1.37-.74-.94,.63,.84-.08-.11-.2-.27-.41-.55-.62-.82-.73-.99-1.42-1.99-2.05-3.05-.28-.46-.54-.93-.78-1.41-.03-.06-.44-.85-.41-.86-.02,.01,.41,1.08,.01,0-.18-.49-.33-.99-.46-1.49-.07-.3-.13-.61-.19-.91-.2-.94,.03,1.09,.02,.05,0-.53-.04-1.06,0-1.6l.02-.33c.06-.54,.04-.44-.05,.3-.08-.09,.2-.97,.23-1.07,.07-.27,.16-.52,.24-.79,.35-1.24-.47,.78,.13-.36,.38-.74,.78-1.46,1.25-2.14,.09-.13,.95-1.16,.23-.34,.18-.21,.35-.42,.54-.63,.5-.57,1.03-1.1,1.59-1.62,.18-.17,.37-.33,.55-.49,.17-.14,1.05-1,.16-.16,.51-.48,1.22-.87,1.82-1.23,.52-.32,1.05-.61,1.59-.88,.29-.15,.67-.4,.98-.47-1.15,.24-.12,.05,.18-.06,1.23-.46,2.51-.82,3.8-1.06,.31-.06,1.36-.42,.11-.05,.32-.1,.73-.08,1.06-.1,.7-.05,1.41-.07,2.12-.05,.35,0,.7,.03,1.05,.05,.23,.02,.47,.04,.7,.06-.66-.1-.8-.12-.42-.06,.75,.13,1.49,.27,2.22,.47,.6,.16,1.49,.3,1.99,.67-.79-.58-.46-.19-.08-.02,.58,.26,1.16,.52,1.75,.74,1.15,.43,2.33,.62,3.55,.75,1.6,.17,3.2-.08,4.8-.02,.19,0,.38,.02,.57,.03,.48,.04,1.21,.35-.17-.04,.55,.16,1.15,.21,1.71,.35,.68,.17,1.35,.39,2.01,.62,.38,.14,.76,.28,1.13,.43-.98-.39,.78,.36,.94,.44,2.3,1.08,5.35,.72,6.65-1.74,1.15-2.17,.7-5.48-1.74-6.65-7.45-3.58-15.2-5.8-23.39-6.88l4.69,6.16c.07-.23,.14-.46,.22-.68,.19-.5,.17-.44-.08,.18,0-.29,.43-.83,.58-1.08,.21-.35,.44-.68,.67-1.03,.32-.43,.28-.38-.12,.15,.15-.18,.3-.36,.46-.54,1.11-1.27,2.37-2.41,3.63-3.53,2.75-2.44,5.67-4.85,7.13-8.32,2.98-7.05,.93-15.86-3.97-21.54-1.67-1.93-5.19-1.84-6.88,0-1.89,2.06-1.78,4.82,0,6.88,.13,.15,.26,.31,.39,.47-.44-.58-.51-.66-.21-.24,.16,.27,.35,.53,.51,.8s.32,.56,.47,.85c.1,.2,.19,.39,.29,.59,.22,.48,.18,.4-.1-.24,.36,.27,.51,1.47,.64,1.92,.1,.38,.2,.77,.28,1.16s.1,1.57,.08,.21c.01,.72,.14,1.44,.14,2.17,0,.38-.01,.77-.04,1.15-.01,.16-.03,.32-.04,.48-.04,.38-.02,.21,.07-.5-.12,.06-.47,1.88-.53,2.1-.29,.97,.53-.93,.02-.07-.15,.27-.41,.59-.51,.88-.21,.3-.09,.17,.34-.41-.14,.17-.28,.33-.42,.49-.24,.27-.49,.53-.75,.79-.6,.61-1.22,1.19-1.85,1.77-1.18,1.07-2.39,2.1-3.55,3.19-2.79,2.63-5.09,5.66-6.24,9.36-.46,1.48-.05,3.05,.87,4.24,1.02,1.31,2.23,1.71,3.82,1.92-1.04-.14,.44,.07,.52,.08,.45,.07,.9,.15,1.35,.22,.83,.15,1.65,.31,2.47,.48,1.71,.37,3.41,.8,5.09,1.3s3.19,1.01,4.76,1.61c.43,.16,.85,.33,1.27,.5,1.39,.55-.85-.39,.52,.21,.84,.37,1.67,.75,2.49,1.14l4.91-8.4c-3.14-1.47-6.22-2.61-9.66-3.03-1.54-.19-3.04-.09-4.58-.05-.3,0-.61,.01-.91,0-.18,0-.37-.03-.55-.04-.67-.01,.73,.1,.72,.1-.35-.16-.84-.17-1.22-.29-.14-.04-.29-.11-.44-.15-.71-.19,1.22,.54-.09-.04-2.97-1.32-5.97-2.09-9.22-2.27-5.78-.33-11.94,1.45-16.68,4.77-5.64,3.95-10.28,9.95-10.33,17.1-.04,5.53,2.8,10.38,6.05,14.64,.95,1.25,1.93,2.48,2.9,3.72,.2,.26,1.39,1.68,.53,.67,.45,.53,.84,1.11,1.25,1.68,.73,1.02,1.43,2.07,2.06,3.16,.28,.49,.54,.98,.79,1.49,.17,.35,.75,1,.06,.09,.21,.28,.3,.79,.41,1.12,.2,.59,.37,1.19,.51,1.8,.08,.36,.42,1.31,.32,1.66l-.08-.62c.03,.23,.05,.45,.07,.68,.02,.23,.04,.45,.05,.68,.04,.8,.05,1.6,0,2.39-.02,.45,.08,1.34-.14,1.72l.09-.6c-.03,.23-.07,.46-.11,.69-.04,.23-.08,.46-.12,.69-.27,1.39-.64,2.76-1.11,4.09-.19,.54-.36,1.17-.63,1.67,.6-1.11,.02-.07-.08,.16-.13,.27-.26,.55-.39,.82-.62,1.25-1.31,2.46-2.06,3.63-.33,.51-.67,1.01-1.03,1.5-.13,.18-.81,1.2-.12,.18-.2,.3-.46,.57-.69,.85-.85,1.01-1.75,1.98-2.71,2.9-.52,.49-1.05,.97-1.6,1.43-.17,.15-1.09,.94-.12,.12-.39,.33-.84,.62-1.26,.92-1.39,.97-2.83,1.85-4.33,2.64-.74,.39-1.49,.77-2.25,1.12-.38,.18-.76,.35-1.14,.51,.98-.43-.16,.06-.38,.15-1.68,.67-3.39,1.24-5.13,1.75-3.35,.97-6.78,1.67-10.22,2.19-.28,.04-.55,.08-.83,.12-.28,.04-.55,.08-.83,.12,.6-.08,.62-.08,.05,0-.83,.1-1.66,.2-2.49,.3-1.79,.2-3.59,.36-5.38,.52-1.98,.17-3.64,1.09-4.44,2.99-.75,1.78-.39,3.92,1.01,5.31,.08,.08,.74,.76,.16,.12-.53-.59-.06,.01,.06,.19,.43,.66-.15-.79-.12-.28,.01,.19,.13,.49,.18,.66,.19,.67-.12-.31-.05-.46-.05,.12,.03,.55,.02,.71,0,.19-.1,.53-.04,.71-.1-.32,.25-1.13,0-.3-.07,.23-.14,.47-.19,.7-.16,.65,.02-.22,.18-.36-.11,.09-.71,1.14-.7,1.24,0-.28,.79-.81,.13-.23-.11,.1-.47,.37-.51,.48,.08-.2,.89-.55,.31-.28-.25,.12-.49,.26-.75,.37l7.14,5.49,1.38-9.13c.24-1.6,.15-2.92-.87-4.24-.93-1.21-2.27-1.9-3.82-1.92-8.08-.08-16.13,.58-24.16,1.48-4.08,.46-8.16,.96-12.24,1.42-.37,.04-.76,.04-1.12,.11-.74,.13,.85,.12,.74,.11-1.04-.16,.91,.51,.4,.19-.48-.3,1.07,.9,.66,.51-.53-.5,.6,.83,.46,.64-.61-.86,.41,1.11,.15,.43-.04-.11-.04-.24-.09-.35-.19-.4,.07,1.41,.1,.72,.01-.31-.02-.62,0-.92,0-.15,.03-.31,.04-.46,.02-.63-.26,1.41-.07,.55,.09-.38,.15-.77,.25-1.15,.22-.86,.5-1.71,.82-2.55,.09-.25,.2-.49,.29-.73,.1-.28-.5,1.14-.13,.3,.22-.48,.43-.96,.66-1.44,1-2.08,2.15-4.09,3.4-6.04,.66-1.03,1.35-2.04,2.07-3.04,.19-.27,.39-.54,.59-.8,.11-.15,.72-.93,.22-.3s.12-.15,.23-.29c.21-.26,.41-.51,.62-.77,1.69-2.05,3.51-4,5.52-5.73,.22-.19,.45-.38,.67-.56,.09-.08,.2-.15,.29-.23,.43-.39-.88,.64-.41,.32s.94-.69,1.43-1c.43-.28,.87-.54,1.32-.78,.25-.13,.5-.25,.74-.38,.94-.48-.78,.31-.24,.1,2.28-.89,3.83-2.78,3.48-5.34s-2.33-4.11-4.78-4.22c-5.68-.24-12.02,.41-15.84,5.15-1.87,2.32-2.98,4.93-4.08,7.68-.52,1.31-1.01,2.63-1.52,3.95-.71,1.83-1.43,3.41-1.16,5.43,.22,1.62,.75,3.07,1.32,4.59,.52,1.39,.74,2.82,1.32,4.19,1.74,4.12,5.82,5.32,9.93,4.76,1.81-.24,3.59-.65,5.39-.97,.56-.1,1.12-.18,1.69-.27s.02,0-.09,.01c.32-.04,.64-.08,.97-.11,1.21-.13,2.42-.23,3.63-.3,4.69-.27,9.39-.15,14.08-.08,8.34,.12,16.8-.02,24.85-2.45,7.06-2.13,14.03-5.86,18.78-11.62,5.2-6.29,7.82-14.18,7.31-22.35-.49-7.79-3.26-15.5-7.82-21.84-1.24-1.72-2.58-3.38-4.03-4.93-.61-.66-1.21-1.32-1.8-2,.54,.63,.09,.1-.14-.25-.13-.22-.25-.44-.38-.66-.44-.74,.04,.44,0-.06,0-.05-.12-.54-.14-.56,.08,.03,.04,1.15,.06,.42,0-.27,0-.55,0-.83,0-.96-.26,.91-.03,.27,.1-.28,.18-.59,.26-.87,.19-.7-.6,1.1-.07,.22,.14-.23,.26-.48,.41-.71s.33-.46,.48-.69c.25-.39-.41,.52-.39,.5,.15-.09,.29-.35,.4-.48,3.65-4.18,8.73-6.93,10.97-12.25,.66-1.56,1.01-3.19,.99-4.9-.03-1.58-.88-3.5-2.41-4.2-11.74-5.35-23.71-10.22-35.86-14.56-2.04-.73-4.43,.49-5.49,2.24-.45,.73-.92,1.45-1.42,2.15-.12,.16-.23,.32-.35,.48,.32-.41,.37-.48,.15-.2-.26,.3-.5,.61-.76,.91-1.07,1.24-2.25,2.39-3.5,3.44-.12,.1-1.16,.89-.24,.21-.31,.23-.63,.46-.95,.69-.64,.44-1.29,.86-1.96,1.26s-1.35,.76-2.04,1.09c-.12,.06-1.46,.64-.82,.38s-.72,.26-.85,.31l3.75,8.89c3.75-2.21,7.23-4.98,10.19-8.17,1.58-1.7,3.13-3.54,4.39-5.5,.6-.94,.79-1.8,.91-2.92,.04-.41,.3-1.32-.03,.07,.25-1.05,.33-2.18,.44-3.25,.22-2.29-.28-4.57-1.88-6.29-1.08-1.15-2.55-1.56-4.03-1.82-3.1-.54-6.23-.94-9.36-1.23-4.13-.39-8.32-.6-12.45-.14l1.29,9.55c1.08-.25,2.17-.5,3.27-.71,.47-.09,.93-.18,1.4-.25,.26-.04,.51-.08,.77-.12,.95-.16-.6,.06,0,0,1.74-.17,3.46-.3,5.21-.2,.37,.02,.74,.06,1.11,.09,1.24,.11-.76-.15,.12,.01s1.69,.31,2.53,.52c1.81,.46,3.58,1.07,5.33,1.73,.99,.38,1.97,.77,2.95,1.17,.28,.12,.56,.23,.84,.35-.08-.04-.63-.29-.13-.05,.61,.29,1.23,.56,1.84,.85,2.03,.97,4.01,2.05,5.97,3.16,4.05,2.31,8.01,4.78,12.17,6.91,8.64,4.42,18.49,7.31,28.18,4.98,3.83-.92,7.28-2.68,10.09-5.46,2.45-2.42,4.46-5.41,5.97-8.51,3.46-7.12,5.55-15.9,2.03-23.39-1.09-2.31-4.58-3.08-6.65-1.74-2.38,1.53-2.91,4.18-1.74,6.65h0Z" style="fill: #b92026;"/>
      </g>
      <g>
        <path d="M125.36,112.17c4,8.21-2.87,25.12-11.26,28.87-8.39,3.75-17.9,1.78-25.93-1.96-8.04-3.74-15.26-9.14-23.44-12.55-10.43-4.35-14.86-5.26-26.11-2.59,8.02-.93,19.79,1.01,21.78,1.44,1.99,.43,.79,4.32,.66,6.48-3.42,5.04-7.93,9.27-13.07,12.27,6.37-2.25,12.03-6.94,15.65-12.96,11.76,4.19,23.34,8.88,34.7,14.07,.28,8.32-14.12,12.03-12.96,20.21,.37,2.6,2.32,4.49,4.04,6.33,9.1,9.77,13.84,25.75,6.93,38.1-6.04,10.79-18.79,15.37-30.45,16.27-11.66,.9-23.37-.92-34.92,1.34-4.83,.94-6.16-5.54-5.58-6.94,4.69-11.39,10.25-13.95,12.47-18.48-12.03,4.58-28.3,33.16-19.31,33.22,13.13-1.45,21.69-3.39,34.81-3.23-.46,3.04-5.62,8.99-6.08,12.03,4.01-1.59,12.63-10.69,9.56-13.58,12.49-1.05,25.57-2.92,36.09-10.57,10.52-7.65,17.32-22.83,11.94-34.4-4.19-9-15-15.78-12.74-25.83,.61-2.69,2.15-5.1,4.01-7.11,6.39-6.95,16.87-9.26,24.92-5.51,5.36,2.5,6.51-1.34,16.41,3.36-6.57-3.18-13.66-5.28-20.93-6.21,1.66-5.7,7.49-8.79,11.37-13.23s2.54-13.77-1.6-18.44" style="fill: #fff;"/>
        <path d="M125.01,112.38c2.54,5.39,.61,12.39-1.75,17.48-1.28,2.76-2.91,5.41-5.02,7.62-2.37,2.48-5.25,3.86-8.59,4.6-8.77,1.94-17.66-1.27-25.3-5.38-3.91-2.1-7.68-4.46-11.55-6.62s-7.58-3.87-11.57-5.39c-3.39-1.29-6.87-2.37-10.51-2.6-4.12-.26-8.22,.52-12.21,1.46-.43,.1-.35,.85,.11,.8,6.06-.67,12.3-.04,18.3,.85,.89,.13,1.79,.27,2.68,.44,.27,.05,.59,.07,.84,.19,.64,.31,.69,1.08,.69,1.72,0,1.25-.13,2.72-.44,3.94-.2,.78-.92,1.51-1.4,2.14-.62,.81-1.27,1.59-1.95,2.34-2.76,3.08-5.98,5.7-9.54,7.81-.38,.23-.13,.9,.31,.74,6.65-2.41,12.21-7.12,15.89-13.14l-.46,.19c8.86,3.16,17.63,6.6,26.27,10.32,2.06,.89,4.11,1.79,6.15,2.71,.47,.21,1.38,.45,1.75,.79,.26,.24,.21,.18,.22,.59,.02,.65-.22,1.37-.45,1.97-.9,2.35-2.86,4.17-4.69,5.81-3.21,2.88-8.1,6.21-7.86,11.09,.17,3.4,2.86,5.65,4.95,8.03,2.42,2.76,4.43,5.89,5.98,9.22,3.13,6.72,4.43,14.54,2.5,21.79s-6.82,12.75-13.11,16.34-13.43,5.17-20.54,5.61c-9.3,.57-18.63-.44-27.92,.43-2.16,.2-4.35,.81-6.5,.91-1.4,.06-2.57-.65-3.35-1.78-.63-.92-1.02-2.03-1.18-3.13-.2-1.38,.34-2.36,.93-3.61,1.48-3.18,3.32-6.17,5.55-8.88,1.45-1.75,3.08-3.36,4.48-5.15,.58-.74,1.1-1.51,1.52-2.34,.14-.28-.1-.73-.46-.6-4.15,1.62-7.57,4.95-10.46,8.24-3.4,3.87-6.37,8.19-8.7,12.79-1.51,2.97-3.46,6.83-2.99,10.29,.14,1.02,.6,1.97,1.58,2.42,.84,.39,1.7,.24,2.6,.14,2.14-.25,4.27-.52,6.4-.8,9.05-1.2,18.04-2.39,27.19-2.3l-.39-.51c-.4,2.24-1.99,4.31-3.17,6.2-1.11,1.78-2.53,3.72-2.9,5.83-.05,.26,.18,.63,.5,.5,3.17-1.32,5.91-4.18,7.96-6.86,1.35-1.76,3.85-5.29,1.78-7.4l-.29,.69c11.92-1.01,24.3-2.76,34.54-9.42,8.51-5.54,14.95-15.05,15.71-25.32,.37-4.93-.87-9.63-3.51-13.8s-6.32-7.86-8.91-12.2c-2.92-4.89-3.32-10.27,0-15.13s8.52-7.93,14.1-8.98c3.04-.57,6.22-.5,9.21,.32,2.05,.56,3.89,1.73,6.02,1.98,1.6,.18,3.2-.08,4.8-.02,2.96,.12,5.78,1.2,8.44,2.44,.47,.22,.88-.47,.41-.7-6.68-3.2-13.79-5.31-21.14-6.27l.39,.51c1.1-3.56,3.8-6.1,6.51-8.51,2.26-2.01,4.99-4.03,6.21-6.89,2.26-5.3,.64-12.4-3.05-16.67-.34-.4-.91,.18-.57,.57,3.68,4.26,5.44,12.2,2.14,17.15-1.76,2.64-4.64,4.58-6.93,6.73s-4.18,4.43-5.09,7.39c-.09,.28,.14,.48,.39,.51,7.19,.94,14.19,3.02,20.73,6.16l.41-.7c-2.36-1.1-4.82-2.08-7.41-2.42-1.54-.2-3.04-.09-4.58-.05-1.71,.04-3.17-.34-4.73-1.03-2.21-.97-4.57-1.53-6.97-1.66-5.09-.29-10.26,1.25-14.43,4.16s-8.08,7.76-8.12,13.25c-.04,4.71,2.68,8.79,5.44,12.39,3.12,4.08,6.79,8.03,8.44,12.99,3.45,10.37-1.85,22.04-9.38,29.21-10.34,9.84-25.45,12.02-39.07,13.18-.34,.03-.55,.43-.29,.69,1.88,1.92-1.29,5.71-2.5,7.15-1.84,2.2-4.19,4.63-6.89,5.75l.5,.5c.4-2.24,1.99-4.31,3.17-6.2,1.11-1.78,2.53-3.72,2.9-5.83,.05-.26-.11-.51-.39-.51-7.49-.08-14.9,.65-22.32,1.64-3.84,.51-7.67,1.04-11.52,1.48-1.3,.15-2.54,.13-3-1.29-.41-1.26-.09-2.74,.23-3.98,.48-1.9,1.24-3.72,2.09-5.48,2.09-4.34,4.78-8.43,7.84-12.14s6.73-7.65,11.28-9.43l-.46-.6c-.85,1.7-2.14,3.11-3.4,4.51-1.61,1.78-3.18,3.59-4.56,5.56-.94,1.35-1.79,2.76-2.55,4.21s-1.64,2.91-2.04,4.43,.21,3.33,.91,4.62c.95,1.76,2.63,2.95,4.68,2.75s4.13-.69,6.22-.88,4.19-.3,6.29-.34c8.36-.18,16.77,.58,25.1-.4,12-1.41,24.7-6.93,29.73-18.68s.7-26.16-7.57-35.5c-2.13-2.4-4.99-4.82-4.56-8.37,.27-2.26,1.83-4.12,3.39-5.67,3.1-3.09,7.49-5.69,9.1-9.96,.35-.94,.51-1.92,.49-2.92,0-.13-.07-.29-.2-.35-11.39-5.2-23-9.9-34.8-14.11-.17-.06-.37,.04-.46,.19-3.56,5.83-8.96,10.44-15.4,12.77l.31,.74c3.44-2.03,6.57-4.54,9.29-7.48,1.33-1.43,2.61-2.96,3.69-4.59,.64-.98,.6-2.68,.71-3.85,.09-1,.2-2.36-.58-3.13-.52-.52-1.38-.56-2.07-.68-2.71-.47-5.44-.82-8.17-1.07-4.13-.39-8.32-.6-12.45-.14l.11,.8c3.87-.91,7.84-1.67,11.84-1.44,3.55,.2,6.96,1.26,10.27,2.51,4.35,1.65,8.5,3.64,12.54,5.94s8.01,4.78,12.17,6.91c7.53,3.86,16.28,6.57,24.75,4.53,3.1-.75,5.85-2.06,8.13-4.31s3.92-4.83,5.27-7.6c2.67-5.51,4.79-13.02,2.03-18.89-.22-.47-.92-.06-.7,.41h0Z" style="fill: #fff;"/>
      </g>
      <g style="filter: url(#AI_GaussianBlur_4-4);">
        <path d="M125.36,112.17c4,8.21-2.87,25.12-11.26,28.87-8.39,3.75-17.9,1.78-25.93-1.96-8.04-3.74-15.26-9.14-23.44-12.55-10.43-4.35-14.86-5.26-26.11-2.59,8.02-.93,19.79,1.01,21.78,1.44,1.99,.43,.79,4.32,.66,6.48-3.42,5.04-7.93,9.27-13.07,12.27,6.37-2.25,12.03-6.94,15.65-12.96,11.76,4.19,23.34,8.88,34.7,14.07,.28,8.32-14.12,12.03-12.96,20.21,.37,2.6,2.32,4.49,4.04,6.33,9.1,9.77,13.84,25.75,6.93,38.1-6.04,10.79-18.79,15.37-30.45,16.27-11.66,.9-23.37-.92-34.92,1.34-4.83,.94-6.16-5.54-5.58-6.94,4.69-11.39,10.25-13.95,12.47-18.48-12.03,4.58-28.3,33.16-19.31,33.22,13.13-1.45,21.69-3.39,34.81-3.23-.46,3.04-5.62,8.99-6.08,12.03,4.01-1.59,12.63-10.69,9.56-13.58,12.49-1.05,25.57-2.92,36.09-10.57,10.52-7.65,17.32-22.83,11.94-34.4-4.19-9-15-15.78-12.74-25.83,.61-2.69,2.15-5.1,4.01-7.11,6.39-6.95,16.87-9.26,24.92-5.51,5.36,2.5,6.51-1.34,16.41,3.36-6.57-3.18-13.66-5.28-20.93-6.21,1.66-5.7,7.49-8.79,11.37-13.23s2.54-13.77-1.6-18.44" style="fill: #fff;"/>
        <path d="M125.01,112.38c2.54,5.39,.61,12.39-1.75,17.48-1.28,2.76-2.91,5.41-5.02,7.62-2.37,2.48-5.25,3.86-8.59,4.6-8.77,1.94-17.66-1.27-25.3-5.38-3.91-2.1-7.68-4.46-11.55-6.62s-7.58-3.87-11.57-5.39c-3.39-1.29-6.87-2.37-10.51-2.6-4.12-.26-8.22,.52-12.21,1.46-.43,.1-.35,.85,.11,.8,6.06-.67,12.3-.04,18.3,.85,.89,.13,1.79,.27,2.68,.44,.27,.05,.59,.07,.84,.19,.64,.31,.69,1.08,.69,1.72,0,1.25-.13,2.72-.44,3.94-.2,.78-.92,1.51-1.4,2.14-.62,.81-1.27,1.59-1.95,2.34-2.76,3.08-5.98,5.7-9.54,7.81-.38,.23-.13,.9,.31,.74,6.65-2.41,12.21-7.12,15.89-13.14l-.46,.19c8.86,3.16,17.63,6.6,26.27,10.32,2.06,.89,4.11,1.79,6.15,2.71,.47,.21,1.38,.45,1.75,.79,.26,.24,.21,.18,.22,.59,.02,.65-.22,1.37-.45,1.97-.9,2.35-2.86,4.17-4.69,5.81-3.21,2.88-8.1,6.21-7.86,11.09,.17,3.4,2.86,5.65,4.95,8.03,2.42,2.76,4.43,5.89,5.98,9.22,3.13,6.72,4.43,14.54,2.5,21.79s-6.82,12.75-13.11,16.34-13.43,5.17-20.54,5.61c-9.3,.57-18.63-.44-27.92,.43-2.16,.2-4.35,.81-6.5,.91-1.4,.06-2.57-.65-3.35-1.78-.63-.92-1.02-2.03-1.18-3.13-.2-1.38,.34-2.36,.93-3.61,1.48-3.18,3.32-6.17,5.55-8.88,1.45-1.75,3.08-3.36,4.48-5.15,.58-.74,1.1-1.51,1.52-2.34,.14-.28-.1-.73-.46-.6-4.15,1.62-7.57,4.95-10.46,8.24-3.4,3.87-6.37,8.19-8.7,12.79-1.51,2.97-3.46,6.83-2.99,10.29,.14,1.02,.6,1.97,1.58,2.42,.84,.39,1.7,.24,2.6,.14,2.14-.25,4.27-.52,6.4-.8,9.05-1.2,18.04-2.39,27.19-2.3l-.39-.51c-.4,2.24-1.99,4.31-3.17,6.2-1.11,1.78-2.53,3.72-2.9,5.83-.05,.26,.18,.63,.5,.5,3.17-1.32,5.91-4.18,7.96-6.86,1.35-1.76,3.85-5.29,1.78-7.4l-.29,.69c11.92-1.01,24.3-2.76,34.54-9.42,8.51-5.54,14.95-15.05,15.71-25.32,.37-4.93-.87-9.63-3.51-13.8s-6.32-7.86-8.91-12.2c-2.92-4.89-3.32-10.27,0-15.13s8.52-7.93,14.1-8.98c3.04-.57,6.22-.5,9.21,.32,2.05,.56,3.89,1.73,6.02,1.98,1.6,.18,3.2-.08,4.8-.02,2.96,.12,5.78,1.2,8.44,2.44,.47,.22,.88-.47,.41-.7-6.68-3.2-13.79-5.31-21.14-6.27l.39,.51c1.1-3.56,3.8-6.1,6.51-8.51,2.26-2.01,4.99-4.03,6.21-6.89,2.26-5.3,.64-12.4-3.05-16.67-.34-.4-.91,.18-.57,.57,3.68,4.26,5.44,12.2,2.14,17.15-1.76,2.64-4.64,4.58-6.93,6.73s-4.18,4.43-5.09,7.39c-.09,.28,.14,.48,.39,.51,7.19,.94,14.19,3.02,20.73,6.16l.41-.7c-2.36-1.1-4.82-2.08-7.41-2.42-1.54-.2-3.04-.09-4.58-.05-1.71,.04-3.17-.34-4.73-1.03-2.21-.97-4.57-1.53-6.97-1.66-5.09-.29-10.26,1.25-14.43,4.16s-8.08,7.76-8.12,13.25c-.04,4.71,2.68,8.79,5.44,12.39,3.12,4.08,6.79,8.03,8.44,12.99,3.45,10.37-1.85,22.04-9.38,29.21-10.34,9.84-25.45,12.02-39.07,13.18-.34,.03-.55,.43-.29,.69,1.88,1.92-1.29,5.71-2.5,7.15-1.84,2.2-4.19,4.63-6.89,5.75l.5,.5c.4-2.24,1.99-4.31,3.17-6.2,1.11-1.78,2.53-3.72,2.9-5.83,.05-.26-.11-.51-.39-.51-7.49-.08-14.9,.65-22.32,1.64-3.84,.51-7.67,1.04-11.52,1.48-1.3,.15-2.54,.13-3-1.29-.41-1.26-.09-2.74,.23-3.98,.48-1.9,1.24-3.72,2.09-5.48,2.09-4.34,4.78-8.43,7.84-12.14s6.73-7.65,11.28-9.43l-.46-.6c-.85,1.7-2.14,3.11-3.4,4.51-1.61,1.78-3.18,3.59-4.56,5.56-.94,1.35-1.79,2.76-2.55,4.21s-1.64,2.91-2.04,4.43,.21,3.33,.91,4.62c.95,1.76,2.63,2.95,4.68,2.75s4.13-.69,6.22-.88,4.19-.3,6.29-.34c8.36-.18,16.77,.58,25.1-.4,12-1.41,24.7-6.93,29.73-18.68s.7-26.16-7.57-35.5c-2.13-2.4-4.99-4.82-4.56-8.37,.27-2.26,1.83-4.12,3.39-5.67,3.1-3.09,7.49-5.69,9.1-9.96,.35-.94,.51-1.92,.49-2.92,0-.13-.07-.29-.2-.35-11.39-5.2-23-9.9-34.8-14.11-.17-.06-.37,.04-.46,.19-3.56,5.83-8.96,10.44-15.4,12.77l.31,.74c3.44-2.03,6.57-4.54,9.29-7.48,1.33-1.43,2.61-2.96,3.69-4.59,.64-.98,.6-2.68,.71-3.85,.09-1,.2-2.36-.58-3.13-.52-.52-1.38-.56-2.07-.68-2.71-.47-5.44-.82-8.17-1.07-4.13-.39-8.32-.6-12.45-.14l.11,.8c3.87-.91,7.84-1.67,11.84-1.44,3.55,.2,6.96,1.26,10.27,2.51,4.35,1.65,8.5,3.64,12.54,5.94s8.01,4.78,12.17,6.91c7.53,3.86,16.28,6.57,24.75,4.53,3.1-.75,5.85-2.06,8.13-4.31s3.92-4.83,5.27-7.6c2.67-5.51,4.79-13.02,2.03-18.89-.22-.47-.92-.06-.7,.41h0Z" style="fill: #fff;"/>
      </g>
    </g>
  </g>
</svg>