<?xml version="1.0" encoding="UTF-8"?>
<svg xmlns="http://www.w3.org/2000/svg" width="600" height="600" xmlns:xlink="http://www.w3.org/1999/xlink" viewBox="0 0 600 600">
  <defs>
    <linearGradient id="linear-gradient" x1="302.95" y1="-29.08" x2="302.95" y2="550.23" gradientTransform="matrix(1, 0, 0, 1, 0, 0)" gradientUnits="userSpaceOnUse">
      <stop offset="0" stop-color="#6c399e"/>
      <stop offset=".72" stop-color="#a756d6"/>
    </linearGradient>
    <linearGradient id="linear-gradient-2" x1="205.36" y1="336.19" x2="205.36" y2="343.24" gradientTransform="matrix(1, 0, 0, 1, 0, 0)" gradientUnits="userSpaceOnUse">
      <stop offset="0" stop-color="#6c399e"/>
      <stop offset="1" stop-color="#a045cd"/>
    </linearGradient>
  </defs>
  <g id="Layer_1" data-name="Layer 1">
    <rect x="-4.59" y="-4.5" width="615.09" height="607" style="fill: url(#linear-gradient);"/>
    <polygon points="496.45 310.01 623.82 262.04 448.03 229.26 338.84 273.14 496.45 310.01" style="fill: #5e287b;"/>
    <path d="M338.84,273.14s-2.98,3.7-5.19,9.25c0,0,156.93,42.56,164.33,42.56s127.46-48.75,127.46-48.75c0,0,2.07-10.47-1.63-14.17l-127.37,47.97-157.6-36.87Z" style="fill: #41195b;"/>
    <polygon points="636.69 157 636.69 227.95 501.69 205.12 564.6 151.01 636.69 157" style="fill: #5e287b;"/>
    <path d="M641.06,227.07v14.29c-49.37-9.14-161.58-31.13-161.58-31.13,1.81-5.66,22.21-5.11,22.21-5.11l139.38,21.96Z" style="fill: #41195b;"/>
    <polygon points="279.47 265.74 127.15 236.8 270.45 196.39 398.06 221.33 279.47 265.74" style="fill: #5e287b;"/>
    <path d="M127.15,236.8s-6.67,6.74-6.67,10.44c0,0,151.9,31.71,157.37,30.66,5.47-1.05,104.97-39.02,104.97-39.02l11.32-18.31-116.3,41.48-150.7-25.24Z" style="fill: #41195b;"/>
    <polygon points="443.7 194.22 289.98 174.08 426.61 139.76 559.55 143.07 443.7 194.22" style="fill: #5e287b;"/>
    <path d="M289.98,174.08s-6.27,7.11-6.06,10.8c0,0,153.47,22.93,158.87,21.57,5.4-1.36,102.56-44.98,102.56-44.98l10.25-18.93-113.72,48.09-151.9-16.54Z" style="fill: #41195b;"/>
    <path d="M352.74,133.3l7.96,6.13s-118.81,36.99-121.04,37.07c-2.24,.09-148.66-17.61-148.66-17.61,0,0,.57-5.27,3.88-6.23,3.31-.96,139.41,10.75,139.41,10.75l118.45-30.11Z" style="fill: #41195b;"/>
    <polygon points="235.61 165.52 94.88 152.67 213.01 125.1 352.74 133.3 235.61 165.52" style="fill: #5e287b;"/>
    <path d="M-4.71,142.41l118.45-30.11,7.96,6.13S2.89,155.42,.65,155.5" style="fill: #41195b;"/>
    <polyline points="-25.99 104.1 113.74 112.3 -3.39 144.52" style="fill: #5e287b;"/>
    <path d="M565.29,80.71l7.41,5.74s-110.46,34.63-112.54,34.71c-2.08,.08-138.23-16.54-138.23-16.54,0,0,.53-4.93,3.6-5.83,3.07-.9,129.63,10.1,129.63,10.1l110.13-28.18Z" style="fill: #41195b;"/>
    <polygon points="456.4 110.87 325.53 98.8 435.37 73 565.29 80.71 456.4 110.87" style="fill: #5e287b;"/>
    <path d="M319.29,66.71l7.41,5.74s-110.46,34.63-112.54,34.71c-2.08,.08-138.23-16.54-138.23-16.54,0,0,.53-4.93,3.6-5.83,3.07-.9,129.63,10.1,129.63,10.1l110.13-28.18Z" style="fill: #41195b;"/>
    <polygon points="210.4 96.87 79.53 84.8 189.37 59 319.29 66.71 210.4 96.87" style="fill: #5e287b;"/>
    <line x1="192.1" y1="336.49" x2="218.61" y2="343.88" style="fill: url(#linear-gradient-2);"/>
    <polyline points="394.13 280.28 370.98 318.09 371.85 318.96 385.84 314.59 385.49 312.49 375.46 315.4 398.56 280.51 394.13 280.28" style="fill: #a045cd; opacity: .46;"/>
  </g>
  <g id="Layer_5" data-name="Layer 5">
    <polygon points="299.59 396.95 16.03 332.58 172.19 290.81 447.35 340.42 299.59 396.95" style="fill: #ecbb0a;"/>
    <path d="M592.92,114.05l-134.75,42.45-2.03-.82-156.55,241.26-12.72-2.9,149.91-242.42c1.17-1.89,3.02-3.26,5.17-3.83l142.52-37.5,8.45,3.76Z" style="fill: #41195b;"/>
    <path d="M299.59,396.95l149.92-243.01c.53-.86,1.37-1.49,2.35-1.75l140.5-37.97c.96-.26,1.74,.81,1.19,1.64l-146.17,224.51s-.06,.07-.11,.09l-147.69,56.5Z" style="fill: #5e287b;"/>
    <polygon points="401.76 269.44 401.76 280.55 397.52 280.55 374.48 318.09 384.09 315.47 384.09 317.22 368.36 322.46 368.42 322.36 394.34 280.55 390.65 280.55 401.76 269.44" style="fill: #f3bd00;"/>
  </g>
  <g id="Layer_2" data-name="Layer 2">
    <polygon points="172.19 290.81 172.19 309.68 59.54 342.45 16.03 332.58 172.19 290.81"/>
    <polygon points="89.1 349.12 192.08 316.63 192.1 336.49 126.88 357.74 89.1 349.12"/>
    <polygon points="157.27 364.85 218.61 343.88 218.61 359.7 189.49 371.95 157.27 364.85"/>
    <polygon points="214.96 377.96 246.88 363.88 246.88 378.57 238.27 383.03 214.96 377.96"/>
    <path d="M454.87,169.66l23.77-2.07-7.62,11.64-5.56,2.38,5.78-9.08-5.16,1.33-5.32,8.4-4.81,1.17,5.56-8.86-5.53,.13-7.29,11.76-4.3,.04,10.46-16.84Z" style="fill: #f3bd00;"/>
    <path d="M458.51,189.29c0,.33-.14,.83-.41,1.51-.31,.74-.8,1.64-1.5,2.71-.76,1.17-1.68,2.31-2.74,3.41-1.09,1.14-2.27,2.2-3.56,3.18-1.29,.98-2.63,1.85-4.03,2.6-1.38,.72-2.8,1.32-4.23,1.78l-10.76,1.78,3.69-6.02,9.68-.89c1.84-.47,3.3-1.06,4.34-1.7,1.04-.64,1.89-1.46,2.5-2.41,.19-.29,.36-.58,.52-.88,.16-.29,.29-.54,.39-.76l-14.09,1.3,2.68-4.17,17.52-1.43Z" style="fill: #f3bd00;"/>
    <path d="M454.74,209.45l-.65,2.39-6.82,1.85-3.14,4.76-5.23,1.16,3.38-5.1-6.68,.15c-1.04-.1-1.96-.05-2.77,.18-.81,.23-1.56,.86-2.27,1.92-.35,.53-.68,1.09-.96,1.69-.3,.6-.53,1.16-.7,1.69l-4.22,.17c.25-.75,.56-1.55,.95-2.41,.38-.85,.94-1.83,1.68-2.92,.9-1.34,1.75-2.34,2.59-3.02,.82-.65,1.63-1.07,2.47-1.29,.83-.21,1.7-.26,2.62-.16,.94,.07,3.09-.23,4.18-.06l15.58-1.01Z" style="fill: #f3bd00;"/>
    <path d="M429.27,224.26c1.6-.12,2.96-.19,4.07-.2,1.15-.08,2.06-.08,2.71,.02,.65,.08,1.05,.29,1.16,.66,.09,.39-.09,.94-.57,1.66-1.22,1.86-3.29,4-6.14,6.27-2.88,2.33-6.19,4.24-9.74,5.42-.33,.09-.69,.18-1.08,.26-.38,.07-.71,.13-.98,.17l6.91-11.01c-1.09,.13-2.14,.51-3.17,1.2-1.06,.72-2.01,1.75-2.87,3.13-.58,.93-1.08,1.87-1.51,2.82-.43,.97-.73,1.78-.87,2.41l-4.59,1.02c.08-.35,.23-.81,.44-1.38,.2-.55,.47-1.17,.77-1.83,.3-.65,.64-1.34,1.02-2.06,.37-.7,.75-1.37,1.16-2.03,1-1.6,2.02-2.85,3.09-3.78,1.02-.86,2.07-1.48,3.15-1.88,1.07-.38,2.18-.6,3.35-.69,1.19-.12,2.42-.18,3.7-.2Zm-3.54,8.19c.5-.16,1.02-.37,1.57-.62,.55-.26,1.08-.57,1.6-.93,.52-.35,1.01-.73,1.46-1.15,.45-.4,.83-.84,1.12-1.29,.27-.42,.39-.74,.35-.95-.04-.22-.18-.36-.41-.44-.24-.09-.56-.12-.96-.1-.4,0-.82,.04-1.25,.08l-3.47,5.4Z" style="fill: #f3bd00;"/>
    <path d="M415.24,253.02c.43-.6,.91-1.27,1.45-2.03,.53-.73,1-1.46,1.42-2.17,.19-.31,.38-.67,.57-1.07,.19-.38,.3-.66,.34-.83l-13.32,2.17,3.08-5.28,16.36-2.35c-.02,.38-.16,.9-.4,1.59-.26,.75-.8,1.77-1.62,3.11-.15,.26-.36,.57-.62,.97-.27,.4-.55,.82-.85,1.26-.3,.44-.62,.9-.96,1.39-.34,.48-.66,.92-.98,1.32l-4.46,1.91Z" style="fill: #f3bd00;"/>
    <polygon points="257.79 387.58 266.53 384.08 265.66 389.33 257.79 387.58"/>
  </g>
  <g id="Layer_6" data-name="Layer 6">
    <polygon points="608.5 336.5 42.5 606.5 607.5 606.5 608.5 336.5" style="fill: #5e287b;"/>
  </g>
  <g id="Layer_7" data-name="Layer 7">
    <polygon points="631.55 382.73 632.42 466.64 599.86 467.76 447.78 438.16 404.21 429.37 381.5 413.41 299.67 396.9 447.4 340.35 518.83 352.56 544.44 357.19 631.55 382.73" style="fill: #13071c; opacity: .6;"/>
  </g>
  <g id="Layer_8" data-name="Layer 8">
    <polyline points="381.84 420.88 610.5 321.42 610.5 337.05 54.36 600.5 8.02 600.5 381.84 420.88" style="fill: #41195b;"/>
  </g>
  <g id="path">
    <polygon points="113.05 271.29 -18.3 305.49 -18.3 258.52 113.05 271.29" style="fill: #5e287b;"/>
    <path d="M116.78,280.54L-18.3,316.63v-11.14l131.35-34.2s3.74,5.55,3.74,9.25Z" style="fill: #41195b;"/>
    <path d="M-18.15,271.71c.22-.25,.46-.5,.73-.75,.26-.24,.45-.42,.58-.52,1.19-.98,2.67-1.71,4.54-2.23,1.86-.52,3.86-.88,6.03-1.09l7,1.61c-1.74,.5-3.4,1.11-5.01,1.85-1.66,.76-3.06,1.56-4.2,2.39-.05,.03-.15,.11-.31,.22-.16,.11-.33,.25-.52,.4-.19,.16-.39,.32-.6,.49-.21,.17-.39,.32-.53,.46l-7.71-2.85Zm12.31,4.09c.32-.29,.67-.59,1.05-.89,.37-.3,.65-.51,.84-.64,1.75-1.23,3.89-2.25,6.51-3.1,2.61-.85,5.33-1.53,8.21-2.05l8.24,1.06c-2.29,.74-4.51,1.6-6.7,2.6-2.24,1.02-4.12,2.03-5.67,3.05-.06,.04-.2,.13-.41,.27-.21,.14-.45,.3-.7,.49-.26,.19-.53,.38-.81,.58-.28,.2-.52,.38-.71,.54l-9.83-1.9Z"/>
    <polygon points="257.42 410.08 131.59 469.3 -18.3 436.39 -18.3 343.87 257.42 410.08" style="fill: #5e287b;"/>
    <path d="M264.82,417.48v3.7l-125.5,59.22h-19.76l-137.86-29.87v-14.14l149.89,32.9,125.83-59.22s7.4,3.7,7.4,7.4Z" style="fill: #41195b;"/>
    <polygon points="200.39 192.68 66.12 231.06 -18.3 217.92 -18.3 188.2 40.69 171.85 200.39 192.68" style="fill: #5e287b;"/>
    <path d="M200.39,192.68s8.92,2.74,8.92,6.44c0,0-138.38,41.6-143.21,43l-84.4-13.18v-11.03l84.42,13.14,134.27-38.38Z" style="fill: #41195b;"/>
    <polygon points="98.28 454.49 120.48 461.89 131.59 450.79 142.69 454.49 138.99 435.99 109.38 443.39 115.7 446.65 98.28 454.49"/>
  </g>
</svg>